<?xml version="1.0" encoding="utf-8" standalone="no"?>
<!DOCTYPE svg PUBLIC "-//W3C//DTD SVG 1.1//EN"
  "http://www.w3.org/Graphics/SVG/1.1/DTD/svg11.dtd">
<svg xmlns:xlink="http://www.w3.org/1999/xlink" width="1008pt" height="432pt" viewBox="0 0 1008 432" xmlns="http://www.w3.org/2000/svg" version="1.1">
 <metadata>
  <rdf:RDF xmlns:dc="http://purl.org/dc/elements/1.1/" xmlns:cc="http://creativecommons.org/ns#" xmlns:rdf="http://www.w3.org/1999/02/22-rdf-syntax-ns#">
   <cc:Work>
    <dc:type rdf:resource="http://purl.org/dc/dcmitype/StillImage"/>
    <dc:date>2025-05-04T10:31:42.266170</dc:date>
    <dc:format>image/svg+xml</dc:format>
    <dc:creator>
     <cc:Agent>
      <dc:title>Matplotlib v3.9.4, https://matplotlib.org/</dc:title>
     </cc:Agent>
    </dc:creator>
   </cc:Work>
  </rdf:RDF>
 </metadata>
 <defs>
  <style type="text/css">*{stroke-linejoin: round; stroke-linecap: butt}</style>
 </defs>
 <g id="figure_1">
  <g id="patch_1">
   <path d="M 0 432 
L 1008 432 
L 1008 0 
L 0 0 
z
" style="fill: #ffffff"/>
  </g>
  <g id="axes_1">
   <g id="patch_2">
    <path d="M 50.87 338.805433 
L 997.2 338.805433 
L 997.2 26.88 
L 50.87 26.88 
z
" style="fill: #ffffff"/>
   </g>
   <g id="patch_3">
    <path d="M 93.885 338.805433 
L 116.980302 338.805433 
L 116.980302 338.805433 
L 93.885 338.805433 
z
" clip-path="url(#pe3ae8a7700)" style="fill: #008080"/>
   </g>
   <g id="patch_4">
    <path d="M 122.754128 338.805433 
L 145.84943 338.805433 
L 145.84943 307.612889 
L 122.754128 307.612889 
z
" clip-path="url(#pe3ae8a7700)" style="fill: #008080"/>
   </g>
   <g id="patch_5">
    <path d="M 151.623255 338.805433 
L 174.718557 338.805433 
L 174.718557 332.566924 
L 151.623255 332.566924 
z
" clip-path="url(#pe3ae8a7700)" style="fill: #008080"/>
   </g>
   <g id="patch_6">
    <path d="M 180.492383 338.805433 
L 203.587685 338.805433 
L 203.587685 307.612889 
L 180.492383 307.612889 
z
" clip-path="url(#pe3ae8a7700)" style="fill: #008080"/>
   </g>
   <g id="patch_7">
    <path d="M 209.36151 338.805433 
L 232.456812 338.805433 
L 232.456812 316.970652 
L 209.36151 316.970652 
z
" clip-path="url(#pe3ae8a7700)" style="fill: #008080"/>
   </g>
   <g id="patch_8">
    <path d="M 238.230638 338.805433 
L 261.32594 338.805433 
L 261.32594 301.374381 
L 238.230638 301.374381 
z
" clip-path="url(#pe3ae8a7700)" style="fill: #008080"/>
   </g>
   <g id="patch_9">
    <path d="M 267.099765 338.805433 
L 290.195067 338.805433 
L 290.195067 301.374381 
L 267.099765 301.374381 
z
" clip-path="url(#pe3ae8a7700)" style="fill: #008080"/>
   </g>
   <g id="patch_10">
    <path d="M 295.968893 338.805433 
L 319.064195 338.805433 
L 319.064195 282.658855 
L 295.968893 282.658855 
z
" clip-path="url(#pe3ae8a7700)" style="fill: #008080"/>
   </g>
   <g id="patch_11">
    <path d="M 324.83802 338.805433 
L 347.933322 338.805433 
L 347.933322 260.824075 
L 324.83802 260.824075 
z
" clip-path="url(#pe3ae8a7700)" style="fill: #008080"/>
   </g>
   <g id="patch_12">
    <path d="M 353.707148 338.805433 
L 376.80245 338.805433 
L 376.80245 292.016618 
L 353.707148 292.016618 
z
" clip-path="url(#pe3ae8a7700)" style="fill: #008080"/>
   </g>
   <g id="patch_13">
    <path d="M 382.576275 338.805433 
L 405.671577 338.805433 
L 405.671577 276.420346 
L 382.576275 276.420346 
z
" clip-path="url(#pe3ae8a7700)" style="fill: #008080"/>
   </g>
   <g id="patch_14">
    <path d="M 411.445403 338.805433 
L 434.540705 338.805433 
L 434.540705 313.851398 
L 411.445403 313.851398 
z
" clip-path="url(#pe3ae8a7700)" style="fill: #008080"/>
   </g>
   <g id="patch_15">
    <path d="M 440.31453 338.805433 
L 463.409832 338.805433 
L 463.409832 245.227803 
L 440.31453 245.227803 
z
" clip-path="url(#pe3ae8a7700)" style="fill: #008080"/>
   </g>
   <g id="patch_16">
    <path d="M 469.183658 338.805433 
L 492.27896 338.805433 
L 492.27896 136.053901 
L 469.183658 136.053901 
z
" clip-path="url(#pe3ae8a7700)" style="fill: #008080"/>
   </g>
   <g id="patch_17">
    <path d="M 498.052785 338.805433 
L 521.148087 338.805433 
L 521.148087 104.861358 
L 498.052785 104.861358 
z
" clip-path="url(#pe3ae8a7700)" style="fill: #008080"/>
   </g>
   <g id="patch_18">
    <path d="M 526.921913 338.805433 
L 550.017215 338.805433 
L 550.017215 120.45763 
L 526.921913 120.45763 
z
" clip-path="url(#pe3ae8a7700)" style="fill: #008080"/>
   </g>
   <g id="patch_19">
    <path d="M 555.79104 338.805433 
L 578.886342 338.805433 
L 578.886342 51.834035 
L 555.79104 51.834035 
z
" clip-path="url(#pe3ae8a7700)" style="fill: #008080"/>
   </g>
   <g id="patch_20">
    <path d="M 584.660168 338.805433 
L 607.75547 338.805433 
L 607.75547 64.311052 
L 584.660168 64.311052 
z
" clip-path="url(#pe3ae8a7700)" style="fill: #008080"/>
   </g>
   <g id="patch_21">
    <path d="M 613.529295 338.805433 
L 636.624597 338.805433 
L 636.624597 58.072543 
L 613.529295 58.072543 
z
" clip-path="url(#pe3ae8a7700)" style="fill: #008080"/>
   </g>
   <g id="patch_22">
    <path d="M 642.398423 338.805433 
L 665.493725 338.805433 
L 665.493725 48.71478 
L 642.398423 48.71478 
z
" clip-path="url(#pe3ae8a7700)" style="fill: #008080"/>
   </g>
   <g id="patch_23">
    <path d="M 671.26755 338.805433 
L 694.362852 338.805433 
L 694.362852 61.191798 
L 671.26755 61.191798 
z
" clip-path="url(#pe3ae8a7700)" style="fill: #008080"/>
   </g>
   <g id="patch_24">
    <path d="M 700.136678 338.805433 
L 723.23198 338.805433 
L 723.23198 58.072543 
L 700.136678 58.072543 
z
" clip-path="url(#pe3ae8a7700)" style="fill: #008080"/>
   </g>
   <g id="patch_25">
    <path d="M 729.005805 338.805433 
L 752.101107 338.805433 
L 752.101107 64.311052 
L 729.005805 64.311052 
z
" clip-path="url(#pe3ae8a7700)" style="fill: #008080"/>
   </g>
   <g id="patch_26">
    <path d="M 757.874933 338.805433 
L 780.970235 338.805433 
L 780.970235 51.834035 
L 757.874933 51.834035 
z
" clip-path="url(#pe3ae8a7700)" style="fill: #008080"/>
   </g>
   <g id="patch_27">
    <path d="M 786.74406 338.805433 
L 809.839362 338.805433 
L 809.839362 61.191798 
L 786.74406 61.191798 
z
" clip-path="url(#pe3ae8a7700)" style="fill: #008080"/>
   </g>
   <g id="patch_28">
    <path d="M 815.613188 338.805433 
L 838.70849 338.805433 
L 838.70849 70.549561 
L 815.613188 70.549561 
z
" clip-path="url(#pe3ae8a7700)" style="fill: #008080"/>
   </g>
   <g id="patch_29">
    <path d="M 844.482315 338.805433 
L 867.577617 338.805433 
L 867.577617 54.953289 
L 844.482315 54.953289 
z
" clip-path="url(#pe3ae8a7700)" style="fill: #008080"/>
   </g>
   <g id="patch_30">
    <path d="M 873.351443 338.805433 
L 896.446745 338.805433 
L 896.446745 64.311052 
L 873.351443 64.311052 
z
" clip-path="url(#pe3ae8a7700)" style="fill: #008080"/>
   </g>
   <g id="patch_31">
    <path d="M 902.22057 338.805433 
L 925.315872 338.805433 
L 925.315872 73.668815 
L 902.22057 73.668815 
z
" clip-path="url(#pe3ae8a7700)" style="fill: #008080"/>
   </g>
   <g id="patch_32">
    <path d="M 931.089698 338.805433 
L 954.185 338.805433 
L 954.185 67.430306 
L 931.089698 67.430306 
z
" clip-path="url(#pe3ae8a7700)" style="fill: #008080"/>
   </g>
   <g id="matplotlib.axis_1">
    <g id="xtick_1">
     <g id="line2d_1">
      <defs>
       <path id="m7538efb19c" d="M 0 0 
L 0 3.5 
" style="stroke: #000000; stroke-width: 0.8"/>
      </defs>
      <g>
       <use xlink:href="#m7538efb19c" x="105.432651" y="338.805433" style="stroke: #000000; stroke-width: 0.8"/>
      </g>
     </g>
     <g id="text_1">
      <!-- haha -->
      <g transform="translate(91.165964 371.195747) rotate(-60) scale(0.1 -0.1)">
       <defs>
        <path id="DejaVuSans-68" d="M 3513 2113 
L 3513 0 
L 2938 0 
L 2938 2094 
Q 2938 2591 2744 2837 
Q 2550 3084 2163 3084 
Q 1697 3084 1428 2787 
Q 1159 2491 1159 1978 
L 1159 0 
L 581 0 
L 581 4863 
L 1159 4863 
L 1159 2956 
Q 1366 3272 1645 3428 
Q 1925 3584 2291 3584 
Q 2894 3584 3203 3211 
Q 3513 2838 3513 2113 
z
" transform="scale(0.015625)"/>
        <path id="DejaVuSans-61" d="M 2194 1759 
Q 1497 1759 1228 1600 
Q 959 1441 959 1056 
Q 959 750 1161 570 
Q 1363 391 1709 391 
Q 2188 391 2477 730 
Q 2766 1069 2766 1631 
L 2766 1759 
L 2194 1759 
z
M 3341 1997 
L 3341 0 
L 2766 0 
L 2766 531 
Q 2569 213 2275 61 
Q 1981 -91 1556 -91 
Q 1019 -91 701 211 
Q 384 513 384 1019 
Q 384 1609 779 1909 
Q 1175 2209 1959 2209 
L 2766 2209 
L 2766 2266 
Q 2766 2663 2505 2880 
Q 2244 3097 1772 3097 
Q 1472 3097 1187 3025 
Q 903 2953 641 2809 
L 641 3341 
Q 956 3463 1253 3523 
Q 1550 3584 1831 3584 
Q 2591 3584 2966 3190 
Q 3341 2797 3341 1997 
z
" transform="scale(0.015625)"/>
       </defs>
       <use xlink:href="#DejaVuSans-68"/>
       <use xlink:href="#DejaVuSans-61" x="63.378906"/>
       <use xlink:href="#DejaVuSans-68" x="124.658203"/>
       <use xlink:href="#DejaVuSans-61" x="188.037109"/>
      </g>
     </g>
    </g>
    <g id="xtick_2">
     <g id="line2d_2">
      <g>
       <use xlink:href="#m7538efb19c" x="134.301779" y="338.805433" style="stroke: #000000; stroke-width: 0.8"/>
      </g>
     </g>
     <g id="text_2">
      <!-- btest1 -->
      <g transform="translate(116.543685 377.24304) rotate(-60) scale(0.1 -0.1)">
       <defs>
        <path id="DejaVuSans-62" d="M 3116 1747 
Q 3116 2381 2855 2742 
Q 2594 3103 2138 3103 
Q 1681 3103 1420 2742 
Q 1159 2381 1159 1747 
Q 1159 1113 1420 752 
Q 1681 391 2138 391 
Q 2594 391 2855 752 
Q 3116 1113 3116 1747 
z
M 1159 2969 
Q 1341 3281 1617 3432 
Q 1894 3584 2278 3584 
Q 2916 3584 3314 3078 
Q 3713 2572 3713 1747 
Q 3713 922 3314 415 
Q 2916 -91 2278 -91 
Q 1894 -91 1617 61 
Q 1341 213 1159 525 
L 1159 0 
L 581 0 
L 581 4863 
L 1159 4863 
L 1159 2969 
z
" transform="scale(0.015625)"/>
        <path id="DejaVuSans-74" d="M 1172 4494 
L 1172 3500 
L 2356 3500 
L 2356 3053 
L 1172 3053 
L 1172 1153 
Q 1172 725 1289 603 
Q 1406 481 1766 481 
L 2356 481 
L 2356 0 
L 1766 0 
Q 1100 0 847 248 
Q 594 497 594 1153 
L 594 3053 
L 172 3053 
L 172 3500 
L 594 3500 
L 594 4494 
L 1172 4494 
z
" transform="scale(0.015625)"/>
        <path id="DejaVuSans-65" d="M 3597 1894 
L 3597 1613 
L 953 1613 
Q 991 1019 1311 708 
Q 1631 397 2203 397 
Q 2534 397 2845 478 
Q 3156 559 3463 722 
L 3463 178 
Q 3153 47 2828 -22 
Q 2503 -91 2169 -91 
Q 1331 -91 842 396 
Q 353 884 353 1716 
Q 353 2575 817 3079 
Q 1281 3584 2069 3584 
Q 2775 3584 3186 3129 
Q 3597 2675 3597 1894 
z
M 3022 2063 
Q 3016 2534 2758 2815 
Q 2500 3097 2075 3097 
Q 1594 3097 1305 2825 
Q 1016 2553 972 2059 
L 3022 2063 
z
" transform="scale(0.015625)"/>
        <path id="DejaVuSans-73" d="M 2834 3397 
L 2834 2853 
Q 2591 2978 2328 3040 
Q 2066 3103 1784 3103 
Q 1356 3103 1142 2972 
Q 928 2841 928 2578 
Q 928 2378 1081 2264 
Q 1234 2150 1697 2047 
L 1894 2003 
Q 2506 1872 2764 1633 
Q 3022 1394 3022 966 
Q 3022 478 2636 193 
Q 2250 -91 1575 -91 
Q 1294 -91 989 -36 
Q 684 19 347 128 
L 347 722 
Q 666 556 975 473 
Q 1284 391 1588 391 
Q 1994 391 2212 530 
Q 2431 669 2431 922 
Q 2431 1156 2273 1281 
Q 2116 1406 1581 1522 
L 1381 1569 
Q 847 1681 609 1914 
Q 372 2147 372 2553 
Q 372 3047 722 3315 
Q 1072 3584 1716 3584 
Q 2034 3584 2315 3537 
Q 2597 3491 2834 3397 
z
" transform="scale(0.015625)"/>
        <path id="DejaVuSans-31" d="M 794 531 
L 1825 531 
L 1825 4091 
L 703 3866 
L 703 4441 
L 1819 4666 
L 2450 4666 
L 2450 531 
L 3481 531 
L 3481 0 
L 794 0 
L 794 531 
z
" transform="scale(0.015625)"/>
       </defs>
       <use xlink:href="#DejaVuSans-62"/>
       <use xlink:href="#DejaVuSans-74" x="63.476562"/>
       <use xlink:href="#DejaVuSans-65" x="102.685547"/>
       <use xlink:href="#DejaVuSans-73" x="164.208984"/>
       <use xlink:href="#DejaVuSans-74" x="216.308594"/>
       <use xlink:href="#DejaVuSans-31" x="255.517578"/>
      </g>
     </g>
    </g>
    <g id="xtick_3">
     <g id="line2d_3">
      <g>
       <use xlink:href="#m7538efb19c" x="163.170906" y="338.805433" style="stroke: #000000; stroke-width: 0.8"/>
      </g>
     </g>
     <g id="text_3">
      <!-- btest2 -->
      <g transform="translate(145.412813 377.24304) rotate(-60) scale(0.1 -0.1)">
       <defs>
        <path id="DejaVuSans-32" d="M 1228 531 
L 3431 531 
L 3431 0 
L 469 0 
L 469 531 
Q 828 903 1448 1529 
Q 2069 2156 2228 2338 
Q 2531 2678 2651 2914 
Q 2772 3150 2772 3378 
Q 2772 3750 2511 3984 
Q 2250 4219 1831 4219 
Q 1534 4219 1204 4116 
Q 875 4013 500 3803 
L 500 4441 
Q 881 4594 1212 4672 
Q 1544 4750 1819 4750 
Q 2544 4750 2975 4387 
Q 3406 4025 3406 3419 
Q 3406 3131 3298 2873 
Q 3191 2616 2906 2266 
Q 2828 2175 2409 1742 
Q 1991 1309 1228 531 
z
" transform="scale(0.015625)"/>
       </defs>
       <use xlink:href="#DejaVuSans-62"/>
       <use xlink:href="#DejaVuSans-74" x="63.476562"/>
       <use xlink:href="#DejaVuSans-65" x="102.685547"/>
       <use xlink:href="#DejaVuSans-73" x="164.208984"/>
       <use xlink:href="#DejaVuSans-74" x="216.308594"/>
       <use xlink:href="#DejaVuSans-32" x="255.517578"/>
      </g>
     </g>
    </g>
    <g id="xtick_4">
     <g id="line2d_4">
      <g>
       <use xlink:href="#m7538efb19c" x="192.040034" y="338.805433" style="stroke: #000000; stroke-width: 0.8"/>
      </g>
     </g>
     <g id="text_4">
      <!-- copy_long -->
      <g transform="translate(164.764514 393.310518) rotate(-60) scale(0.1 -0.1)">
       <defs>
        <path id="DejaVuSans-63" d="M 3122 3366 
L 3122 2828 
Q 2878 2963 2633 3030 
Q 2388 3097 2138 3097 
Q 1578 3097 1268 2742 
Q 959 2388 959 1747 
Q 959 1106 1268 751 
Q 1578 397 2138 397 
Q 2388 397 2633 464 
Q 2878 531 3122 666 
L 3122 134 
Q 2881 22 2623 -34 
Q 2366 -91 2075 -91 
Q 1284 -91 818 406 
Q 353 903 353 1747 
Q 353 2603 823 3093 
Q 1294 3584 2113 3584 
Q 2378 3584 2631 3529 
Q 2884 3475 3122 3366 
z
" transform="scale(0.015625)"/>
        <path id="DejaVuSans-6f" d="M 1959 3097 
Q 1497 3097 1228 2736 
Q 959 2375 959 1747 
Q 959 1119 1226 758 
Q 1494 397 1959 397 
Q 2419 397 2687 759 
Q 2956 1122 2956 1747 
Q 2956 2369 2687 2733 
Q 2419 3097 1959 3097 
z
M 1959 3584 
Q 2709 3584 3137 3096 
Q 3566 2609 3566 1747 
Q 3566 888 3137 398 
Q 2709 -91 1959 -91 
Q 1206 -91 779 398 
Q 353 888 353 1747 
Q 353 2609 779 3096 
Q 1206 3584 1959 3584 
z
" transform="scale(0.015625)"/>
        <path id="DejaVuSans-70" d="M 1159 525 
L 1159 -1331 
L 581 -1331 
L 581 3500 
L 1159 3500 
L 1159 2969 
Q 1341 3281 1617 3432 
Q 1894 3584 2278 3584 
Q 2916 3584 3314 3078 
Q 3713 2572 3713 1747 
Q 3713 922 3314 415 
Q 2916 -91 2278 -91 
Q 1894 -91 1617 61 
Q 1341 213 1159 525 
z
M 3116 1747 
Q 3116 2381 2855 2742 
Q 2594 3103 2138 3103 
Q 1681 3103 1420 2742 
Q 1159 2381 1159 1747 
Q 1159 1113 1420 752 
Q 1681 391 2138 391 
Q 2594 391 2855 752 
Q 3116 1113 3116 1747 
z
" transform="scale(0.015625)"/>
        <path id="DejaVuSans-79" d="M 2059 -325 
Q 1816 -950 1584 -1140 
Q 1353 -1331 966 -1331 
L 506 -1331 
L 506 -850 
L 844 -850 
Q 1081 -850 1212 -737 
Q 1344 -625 1503 -206 
L 1606 56 
L 191 3500 
L 800 3500 
L 1894 763 
L 2988 3500 
L 3597 3500 
L 2059 -325 
z
" transform="scale(0.015625)"/>
        <path id="DejaVuSans-5f" d="M 3263 -1063 
L 3263 -1509 
L -63 -1509 
L -63 -1063 
L 3263 -1063 
z
" transform="scale(0.015625)"/>
        <path id="DejaVuSans-6c" d="M 603 4863 
L 1178 4863 
L 1178 0 
L 603 0 
L 603 4863 
z
" transform="scale(0.015625)"/>
        <path id="DejaVuSans-6e" d="M 3513 2113 
L 3513 0 
L 2938 0 
L 2938 2094 
Q 2938 2591 2744 2837 
Q 2550 3084 2163 3084 
Q 1697 3084 1428 2787 
Q 1159 2491 1159 1978 
L 1159 0 
L 581 0 
L 581 3500 
L 1159 3500 
L 1159 2956 
Q 1366 3272 1645 3428 
Q 1925 3584 2291 3584 
Q 2894 3584 3203 3211 
Q 3513 2838 3513 2113 
z
" transform="scale(0.015625)"/>
        <path id="DejaVuSans-67" d="M 2906 1791 
Q 2906 2416 2648 2759 
Q 2391 3103 1925 3103 
Q 1463 3103 1205 2759 
Q 947 2416 947 1791 
Q 947 1169 1205 825 
Q 1463 481 1925 481 
Q 2391 481 2648 825 
Q 2906 1169 2906 1791 
z
M 3481 434 
Q 3481 -459 3084 -895 
Q 2688 -1331 1869 -1331 
Q 1566 -1331 1297 -1286 
Q 1028 -1241 775 -1147 
L 775 -588 
Q 1028 -725 1275 -790 
Q 1522 -856 1778 -856 
Q 2344 -856 2625 -561 
Q 2906 -266 2906 331 
L 2906 616 
Q 2728 306 2450 153 
Q 2172 0 1784 0 
Q 1141 0 747 490 
Q 353 981 353 1791 
Q 353 2603 747 3093 
Q 1141 3584 1784 3584 
Q 2172 3584 2450 3431 
Q 2728 3278 2906 2969 
L 2906 3500 
L 3481 3500 
L 3481 434 
z
" transform="scale(0.015625)"/>
       </defs>
       <use xlink:href="#DejaVuSans-63"/>
       <use xlink:href="#DejaVuSans-6f" x="54.980469"/>
       <use xlink:href="#DejaVuSans-70" x="116.162109"/>
       <use xlink:href="#DejaVuSans-79" x="179.638672"/>
       <use xlink:href="#DejaVuSans-5f" x="238.818359"/>
       <use xlink:href="#DejaVuSans-6c" x="288.818359"/>
       <use xlink:href="#DejaVuSans-6f" x="316.601562"/>
       <use xlink:href="#DejaVuSans-6e" x="377.783203"/>
       <use xlink:href="#DejaVuSans-67" x="441.162109"/>
      </g>
     </g>
    </g>
    <g id="xtick_5">
     <g id="line2d_5">
      <g>
       <use xlink:href="#m7538efb19c" x="220.909161" y="338.805433" style="stroke: #000000; stroke-width: 0.8"/>
      </g>
     </g>
     <g id="text_5">
      <!-- copy -->
      <g transform="translate(207.165911 370.289127) rotate(-60) scale(0.1 -0.1)">
       <use xlink:href="#DejaVuSans-63"/>
       <use xlink:href="#DejaVuSans-6f" x="54.980469"/>
       <use xlink:href="#DejaVuSans-70" x="116.162109"/>
       <use xlink:href="#DejaVuSans-79" x="179.638672"/>
      </g>
     </g>
    </g>
    <g id="xtick_6">
     <g id="line2d_6">
      <g>
       <use xlink:href="#m7538efb19c" x="249.778289" y="338.805433" style="stroke: #000000; stroke-width: 0.8"/>
      </g>
     </g>
     <g id="text_6">
      <!-- evens_long -->
      <g transform="translate(219.559019 398.409242) rotate(-60) scale(0.1 -0.1)">
       <defs>
        <path id="DejaVuSans-76" d="M 191 3500 
L 800 3500 
L 1894 563 
L 2988 3500 
L 3597 3500 
L 2284 0 
L 1503 0 
L 191 3500 
z
" transform="scale(0.015625)"/>
       </defs>
       <use xlink:href="#DejaVuSans-65"/>
       <use xlink:href="#DejaVuSans-76" x="61.523438"/>
       <use xlink:href="#DejaVuSans-65" x="120.703125"/>
       <use xlink:href="#DejaVuSans-6e" x="182.226562"/>
       <use xlink:href="#DejaVuSans-73" x="245.605469"/>
       <use xlink:href="#DejaVuSans-5f" x="297.705078"/>
       <use xlink:href="#DejaVuSans-6c" x="347.705078"/>
       <use xlink:href="#DejaVuSans-6f" x="375.488281"/>
       <use xlink:href="#DejaVuSans-6e" x="436.669922"/>
       <use xlink:href="#DejaVuSans-67" x="500.048828"/>
      </g>
     </g>
    </g>
    <g id="xtick_7">
     <g id="line2d_7">
      <g>
       <use xlink:href="#m7538efb19c" x="278.647416" y="338.805433" style="stroke: #000000; stroke-width: 0.8"/>
      </g>
     </g>
     <g id="text_7">
      <!-- evens -->
      <g transform="translate(261.960416 375.387852) rotate(-60) scale(0.1 -0.1)">
       <use xlink:href="#DejaVuSans-65"/>
       <use xlink:href="#DejaVuSans-76" x="61.523438"/>
       <use xlink:href="#DejaVuSans-65" x="120.703125"/>
       <use xlink:href="#DejaVuSans-6e" x="182.226562"/>
       <use xlink:href="#DejaVuSans-73" x="245.605469"/>
      </g>
     </g>
    </g>
    <g id="xtick_8">
     <g id="line2d_8">
      <g>
       <use xlink:href="#m7538efb19c" x="307.516544" y="338.805433" style="stroke: #000000; stroke-width: 0.8"/>
      </g>
     </g>
     <g id="text_8">
      <!-- fib_long -->
      <g transform="translate(285.859774 383.578557) rotate(-60) scale(0.1 -0.1)">
       <defs>
        <path id="DejaVuSans-66" d="M 2375 4863 
L 2375 4384 
L 1825 4384 
Q 1516 4384 1395 4259 
Q 1275 4134 1275 3809 
L 1275 3500 
L 2222 3500 
L 2222 3053 
L 1275 3053 
L 1275 0 
L 697 0 
L 697 3053 
L 147 3053 
L 147 3500 
L 697 3500 
L 697 3744 
Q 697 4328 969 4595 
Q 1241 4863 1831 4863 
L 2375 4863 
z
" transform="scale(0.015625)"/>
        <path id="DejaVuSans-69" d="M 603 3500 
L 1178 3500 
L 1178 0 
L 603 0 
L 603 3500 
z
M 603 4863 
L 1178 4863 
L 1178 4134 
L 603 4134 
L 603 4863 
z
" transform="scale(0.015625)"/>
       </defs>
       <use xlink:href="#DejaVuSans-66"/>
       <use xlink:href="#DejaVuSans-69" x="35.205078"/>
       <use xlink:href="#DejaVuSans-62" x="62.988281"/>
       <use xlink:href="#DejaVuSans-5f" x="126.464844"/>
       <use xlink:href="#DejaVuSans-6c" x="176.464844"/>
       <use xlink:href="#DejaVuSans-6f" x="204.248047"/>
       <use xlink:href="#DejaVuSans-6e" x="265.429688"/>
       <use xlink:href="#DejaVuSans-67" x="328.808594"/>
      </g>
     </g>
    </g>
    <g id="xtick_9">
     <g id="line2d_9">
      <g>
       <use xlink:href="#m7538efb19c" x="336.385671" y="338.805433" style="stroke: #000000; stroke-width: 0.8"/>
      </g>
     </g>
     <g id="text_9">
      <!-- fib_rec -->
      <g transform="translate(317.751558 378.343163) rotate(-60) scale(0.1 -0.1)">
       <defs>
        <path id="DejaVuSans-72" d="M 2631 2963 
Q 2534 3019 2420 3045 
Q 2306 3072 2169 3072 
Q 1681 3072 1420 2755 
Q 1159 2438 1159 1844 
L 1159 0 
L 581 0 
L 581 3500 
L 1159 3500 
L 1159 2956 
Q 1341 3275 1631 3429 
Q 1922 3584 2338 3584 
Q 2397 3584 2469 3576 
Q 2541 3569 2628 3553 
L 2631 2963 
z
" transform="scale(0.015625)"/>
       </defs>
       <use xlink:href="#DejaVuSans-66"/>
       <use xlink:href="#DejaVuSans-69" x="35.205078"/>
       <use xlink:href="#DejaVuSans-62" x="62.988281"/>
       <use xlink:href="#DejaVuSans-5f" x="126.464844"/>
       <use xlink:href="#DejaVuSans-72" x="176.464844"/>
       <use xlink:href="#DejaVuSans-65" x="215.328125"/>
       <use xlink:href="#DejaVuSans-63" x="276.851562"/>
      </g>
     </g>
    </g>
    <g id="xtick_10">
     <g id="line2d_10">
      <g>
       <use xlink:href="#m7538efb19c" x="365.254799" y="338.805433" style="stroke: #000000; stroke-width: 0.8"/>
      </g>
     </g>
     <g id="text_10">
      <!-- fib -->
      <g transform="translate(357.130299 360.557166) rotate(-60) scale(0.1 -0.1)">
       <use xlink:href="#DejaVuSans-66"/>
       <use xlink:href="#DejaVuSans-69" x="35.205078"/>
       <use xlink:href="#DejaVuSans-62" x="62.988281"/>
      </g>
     </g>
    </g>
    <g id="xtick_11">
     <g id="line2d_11">
      <g>
       <use xlink:href="#m7538efb19c" x="394.123926" y="338.805433" style="stroke: #000000; stroke-width: 0.8"/>
      </g>
     </g>
     <g id="text_11">
      <!-- insertion -->
      <g transform="translate(370.450989 387.48785) rotate(-60) scale(0.1 -0.1)">
       <use xlink:href="#DejaVuSans-69"/>
       <use xlink:href="#DejaVuSans-6e" x="27.783203"/>
       <use xlink:href="#DejaVuSans-73" x="91.162109"/>
       <use xlink:href="#DejaVuSans-65" x="143.261719"/>
       <use xlink:href="#DejaVuSans-72" x="204.785156"/>
       <use xlink:href="#DejaVuSans-74" x="245.898438"/>
       <use xlink:href="#DejaVuSans-69" x="285.107422"/>
       <use xlink:href="#DejaVuSans-6f" x="312.890625"/>
       <use xlink:href="#DejaVuSans-6e" x="374.072266"/>
      </g>
     </g>
    </g>
    <g id="xtick_12">
     <g id="line2d_12">
      <g>
       <use xlink:href="#m7538efb19c" x="422.993054" y="338.805433" style="stroke: #000000; stroke-width: 0.8"/>
      </g>
     </g>
     <g id="text_12">
      <!-- mult -->
      <g transform="translate(409.80371 369.329733) rotate(-60) scale(0.1 -0.1)">
       <defs>
        <path id="DejaVuSans-6d" d="M 3328 2828 
Q 3544 3216 3844 3400 
Q 4144 3584 4550 3584 
Q 5097 3584 5394 3201 
Q 5691 2819 5691 2113 
L 5691 0 
L 5113 0 
L 5113 2094 
Q 5113 2597 4934 2840 
Q 4756 3084 4391 3084 
Q 3944 3084 3684 2787 
Q 3425 2491 3425 1978 
L 3425 0 
L 2847 0 
L 2847 2094 
Q 2847 2600 2669 2842 
Q 2491 3084 2119 3084 
Q 1678 3084 1418 2786 
Q 1159 2488 1159 1978 
L 1159 0 
L 581 0 
L 581 3500 
L 1159 3500 
L 1159 2956 
Q 1356 3278 1631 3431 
Q 1906 3584 2284 3584 
Q 2666 3584 2933 3390 
Q 3200 3197 3328 2828 
z
" transform="scale(0.015625)"/>
        <path id="DejaVuSans-75" d="M 544 1381 
L 544 3500 
L 1119 3500 
L 1119 1403 
Q 1119 906 1312 657 
Q 1506 409 1894 409 
Q 2359 409 2629 706 
Q 2900 1003 2900 1516 
L 2900 3500 
L 3475 3500 
L 3475 0 
L 2900 0 
L 2900 538 
Q 2691 219 2414 64 
Q 2138 -91 1772 -91 
Q 1169 -91 856 284 
Q 544 659 544 1381 
z
M 1991 3584 
L 1991 3584 
z
" transform="scale(0.015625)"/>
       </defs>
       <use xlink:href="#DejaVuSans-6d"/>
       <use xlink:href="#DejaVuSans-75" x="97.412109"/>
       <use xlink:href="#DejaVuSans-6c" x="160.791016"/>
       <use xlink:href="#DejaVuSans-74" x="188.574219"/>
      </g>
     </g>
    </g>
    <g id="xtick_13">
     <g id="line2d_13">
      <g>
       <use xlink:href="#m7538efb19c" x="451.862181" y="338.805433" style="stroke: #000000; stroke-width: 0.8"/>
      </g>
     </g>
     <g id="text_13">
      <!-- fc_forward -->
      <g transform="translate(423.640568 394.9492) rotate(-60) scale(0.1 -0.1)">
       <defs>
        <path id="DejaVuSans-77" d="M 269 3500 
L 844 3500 
L 1563 769 
L 2278 3500 
L 2956 3500 
L 3675 769 
L 4391 3500 
L 4966 3500 
L 4050 0 
L 3372 0 
L 2619 2869 
L 1863 0 
L 1184 0 
L 269 3500 
z
" transform="scale(0.015625)"/>
        <path id="DejaVuSans-64" d="M 2906 2969 
L 2906 4863 
L 3481 4863 
L 3481 0 
L 2906 0 
L 2906 525 
Q 2725 213 2448 61 
Q 2172 -91 1784 -91 
Q 1150 -91 751 415 
Q 353 922 353 1747 
Q 353 2572 751 3078 
Q 1150 3584 1784 3584 
Q 2172 3584 2448 3432 
Q 2725 3281 2906 2969 
z
M 947 1747 
Q 947 1113 1208 752 
Q 1469 391 1925 391 
Q 2381 391 2643 752 
Q 2906 1113 2906 1747 
Q 2906 2381 2643 2742 
Q 2381 3103 1925 3103 
Q 1469 3103 1208 2742 
Q 947 2381 947 1747 
z
" transform="scale(0.015625)"/>
       </defs>
       <use xlink:href="#DejaVuSans-66"/>
       <use xlink:href="#DejaVuSans-63" x="35.205078"/>
       <use xlink:href="#DejaVuSans-5f" x="90.185547"/>
       <use xlink:href="#DejaVuSans-66" x="140.185547"/>
       <use xlink:href="#DejaVuSans-6f" x="175.390625"/>
       <use xlink:href="#DejaVuSans-72" x="236.572266"/>
       <use xlink:href="#DejaVuSans-77" x="277.685547"/>
       <use xlink:href="#DejaVuSans-61" x="359.472656"/>
       <use xlink:href="#DejaVuSans-72" x="420.751953"/>
       <use xlink:href="#DejaVuSans-64" x="460.115234"/>
      </g>
     </g>
    </g>
    <g id="xtick_14">
     <g id="line2d_14">
      <g>
       <use xlink:href="#m7538efb19c" x="480.731309" y="338.805433" style="stroke: #000000; stroke-width: 0.8"/>
      </g>
     </g>
     <g id="text_14">
      <!-- parallel -->
      <g transform="translate(460.328684 381.823503) rotate(-60) scale(0.1 -0.1)">
       <use xlink:href="#DejaVuSans-70"/>
       <use xlink:href="#DejaVuSans-61" x="63.476562"/>
       <use xlink:href="#DejaVuSans-72" x="124.755859"/>
       <use xlink:href="#DejaVuSans-61" x="165.869141"/>
       <use xlink:href="#DejaVuSans-6c" x="227.148438"/>
       <use xlink:href="#DejaVuSans-6c" x="254.931641"/>
       <use xlink:href="#DejaVuSans-65" x="282.714844"/>
       <use xlink:href="#DejaVuSans-6c" x="344.238281"/>
      </g>
     </g>
    </g>
    <g id="xtick_15">
     <g id="line2d_15">
      <g>
       <use xlink:href="#m7538efb19c" x="509.600436" y="338.805433" style="stroke: #000000; stroke-width: 0.8"/>
      </g>
     </g>
     <g id="text_15">
      <!-- saxpy -->
      <g transform="translate(493.037655 375.172698) rotate(-60) scale(0.1 -0.1)">
       <defs>
        <path id="DejaVuSans-78" d="M 3513 3500 
L 2247 1797 
L 3578 0 
L 2900 0 
L 1881 1375 
L 863 0 
L 184 0 
L 1544 1831 
L 300 3500 
L 978 3500 
L 1906 2253 
L 2834 3500 
L 3513 3500 
z
" transform="scale(0.015625)"/>
       </defs>
       <use xlink:href="#DejaVuSans-73"/>
       <use xlink:href="#DejaVuSans-61" x="52.099609"/>
       <use xlink:href="#DejaVuSans-78" x="113.378906"/>
       <use xlink:href="#DejaVuSans-70" x="172.558594"/>
       <use xlink:href="#DejaVuSans-79" x="236.035156"/>
      </g>
     </g>
    </g>
    <g id="xtick_16">
     <g id="line2d_16">
      <g>
       <use xlink:href="#m7538efb19c" x="538.469564" y="338.805433" style="stroke: #000000; stroke-width: 0.8"/>
      </g>
     </g>
     <g id="text_16">
      <!-- sampler -->
      <g transform="translate(516.434127 384.651617) rotate(-60) scale(0.1 -0.1)">
       <use xlink:href="#DejaVuSans-73"/>
       <use xlink:href="#DejaVuSans-61" x="52.099609"/>
       <use xlink:href="#DejaVuSans-6d" x="113.378906"/>
       <use xlink:href="#DejaVuSans-70" x="210.791016"/>
       <use xlink:href="#DejaVuSans-6c" x="274.267578"/>
       <use xlink:href="#DejaVuSans-65" x="302.050781"/>
       <use xlink:href="#DejaVuSans-72" x="363.574219"/>
      </g>
     </g>
    </g>
    <g id="xtick_17">
     <g id="line2d_17">
      <g>
       <use xlink:href="#m7538efb19c" x="567.338691" y="338.805433" style="stroke: #000000; stroke-width: 0.8"/>
      </g>
     </g>
     <g id="text_17">
      <!-- alexnet -->
      <g transform="translate(546.930598 381.832975) rotate(-60) scale(0.1 -0.1)">
       <use xlink:href="#DejaVuSans-61"/>
       <use xlink:href="#DejaVuSans-6c" x="61.279297"/>
       <use xlink:href="#DejaVuSans-65" x="89.0625"/>
       <use xlink:href="#DejaVuSans-78" x="148.835938"/>
       <use xlink:href="#DejaVuSans-6e" x="208.015625"/>
       <use xlink:href="#DejaVuSans-65" x="271.394531"/>
       <use xlink:href="#DejaVuSans-74" x="332.917969"/>
      </g>
     </g>
    </g>
    <g id="xtick_18">
     <g id="line2d_18">
      <g>
       <use xlink:href="#m7538efb19c" x="596.207819" y="338.805433" style="stroke: #000000; stroke-width: 0.8"/>
      </g>
     </g>
     <g id="text_18">
      <!-- backtrack -->
      <g transform="translate(569.799725 392.22528) rotate(-60) scale(0.1 -0.1)">
       <defs>
        <path id="DejaVuSans-6b" d="M 581 4863 
L 1159 4863 
L 1159 1991 
L 2875 3500 
L 3609 3500 
L 1753 1863 
L 3688 0 
L 2938 0 
L 1159 1709 
L 1159 0 
L 581 0 
L 581 4863 
z
" transform="scale(0.015625)"/>
       </defs>
       <use xlink:href="#DejaVuSans-62"/>
       <use xlink:href="#DejaVuSans-61" x="63.476562"/>
       <use xlink:href="#DejaVuSans-63" x="124.755859"/>
       <use xlink:href="#DejaVuSans-6b" x="179.736328"/>
       <use xlink:href="#DejaVuSans-74" x="237.646484"/>
       <use xlink:href="#DejaVuSans-72" x="276.855469"/>
       <use xlink:href="#DejaVuSans-61" x="317.96875"/>
       <use xlink:href="#DejaVuSans-63" x="379.248047"/>
       <use xlink:href="#DejaVuSans-6b" x="434.228516"/>
      </g>
     </g>
    </g>
    <g id="xtick_19">
     <g id="line2d_19">
      <g>
       <use xlink:href="#m7538efb19c" x="625.076946" y="338.805433" style="stroke: #000000; stroke-width: 0.8"/>
      </g>
     </g>
     <g id="text_19">
      <!-- basic_malloc -->
      <g transform="translate(591.032677 405.034337) rotate(-60) scale(0.1 -0.1)">
       <use xlink:href="#DejaVuSans-62"/>
       <use xlink:href="#DejaVuSans-61" x="63.476562"/>
       <use xlink:href="#DejaVuSans-73" x="124.755859"/>
       <use xlink:href="#DejaVuSans-69" x="176.855469"/>
       <use xlink:href="#DejaVuSans-63" x="204.638672"/>
       <use xlink:href="#DejaVuSans-5f" x="259.619141"/>
       <use xlink:href="#DejaVuSans-6d" x="309.619141"/>
       <use xlink:href="#DejaVuSans-61" x="407.03125"/>
       <use xlink:href="#DejaVuSans-6c" x="468.310547"/>
       <use xlink:href="#DejaVuSans-6c" x="496.09375"/>
       <use xlink:href="#DejaVuSans-6f" x="523.876953"/>
       <use xlink:href="#DejaVuSans-63" x="585.058594"/>
      </g>
     </g>
    </g>
    <g id="xtick_20">
     <g id="line2d_20">
      <g>
       <use xlink:href="#m7538efb19c" x="653.946074" y="338.805433" style="stroke: #000000; stroke-width: 0.8"/>
      </g>
     </g>
     <g id="text_20">
      <!-- bfs -->
      <g transform="translate(644.605949 362.662691) rotate(-60) scale(0.1 -0.1)">
       <use xlink:href="#DejaVuSans-62"/>
       <use xlink:href="#DejaVuSans-66" x="63.476562"/>
       <use xlink:href="#DejaVuSans-73" x="98.681641"/>
      </g>
     </g>
    </g>
    <g id="xtick_21">
     <g id="line2d_21">
      <g>
       <use xlink:href="#m7538efb19c" x="682.815201" y="338.805433" style="stroke: #000000; stroke-width: 0.8"/>
      </g>
     </g>
     <g id="text_21">
      <!-- dft -->
      <g transform="translate(674.207108 361.394775) rotate(-60) scale(0.1 -0.1)">
       <use xlink:href="#DejaVuSans-64"/>
       <use xlink:href="#DejaVuSans-66" x="63.476562"/>
       <use xlink:href="#DejaVuSans-74" x="96.931641"/>
      </g>
     </g>
    </g>
    <g id="xtick_22">
     <g id="line2d_22">
      <g>
       <use xlink:href="#m7538efb19c" x="711.684329" y="338.805433" style="stroke: #000000; stroke-width: 0.8"/>
      </g>
     </g>
     <g id="text_22">
      <!-- graph -->
      <g transform="translate(695.246548 374.956192) rotate(-60) scale(0.1 -0.1)">
       <use xlink:href="#DejaVuSans-67"/>
       <use xlink:href="#DejaVuSans-72" x="63.476562"/>
       <use xlink:href="#DejaVuSans-61" x="104.589844"/>
       <use xlink:href="#DejaVuSans-70" x="165.869141"/>
       <use xlink:href="#DejaVuSans-68" x="229.345703"/>
      </g>
     </g>
    </g>
    <g id="xtick_23">
     <g id="line2d_23">
      <g>
       <use xlink:href="#m7538efb19c" x="740.553456" y="338.805433" style="stroke: #000000; stroke-width: 0.8"/>
      </g>
     </g>
     <g id="text_23">
      <!-- insertionsort -->
      <g transform="translate(707.200832 404.253561) rotate(-60) scale(0.1 -0.1)">
       <use xlink:href="#DejaVuSans-69"/>
       <use xlink:href="#DejaVuSans-6e" x="27.783203"/>
       <use xlink:href="#DejaVuSans-73" x="91.162109"/>
       <use xlink:href="#DejaVuSans-65" x="143.261719"/>
       <use xlink:href="#DejaVuSans-72" x="204.785156"/>
       <use xlink:href="#DejaVuSans-74" x="245.898438"/>
       <use xlink:href="#DejaVuSans-69" x="285.107422"/>
       <use xlink:href="#DejaVuSans-6f" x="312.890625"/>
       <use xlink:href="#DejaVuSans-6e" x="374.072266"/>
       <use xlink:href="#DejaVuSans-73" x="437.451172"/>
       <use xlink:href="#DejaVuSans-6f" x="489.550781"/>
       <use xlink:href="#DejaVuSans-72" x="550.732422"/>
       <use xlink:href="#DejaVuSans-74" x="591.845703"/>
      </g>
     </g>
    </g>
    <g id="xtick_24">
     <g id="line2d_24">
      <g>
       <use xlink:href="#m7538efb19c" x="769.422584" y="338.805433" style="stroke: #000000; stroke-width: 0.8"/>
      </g>
     </g>
     <g id="text_24">
      <!-- matrix_mult_rec -->
      <g transform="translate(726.92519 419.675579) rotate(-60) scale(0.1 -0.1)">
       <use xlink:href="#DejaVuSans-6d"/>
       <use xlink:href="#DejaVuSans-61" x="97.412109"/>
       <use xlink:href="#DejaVuSans-74" x="158.691406"/>
       <use xlink:href="#DejaVuSans-72" x="197.900391"/>
       <use xlink:href="#DejaVuSans-69" x="239.013672"/>
       <use xlink:href="#DejaVuSans-78" x="266.796875"/>
       <use xlink:href="#DejaVuSans-5f" x="325.976562"/>
       <use xlink:href="#DejaVuSans-6d" x="375.976562"/>
       <use xlink:href="#DejaVuSans-75" x="473.388672"/>
       <use xlink:href="#DejaVuSans-6c" x="536.767578"/>
       <use xlink:href="#DejaVuSans-74" x="564.550781"/>
       <use xlink:href="#DejaVuSans-5f" x="603.759766"/>
       <use xlink:href="#DejaVuSans-72" x="653.759766"/>
       <use xlink:href="#DejaVuSans-65" x="692.623047"/>
       <use xlink:href="#DejaVuSans-63" x="754.146484"/>
      </g>
     </g>
    </g>
    <g id="xtick_25">
     <g id="line2d_25">
      <g>
       <use xlink:href="#m7538efb19c" x="798.291711" y="338.805433" style="stroke: #000000; stroke-width: 0.8"/>
      </g>
     </g>
     <g id="text_25">
      <!-- mergesort -->
      <g transform="translate(770.645337 394.370046) rotate(-60) scale(0.1 -0.1)">
       <use xlink:href="#DejaVuSans-6d"/>
       <use xlink:href="#DejaVuSans-65" x="97.412109"/>
       <use xlink:href="#DejaVuSans-72" x="158.935547"/>
       <use xlink:href="#DejaVuSans-67" x="198.298828"/>
       <use xlink:href="#DejaVuSans-65" x="261.775391"/>
       <use xlink:href="#DejaVuSans-73" x="323.298828"/>
       <use xlink:href="#DejaVuSans-6f" x="375.398438"/>
       <use xlink:href="#DejaVuSans-72" x="436.580078"/>
       <use xlink:href="#DejaVuSans-74" x="477.693359"/>
      </g>
     </g>
    </g>
    <g id="xtick_26">
     <g id="line2d_26">
      <g>
       <use xlink:href="#m7538efb19c" x="827.160839" y="338.805433" style="stroke: #000000; stroke-width: 0.8"/>
      </g>
     </g>
     <g id="text_26">
      <!-- omegalul -->
      <g transform="translate(802.16837 389.773345) rotate(-60) scale(0.1 -0.1)">
       <use xlink:href="#DejaVuSans-6f"/>
       <use xlink:href="#DejaVuSans-6d" x="61.181641"/>
       <use xlink:href="#DejaVuSans-65" x="158.59375"/>
       <use xlink:href="#DejaVuSans-67" x="220.117188"/>
       <use xlink:href="#DejaVuSans-61" x="283.59375"/>
       <use xlink:href="#DejaVuSans-6c" x="344.873047"/>
       <use xlink:href="#DejaVuSans-75" x="372.65625"/>
       <use xlink:href="#DejaVuSans-6c" x="436.035156"/>
      </g>
     </g>
    </g>
    <g id="xtick_27">
     <g id="line2d_27">
      <g>
       <use xlink:href="#m7538efb19c" x="856.029966" y="338.805433" style="stroke: #000000; stroke-width: 0.8"/>
      </g>
     </g>
     <g id="text_27">
      <!-- outer_product -->
      <g transform="translate(818.938822 410.311679) rotate(-60) scale(0.1 -0.1)">
       <use xlink:href="#DejaVuSans-6f"/>
       <use xlink:href="#DejaVuSans-75" x="61.181641"/>
       <use xlink:href="#DejaVuSans-74" x="124.560547"/>
       <use xlink:href="#DejaVuSans-65" x="163.769531"/>
       <use xlink:href="#DejaVuSans-72" x="225.292969"/>
       <use xlink:href="#DejaVuSans-5f" x="266.40625"/>
       <use xlink:href="#DejaVuSans-70" x="316.40625"/>
       <use xlink:href="#DejaVuSans-72" x="379.882812"/>
       <use xlink:href="#DejaVuSans-6f" x="418.746094"/>
       <use xlink:href="#DejaVuSans-64" x="479.927734"/>
       <use xlink:href="#DejaVuSans-75" x="543.404297"/>
       <use xlink:href="#DejaVuSans-63" x="606.783203"/>
       <use xlink:href="#DejaVuSans-74" x="661.763672"/>
      </g>
     </g>
    </g>
    <g id="xtick_28">
     <g id="line2d_28">
      <g>
       <use xlink:href="#m7538efb19c" x="884.899094" y="338.805433" style="stroke: #000000; stroke-width: 0.8"/>
      </g>
     </g>
     <g id="text_28">
      <!-- priority_queue -->
      <g transform="translate(846.650137 412.317069) rotate(-60) scale(0.1 -0.1)">
       <defs>
        <path id="DejaVuSans-71" d="M 947 1747 
Q 947 1113 1208 752 
Q 1469 391 1925 391 
Q 2381 391 2643 752 
Q 2906 1113 2906 1747 
Q 2906 2381 2643 2742 
Q 2381 3103 1925 3103 
Q 1469 3103 1208 2742 
Q 947 2381 947 1747 
z
M 2906 525 
Q 2725 213 2448 61 
Q 2172 -91 1784 -91 
Q 1150 -91 751 415 
Q 353 922 353 1747 
Q 353 2572 751 3078 
Q 1150 3584 1784 3584 
Q 2172 3584 2448 3432 
Q 2725 3281 2906 2969 
L 2906 3500 
L 3481 3500 
L 3481 -1331 
L 2906 -1331 
L 2906 525 
z
" transform="scale(0.015625)"/>
       </defs>
       <use xlink:href="#DejaVuSans-70"/>
       <use xlink:href="#DejaVuSans-72" x="63.476562"/>
       <use xlink:href="#DejaVuSans-69" x="104.589844"/>
       <use xlink:href="#DejaVuSans-6f" x="132.373047"/>
       <use xlink:href="#DejaVuSans-72" x="193.554688"/>
       <use xlink:href="#DejaVuSans-69" x="234.667969"/>
       <use xlink:href="#DejaVuSans-74" x="262.451172"/>
       <use xlink:href="#DejaVuSans-79" x="301.660156"/>
       <use xlink:href="#DejaVuSans-5f" x="360.839844"/>
       <use xlink:href="#DejaVuSans-71" x="410.839844"/>
       <use xlink:href="#DejaVuSans-75" x="474.316406"/>
       <use xlink:href="#DejaVuSans-65" x="537.695312"/>
       <use xlink:href="#DejaVuSans-75" x="599.21875"/>
       <use xlink:href="#DejaVuSans-65" x="662.597656"/>
      </g>
     </g>
    </g>
    <g id="xtick_29">
     <g id="line2d_29">
      <g>
       <use xlink:href="#m7538efb19c" x="913.768221" y="338.805433" style="stroke: #000000; stroke-width: 0.8"/>
      </g>
     </g>
     <g id="text_29">
      <!-- quicksort -->
      <g transform="translate(888.910909 389.539248) rotate(-60) scale(0.1 -0.1)">
       <use xlink:href="#DejaVuSans-71"/>
       <use xlink:href="#DejaVuSans-75" x="63.476562"/>
       <use xlink:href="#DejaVuSans-69" x="126.855469"/>
       <use xlink:href="#DejaVuSans-63" x="154.638672"/>
       <use xlink:href="#DejaVuSans-6b" x="209.619141"/>
       <use xlink:href="#DejaVuSans-73" x="267.529297"/>
       <use xlink:href="#DejaVuSans-6f" x="319.628906"/>
       <use xlink:href="#DejaVuSans-72" x="380.810547"/>
       <use xlink:href="#DejaVuSans-74" x="421.923828"/>
      </g>
     </g>
    </g>
    <g id="xtick_30">
     <g id="line2d_30">
      <g>
       <use xlink:href="#m7538efb19c" x="942.637349" y="338.805433" style="stroke: #000000; stroke-width: 0.8"/>
      </g>
     </g>
     <g id="text_30">
      <!-- sort_search -->
      <g transform="translate(911.809486 399.463358) rotate(-60) scale(0.1 -0.1)">
       <use xlink:href="#DejaVuSans-73"/>
       <use xlink:href="#DejaVuSans-6f" x="52.099609"/>
       <use xlink:href="#DejaVuSans-72" x="113.28125"/>
       <use xlink:href="#DejaVuSans-74" x="154.394531"/>
       <use xlink:href="#DejaVuSans-5f" x="193.603516"/>
       <use xlink:href="#DejaVuSans-73" x="243.603516"/>
       <use xlink:href="#DejaVuSans-65" x="295.703125"/>
       <use xlink:href="#DejaVuSans-61" x="357.226562"/>
       <use xlink:href="#DejaVuSans-72" x="418.505859"/>
       <use xlink:href="#DejaVuSans-63" x="457.369141"/>
       <use xlink:href="#DejaVuSans-68" x="512.349609"/>
      </g>
     </g>
    </g>
   </g>
   <g id="matplotlib.axis_2">
    <g id="ytick_1">
     <g id="line2d_31">
      <defs>
       <path id="mfea267becd" d="M 0 0 
L -3.5 0 
" style="stroke: #000000; stroke-width: 0.8"/>
      </defs>
      <g>
       <use xlink:href="#mfea267becd" x="50.87" y="338.805433" style="stroke: #000000; stroke-width: 0.8"/>
      </g>
     </g>
     <g id="text_31">
      <!-- 0 -->
      <g transform="translate(37.5075 342.604651) scale(0.1 -0.1)">
       <defs>
        <path id="DejaVuSans-30" d="M 2034 4250 
Q 1547 4250 1301 3770 
Q 1056 3291 1056 2328 
Q 1056 1369 1301 889 
Q 1547 409 2034 409 
Q 2525 409 2770 889 
Q 3016 1369 3016 2328 
Q 3016 3291 2770 3770 
Q 2525 4250 2034 4250 
z
M 2034 4750 
Q 2819 4750 3233 4129 
Q 3647 3509 3647 2328 
Q 3647 1150 3233 529 
Q 2819 -91 2034 -91 
Q 1250 -91 836 529 
Q 422 1150 422 2328 
Q 422 3509 836 4129 
Q 1250 4750 2034 4750 
z
" transform="scale(0.015625)"/>
       </defs>
       <use xlink:href="#DejaVuSans-30"/>
      </g>
     </g>
    </g>
    <g id="ytick_2">
     <g id="line2d_32">
      <g>
       <use xlink:href="#mfea267becd" x="50.87" y="276.420346" style="stroke: #000000; stroke-width: 0.8"/>
      </g>
     </g>
     <g id="text_32">
      <!-- 20 -->
      <g transform="translate(31.145 280.219565) scale(0.1 -0.1)">
       <use xlink:href="#DejaVuSans-32"/>
       <use xlink:href="#DejaVuSans-30" x="63.623047"/>
      </g>
     </g>
    </g>
    <g id="ytick_3">
     <g id="line2d_33">
      <g>
       <use xlink:href="#mfea267becd" x="50.87" y="214.03526" style="stroke: #000000; stroke-width: 0.8"/>
      </g>
     </g>
     <g id="text_33">
      <!-- 40 -->
      <g transform="translate(31.145 217.834478) scale(0.1 -0.1)">
       <defs>
        <path id="DejaVuSans-34" d="M 2419 4116 
L 825 1625 
L 2419 1625 
L 2419 4116 
z
M 2253 4666 
L 3047 4666 
L 3047 1625 
L 3713 1625 
L 3713 1100 
L 3047 1100 
L 3047 0 
L 2419 0 
L 2419 1100 
L 313 1100 
L 313 1709 
L 2253 4666 
z
" transform="scale(0.015625)"/>
       </defs>
       <use xlink:href="#DejaVuSans-34"/>
       <use xlink:href="#DejaVuSans-30" x="63.623047"/>
      </g>
     </g>
    </g>
    <g id="ytick_4">
     <g id="line2d_34">
      <g>
       <use xlink:href="#mfea267becd" x="50.87" y="151.650173" style="stroke: #000000; stroke-width: 0.8"/>
      </g>
     </g>
     <g id="text_34">
      <!-- 60 -->
      <g transform="translate(31.145 155.449392) scale(0.1 -0.1)">
       <defs>
        <path id="DejaVuSans-36" d="M 2113 2584 
Q 1688 2584 1439 2293 
Q 1191 2003 1191 1497 
Q 1191 994 1439 701 
Q 1688 409 2113 409 
Q 2538 409 2786 701 
Q 3034 994 3034 1497 
Q 3034 2003 2786 2293 
Q 2538 2584 2113 2584 
z
M 3366 4563 
L 3366 3988 
Q 3128 4100 2886 4159 
Q 2644 4219 2406 4219 
Q 1781 4219 1451 3797 
Q 1122 3375 1075 2522 
Q 1259 2794 1537 2939 
Q 1816 3084 2150 3084 
Q 2853 3084 3261 2657 
Q 3669 2231 3669 1497 
Q 3669 778 3244 343 
Q 2819 -91 2113 -91 
Q 1303 -91 875 529 
Q 447 1150 447 2328 
Q 447 3434 972 4092 
Q 1497 4750 2381 4750 
Q 2619 4750 2861 4703 
Q 3103 4656 3366 4563 
z
" transform="scale(0.015625)"/>
       </defs>
       <use xlink:href="#DejaVuSans-36"/>
       <use xlink:href="#DejaVuSans-30" x="63.623047"/>
      </g>
     </g>
    </g>
    <g id="ytick_5">
     <g id="line2d_35">
      <g>
       <use xlink:href="#mfea267becd" x="50.87" y="89.265087" style="stroke: #000000; stroke-width: 0.8"/>
      </g>
     </g>
     <g id="text_35">
      <!-- 80 -->
      <g transform="translate(31.145 93.064305) scale(0.1 -0.1)">
       <defs>
        <path id="DejaVuSans-38" d="M 2034 2216 
Q 1584 2216 1326 1975 
Q 1069 1734 1069 1313 
Q 1069 891 1326 650 
Q 1584 409 2034 409 
Q 2484 409 2743 651 
Q 3003 894 3003 1313 
Q 3003 1734 2745 1975 
Q 2488 2216 2034 2216 
z
M 1403 2484 
Q 997 2584 770 2862 
Q 544 3141 544 3541 
Q 544 4100 942 4425 
Q 1341 4750 2034 4750 
Q 2731 4750 3128 4425 
Q 3525 4100 3525 3541 
Q 3525 3141 3298 2862 
Q 3072 2584 2669 2484 
Q 3125 2378 3379 2068 
Q 3634 1759 3634 1313 
Q 3634 634 3220 271 
Q 2806 -91 2034 -91 
Q 1263 -91 848 271 
Q 434 634 434 1313 
Q 434 1759 690 2068 
Q 947 2378 1403 2484 
z
M 1172 3481 
Q 1172 3119 1398 2916 
Q 1625 2713 2034 2713 
Q 2441 2713 2670 2916 
Q 2900 3119 2900 3481 
Q 2900 3844 2670 4047 
Q 2441 4250 2034 4250 
Q 1625 4250 1398 4047 
Q 1172 3844 1172 3481 
z
" transform="scale(0.015625)"/>
       </defs>
       <use xlink:href="#DejaVuSans-38"/>
       <use xlink:href="#DejaVuSans-30" x="63.623047"/>
      </g>
     </g>
    </g>
    <g id="ytick_6">
     <g id="line2d_36">
      <g>
       <use xlink:href="#mfea267becd" x="50.87" y="26.88" style="stroke: #000000; stroke-width: 0.8"/>
      </g>
     </g>
     <g id="text_36">
      <!-- 100 -->
      <g transform="translate(24.7825 30.679219) scale(0.1 -0.1)">
       <use xlink:href="#DejaVuSans-31"/>
       <use xlink:href="#DejaVuSans-30" x="63.623047"/>
       <use xlink:href="#DejaVuSans-30" x="127.246094"/>
      </g>
     </g>
    </g>
    <g id="text_37">
     <!-- Branch Prediction Hit Rate (%) -->
     <g transform="translate(18.702812 258.896623) rotate(-90) scale(0.1 -0.1)">
      <defs>
       <path id="DejaVuSans-42" d="M 1259 2228 
L 1259 519 
L 2272 519 
Q 2781 519 3026 730 
Q 3272 941 3272 1375 
Q 3272 1813 3026 2020 
Q 2781 2228 2272 2228 
L 1259 2228 
z
M 1259 4147 
L 1259 2741 
L 2194 2741 
Q 2656 2741 2882 2914 
Q 3109 3088 3109 3444 
Q 3109 3797 2882 3972 
Q 2656 4147 2194 4147 
L 1259 4147 
z
M 628 4666 
L 2241 4666 
Q 2963 4666 3353 4366 
Q 3744 4066 3744 3513 
Q 3744 3084 3544 2831 
Q 3344 2578 2956 2516 
Q 3422 2416 3680 2098 
Q 3938 1781 3938 1306 
Q 3938 681 3513 340 
Q 3088 0 2303 0 
L 628 0 
L 628 4666 
z
" transform="scale(0.015625)"/>
       <path id="DejaVuSans-20" transform="scale(0.015625)"/>
       <path id="DejaVuSans-50" d="M 1259 4147 
L 1259 2394 
L 2053 2394 
Q 2494 2394 2734 2622 
Q 2975 2850 2975 3272 
Q 2975 3691 2734 3919 
Q 2494 4147 2053 4147 
L 1259 4147 
z
M 628 4666 
L 2053 4666 
Q 2838 4666 3239 4311 
Q 3641 3956 3641 3272 
Q 3641 2581 3239 2228 
Q 2838 1875 2053 1875 
L 1259 1875 
L 1259 0 
L 628 0 
L 628 4666 
z
" transform="scale(0.015625)"/>
       <path id="DejaVuSans-48" d="M 628 4666 
L 1259 4666 
L 1259 2753 
L 3553 2753 
L 3553 4666 
L 4184 4666 
L 4184 0 
L 3553 0 
L 3553 2222 
L 1259 2222 
L 1259 0 
L 628 0 
L 628 4666 
z
" transform="scale(0.015625)"/>
       <path id="DejaVuSans-52" d="M 2841 2188 
Q 3044 2119 3236 1894 
Q 3428 1669 3622 1275 
L 4263 0 
L 3584 0 
L 2988 1197 
Q 2756 1666 2539 1819 
Q 2322 1972 1947 1972 
L 1259 1972 
L 1259 0 
L 628 0 
L 628 4666 
L 2053 4666 
Q 2853 4666 3247 4331 
Q 3641 3997 3641 3322 
Q 3641 2881 3436 2590 
Q 3231 2300 2841 2188 
z
M 1259 4147 
L 1259 2491 
L 2053 2491 
Q 2509 2491 2742 2702 
Q 2975 2913 2975 3322 
Q 2975 3731 2742 3939 
Q 2509 4147 2053 4147 
L 1259 4147 
z
" transform="scale(0.015625)"/>
       <path id="DejaVuSans-28" d="M 1984 4856 
Q 1566 4138 1362 3434 
Q 1159 2731 1159 2009 
Q 1159 1288 1364 580 
Q 1569 -128 1984 -844 
L 1484 -844 
Q 1016 -109 783 600 
Q 550 1309 550 2009 
Q 550 2706 781 3412 
Q 1013 4119 1484 4856 
L 1984 4856 
z
" transform="scale(0.015625)"/>
       <path id="DejaVuSans-25" d="M 4653 2053 
Q 4381 2053 4226 1822 
Q 4072 1591 4072 1178 
Q 4072 772 4226 539 
Q 4381 306 4653 306 
Q 4919 306 5073 539 
Q 5228 772 5228 1178 
Q 5228 1588 5073 1820 
Q 4919 2053 4653 2053 
z
M 4653 2450 
Q 5147 2450 5437 2106 
Q 5728 1763 5728 1178 
Q 5728 594 5436 251 
Q 5144 -91 4653 -91 
Q 4153 -91 3862 251 
Q 3572 594 3572 1178 
Q 3572 1766 3864 2108 
Q 4156 2450 4653 2450 
z
M 1428 4353 
Q 1159 4353 1004 4120 
Q 850 3888 850 3481 
Q 850 3069 1003 2837 
Q 1156 2606 1428 2606 
Q 1700 2606 1854 2837 
Q 2009 3069 2009 3481 
Q 2009 3884 1853 4118 
Q 1697 4353 1428 4353 
z
M 4250 4750 
L 4750 4750 
L 1831 -91 
L 1331 -91 
L 4250 4750 
z
M 1428 4750 
Q 1922 4750 2215 4408 
Q 2509 4066 2509 3481 
Q 2509 2891 2217 2550 
Q 1925 2209 1428 2209 
Q 931 2209 642 2551 
Q 353 2894 353 3481 
Q 353 4063 643 4406 
Q 934 4750 1428 4750 
z
" transform="scale(0.015625)"/>
       <path id="DejaVuSans-29" d="M 513 4856 
L 1013 4856 
Q 1481 4119 1714 3412 
Q 1947 2706 1947 2009 
Q 1947 1309 1714 600 
Q 1481 -109 1013 -844 
L 513 -844 
Q 928 -128 1133 580 
Q 1338 1288 1338 2009 
Q 1338 2731 1133 3434 
Q 928 4138 513 4856 
z
" transform="scale(0.015625)"/>
      </defs>
      <use xlink:href="#DejaVuSans-42"/>
      <use xlink:href="#DejaVuSans-72" x="68.603516"/>
      <use xlink:href="#DejaVuSans-61" x="109.716797"/>
      <use xlink:href="#DejaVuSans-6e" x="170.996094"/>
      <use xlink:href="#DejaVuSans-63" x="234.375"/>
      <use xlink:href="#DejaVuSans-68" x="289.355469"/>
      <use xlink:href="#DejaVuSans-20" x="352.734375"/>
      <use xlink:href="#DejaVuSans-50" x="384.521484"/>
      <use xlink:href="#DejaVuSans-72" x="443.074219"/>
      <use xlink:href="#DejaVuSans-65" x="481.9375"/>
      <use xlink:href="#DejaVuSans-64" x="543.460938"/>
      <use xlink:href="#DejaVuSans-69" x="606.9375"/>
      <use xlink:href="#DejaVuSans-63" x="634.720703"/>
      <use xlink:href="#DejaVuSans-74" x="689.701172"/>
      <use xlink:href="#DejaVuSans-69" x="728.910156"/>
      <use xlink:href="#DejaVuSans-6f" x="756.693359"/>
      <use xlink:href="#DejaVuSans-6e" x="817.875"/>
      <use xlink:href="#DejaVuSans-20" x="881.253906"/>
      <use xlink:href="#DejaVuSans-48" x="913.041016"/>
      <use xlink:href="#DejaVuSans-69" x="988.236328"/>
      <use xlink:href="#DejaVuSans-74" x="1016.019531"/>
      <use xlink:href="#DejaVuSans-20" x="1055.228516"/>
      <use xlink:href="#DejaVuSans-52" x="1087.015625"/>
      <use xlink:href="#DejaVuSans-61" x="1154.248047"/>
      <use xlink:href="#DejaVuSans-74" x="1215.527344"/>
      <use xlink:href="#DejaVuSans-65" x="1254.736328"/>
      <use xlink:href="#DejaVuSans-20" x="1316.259766"/>
      <use xlink:href="#DejaVuSans-28" x="1348.046875"/>
      <use xlink:href="#DejaVuSans-25" x="1387.060547"/>
      <use xlink:href="#DejaVuSans-29" x="1482.080078"/>
     </g>
    </g>
   </g>
   <g id="line2d_37">
    <path d="M 50.87 169.637873 
L 997.2 169.637873 
" clip-path="url(#pe3ae8a7700)" style="fill: none; stroke-dasharray: 5.55,2.4; stroke-dashoffset: 0; stroke: #ff0000; stroke-width: 1.5"/>
   </g>
   <g id="patch_33">
    <path d="M 50.87 338.805433 
L 50.87 26.88 
" style="fill: none; stroke: #000000; stroke-width: 0.8; stroke-linejoin: miter; stroke-linecap: square"/>
   </g>
   <g id="patch_34">
    <path d="M 997.2 338.805433 
L 997.2 26.88 
" style="fill: none; stroke: #000000; stroke-width: 0.8; stroke-linejoin: miter; stroke-linecap: square"/>
   </g>
   <g id="patch_35">
    <path d="M 50.87 338.805433 
L 997.2 338.805433 
" style="fill: none; stroke: #000000; stroke-width: 0.8; stroke-linejoin: miter; stroke-linecap: square"/>
   </g>
   <g id="patch_36">
    <path d="M 50.87 26.88 
L 997.2 26.88 
" style="fill: none; stroke: #000000; stroke-width: 0.8; stroke-linejoin: miter; stroke-linecap: square"/>
   </g>
   <g id="text_38">
    <!-- Branch Predictor Hit Rate by Program -->
    <g transform="translate(411.57625 20.88) scale(0.12 -0.12)">
     <use xlink:href="#DejaVuSans-42"/>
     <use xlink:href="#DejaVuSans-72" x="68.603516"/>
     <use xlink:href="#DejaVuSans-61" x="109.716797"/>
     <use xlink:href="#DejaVuSans-6e" x="170.996094"/>
     <use xlink:href="#DejaVuSans-63" x="234.375"/>
     <use xlink:href="#DejaVuSans-68" x="289.355469"/>
     <use xlink:href="#DejaVuSans-20" x="352.734375"/>
     <use xlink:href="#DejaVuSans-50" x="384.521484"/>
     <use xlink:href="#DejaVuSans-72" x="443.074219"/>
     <use xlink:href="#DejaVuSans-65" x="481.9375"/>
     <use xlink:href="#DejaVuSans-64" x="543.460938"/>
     <use xlink:href="#DejaVuSans-69" x="606.9375"/>
     <use xlink:href="#DejaVuSans-63" x="634.720703"/>
     <use xlink:href="#DejaVuSans-74" x="689.701172"/>
     <use xlink:href="#DejaVuSans-6f" x="728.910156"/>
     <use xlink:href="#DejaVuSans-72" x="790.091797"/>
     <use xlink:href="#DejaVuSans-20" x="831.205078"/>
     <use xlink:href="#DejaVuSans-48" x="862.992188"/>
     <use xlink:href="#DejaVuSans-69" x="938.1875"/>
     <use xlink:href="#DejaVuSans-74" x="965.970703"/>
     <use xlink:href="#DejaVuSans-20" x="1005.179688"/>
     <use xlink:href="#DejaVuSans-52" x="1036.966797"/>
     <use xlink:href="#DejaVuSans-61" x="1104.199219"/>
     <use xlink:href="#DejaVuSans-74" x="1165.478516"/>
     <use xlink:href="#DejaVuSans-65" x="1204.6875"/>
     <use xlink:href="#DejaVuSans-20" x="1266.210938"/>
     <use xlink:href="#DejaVuSans-62" x="1297.998047"/>
     <use xlink:href="#DejaVuSans-79" x="1361.474609"/>
     <use xlink:href="#DejaVuSans-20" x="1420.654297"/>
     <use xlink:href="#DejaVuSans-50" x="1452.441406"/>
     <use xlink:href="#DejaVuSans-72" x="1510.994141"/>
     <use xlink:href="#DejaVuSans-6f" x="1549.857422"/>
     <use xlink:href="#DejaVuSans-67" x="1611.039062"/>
     <use xlink:href="#DejaVuSans-72" x="1674.515625"/>
     <use xlink:href="#DejaVuSans-61" x="1715.628906"/>
     <use xlink:href="#DejaVuSans-6d" x="1776.908203"/>
    </g>
   </g>
   <g id="legend_1">
    <g id="patch_37">
     <path d="M 870.63125 49.558125 
L 990.2 49.558125 
Q 992.2 49.558125 992.2 47.558125 
L 992.2 33.88 
Q 992.2 31.88 990.2 31.88 
L 870.63125 31.88 
Q 868.63125 31.88 868.63125 33.88 
L 868.63125 47.558125 
Q 868.63125 49.558125 870.63125 49.558125 
z
" style="fill: #ffffff; opacity: 0.8; stroke: #cccccc; stroke-linejoin: miter"/>
    </g>
    <g id="line2d_38">
     <path d="M 872.63125 39.978438 
L 882.63125 39.978438 
L 892.63125 39.978438 
" style="fill: none; stroke-dasharray: 5.55,2.4; stroke-dashoffset: 0; stroke: #ff0000; stroke-width: 1.5"/>
    </g>
    <g id="text_39">
     <!-- Average = 54.2% -->
     <g transform="translate(900.63125 43.478438) scale(0.1 -0.1)">
      <defs>
       <path id="DejaVuSans-41" d="M 2188 4044 
L 1331 1722 
L 3047 1722 
L 2188 4044 
z
M 1831 4666 
L 2547 4666 
L 4325 0 
L 3669 0 
L 3244 1197 
L 1141 1197 
L 716 0 
L 50 0 
L 1831 4666 
z
" transform="scale(0.015625)"/>
       <path id="DejaVuSans-3d" d="M 678 2906 
L 4684 2906 
L 4684 2381 
L 678 2381 
L 678 2906 
z
M 678 1631 
L 4684 1631 
L 4684 1100 
L 678 1100 
L 678 1631 
z
" transform="scale(0.015625)"/>
       <path id="DejaVuSans-35" d="M 691 4666 
L 3169 4666 
L 3169 4134 
L 1269 4134 
L 1269 2991 
Q 1406 3038 1543 3061 
Q 1681 3084 1819 3084 
Q 2600 3084 3056 2656 
Q 3513 2228 3513 1497 
Q 3513 744 3044 326 
Q 2575 -91 1722 -91 
Q 1428 -91 1123 -41 
Q 819 9 494 109 
L 494 744 
Q 775 591 1075 516 
Q 1375 441 1709 441 
Q 2250 441 2565 725 
Q 2881 1009 2881 1497 
Q 2881 1984 2565 2268 
Q 2250 2553 1709 2553 
Q 1456 2553 1204 2497 
Q 953 2441 691 2322 
L 691 4666 
z
" transform="scale(0.015625)"/>
       <path id="DejaVuSans-2e" d="M 684 794 
L 1344 794 
L 1344 0 
L 684 0 
L 684 794 
z
" transform="scale(0.015625)"/>
      </defs>
      <use xlink:href="#DejaVuSans-41"/>
      <use xlink:href="#DejaVuSans-76" x="62.533203"/>
      <use xlink:href="#DejaVuSans-65" x="121.712891"/>
      <use xlink:href="#DejaVuSans-72" x="183.236328"/>
      <use xlink:href="#DejaVuSans-61" x="224.349609"/>
      <use xlink:href="#DejaVuSans-67" x="285.628906"/>
      <use xlink:href="#DejaVuSans-65" x="349.105469"/>
      <use xlink:href="#DejaVuSans-20" x="410.628906"/>
      <use xlink:href="#DejaVuSans-3d" x="442.416016"/>
      <use xlink:href="#DejaVuSans-20" x="526.205078"/>
      <use xlink:href="#DejaVuSans-35" x="557.992188"/>
      <use xlink:href="#DejaVuSans-34" x="621.615234"/>
      <use xlink:href="#DejaVuSans-2e" x="685.238281"/>
      <use xlink:href="#DejaVuSans-32" x="717.025391"/>
      <use xlink:href="#DejaVuSans-25" x="780.648438"/>
     </g>
    </g>
   </g>
  </g>
 </g>
 <defs>
  <clipPath id="pe3ae8a7700">
   <rect x="50.87" y="26.88" width="946.33" height="311.925433"/>
  </clipPath>
 </defs>
</svg>
