<?xml version="1.0" encoding="utf-8" standalone="no"?>
<!DOCTYPE svg PUBLIC "-//W3C//DTD SVG 1.1//EN"
  "http://www.w3.org/Graphics/SVG/1.1/DTD/svg11.dtd">
<svg xmlns:xlink="http://www.w3.org/1999/xlink" width="1008pt" height="432pt" viewBox="0 0 1008 432" xmlns="http://www.w3.org/2000/svg" version="1.1">
 <metadata>
  <rdf:RDF xmlns:dc="http://purl.org/dc/elements/1.1/" xmlns:cc="http://creativecommons.org/ns#" xmlns:rdf="http://www.w3.org/1999/02/22-rdf-syntax-ns#">
   <cc:Work>
    <dc:type rdf:resource="http://purl.org/dc/dcmitype/StillImage"/>
    <dc:date>2025-05-04T09:43:29.624625</dc:date>
    <dc:format>image/svg+xml</dc:format>
    <dc:creator>
     <cc:Agent>
      <dc:title>Matplotlib v3.9.4, https://matplotlib.org/</dc:title>
     </cc:Agent>
    </dc:creator>
   </cc:Work>
  </rdf:RDF>
 </metadata>
 <defs>
  <style type="text/css">*{stroke-linejoin: round; stroke-linecap: butt}</style>
 </defs>
 <g id="figure_1">
  <g id="patch_1">
   <path d="M 0 432 
L 1008 432 
L 1008 0 
L 0 0 
z
" style="fill: #ffffff"/>
  </g>
  <g id="axes_1">
   <g id="patch_2">
    <path d="M 44.57 318.94 
L 997.2 318.94 
L 997.2 26.88 
L 44.57 26.88 
z
" style="fill: #ffffff"/>
   </g>
   <g id="patch_3">
    <path d="M 87.871364 318.94 
L 109.658213 318.94 
L 109.658213 160.992441 
L 87.871364 160.992441 
z
" clip-path="url(#pe0dbb2f1a0)" style="fill: #1f77b4"/>
   </g>
   <g id="patch_4">
    <path d="M 115.104926 318.94 
L 136.891775 318.94 
L 136.891775 175.463366 
L 115.104926 175.463366 
z
" clip-path="url(#pe0dbb2f1a0)" style="fill: #1f77b4"/>
   </g>
   <g id="patch_5">
    <path d="M 142.338488 318.94 
L 164.125337 318.94 
L 164.125337 120.932385 
L 142.338488 120.932385 
z
" clip-path="url(#pe0dbb2f1a0)" style="fill: #1f77b4"/>
   </g>
   <g id="patch_6">
    <path d="M 169.57205 318.94 
L 191.358899 318.94 
L 191.358899 176.720636 
L 169.57205 176.720636 
z
" clip-path="url(#pe0dbb2f1a0)" style="fill: #1f77b4"/>
   </g>
   <g id="patch_7">
    <path d="M 196.805612 318.94 
L 218.592461 318.94 
L 218.592461 40.787619 
L 196.805612 40.787619 
z
" clip-path="url(#pe0dbb2f1a0)" style="fill: #1f77b4"/>
   </g>
   <g id="patch_8">
    <path d="M 224.039174 318.94 
L 245.826023 318.94 
L 245.826023 82.252859 
L 224.039174 82.252859 
z
" clip-path="url(#pe0dbb2f1a0)" style="fill: #1f77b4"/>
   </g>
   <g id="patch_9">
    <path d="M 251.272736 318.94 
L 273.059585 318.94 
L 273.059585 262.880573 
L 251.272736 262.880573 
z
" clip-path="url(#pe0dbb2f1a0)" style="fill: #1f77b4"/>
   </g>
   <g id="patch_10">
    <path d="M 278.506298 318.94 
L 300.293148 318.94 
L 300.293148 187.764885 
L 278.506298 187.764885 
z
" clip-path="url(#pe0dbb2f1a0)" style="fill: #1f77b4"/>
   </g>
   <g id="patch_11">
    <path d="M 305.73986 318.94 
L 327.52671 318.94 
L 327.52671 211.529744 
L 305.73986 211.529744 
z
" clip-path="url(#pe0dbb2f1a0)" style="fill: #1f77b4"/>
   </g>
   <g id="patch_12">
    <path d="M 332.973422 318.94 
L 354.760272 318.94 
L 354.760272 262.412179 
L 332.973422 262.412179 
z
" clip-path="url(#pe0dbb2f1a0)" style="fill: #1f77b4"/>
   </g>
   <g id="patch_13">
    <path d="M 360.206984 318.94 
L 381.993834 318.94 
L 381.993834 242.912176 
L 360.206984 242.912176 
z
" clip-path="url(#pe0dbb2f1a0)" style="fill: #1f77b4"/>
   </g>
   <g id="patch_14">
    <path d="M 387.440546 318.94 
L 409.227396 318.94 
L 409.227396 228.219379 
L 387.440546 228.219379 
z
" clip-path="url(#pe0dbb2f1a0)" style="fill: #1f77b4"/>
   </g>
   <g id="patch_15">
    <path d="M 414.674108 318.94 
L 436.460958 318.94 
L 436.460958 264.063885 
L 414.674108 264.063885 
z
" clip-path="url(#pe0dbb2f1a0)" style="fill: #1f77b4"/>
   </g>
   <g id="patch_16">
    <path d="M 441.90767 318.94 
L 463.69452 318.94 
L 463.69452 250.233921 
L 441.90767 250.233921 
z
" clip-path="url(#pe0dbb2f1a0)" style="fill: #1f77b4"/>
   </g>
   <g id="patch_17">
    <path d="M 469.141232 318.94 
L 490.928082 318.94 
L 490.928082 152.191555 
L 469.141232 152.191555 
z
" clip-path="url(#pe0dbb2f1a0)" style="fill: #1f77b4"/>
   </g>
   <g id="patch_18">
    <path d="M 496.374794 318.94 
L 518.161644 318.94 
L 518.161644 108.655518 
L 496.374794 108.655518 
z
" clip-path="url(#pe0dbb2f1a0)" style="fill: #1f77b4"/>
   </g>
   <g id="patch_19">
    <path d="M 523.608356 318.94 
L 545.395206 318.94 
L 545.395206 318.94 
L 523.608356 318.94 
z
" clip-path="url(#pe0dbb2f1a0)" style="fill: #1f77b4"/>
   </g>
   <g id="patch_20">
    <path d="M 550.841918 318.94 
L 572.628768 318.94 
L 572.628768 261.302823 
L 550.841918 261.302823 
z
" clip-path="url(#pe0dbb2f1a0)" style="fill: #1f77b4"/>
   </g>
   <g id="patch_21">
    <path d="M 578.07548 318.94 
L 599.86233 318.94 
L 599.86233 234.135942 
L 578.07548 234.135942 
z
" clip-path="url(#pe0dbb2f1a0)" style="fill: #1f77b4"/>
   </g>
   <g id="patch_22">
    <path d="M 605.309042 318.94 
L 627.095892 318.94 
L 627.095892 166.958308 
L 605.309042 166.958308 
z
" clip-path="url(#pe0dbb2f1a0)" style="fill: #1f77b4"/>
   </g>
   <g id="patch_23">
    <path d="M 632.542604 318.94 
L 654.329454 318.94 
L 654.329454 188.011409 
L 632.542604 188.011409 
z
" clip-path="url(#pe0dbb2f1a0)" style="fill: #1f77b4"/>
   </g>
   <g id="patch_24">
    <path d="M 659.776166 318.94 
L 681.563016 318.94 
L 681.563016 209.187771 
L 659.776166 209.187771 
z
" clip-path="url(#pe0dbb2f1a0)" style="fill: #1f77b4"/>
   </g>
   <g id="patch_25">
    <path d="M 687.009728 318.94 
L 708.796578 318.94 
L 708.796578 254.32621 
L 687.009728 254.32621 
z
" clip-path="url(#pe0dbb2f1a0)" style="fill: #1f77b4"/>
   </g>
   <g id="patch_26">
    <path d="M 714.24329 318.94 
L 736.03014 318.94 
L 736.03014 97.068917 
L 714.24329 97.068917 
z
" clip-path="url(#pe0dbb2f1a0)" style="fill: #1f77b4"/>
   </g>
   <g id="patch_27">
    <path d="M 741.476852 318.94 
L 763.263702 318.94 
L 763.263702 118.343889 
L 741.476852 118.343889 
z
" clip-path="url(#pe0dbb2f1a0)" style="fill: #1f77b4"/>
   </g>
   <g id="patch_28">
    <path d="M 768.710415 318.94 
L 790.497264 318.94 
L 790.497264 252.304718 
L 768.710415 252.304718 
z
" clip-path="url(#pe0dbb2f1a0)" style="fill: #1f77b4"/>
   </g>
   <g id="patch_29">
    <path d="M 795.943977 318.94 
L 817.730826 318.94 
L 817.730826 248.335691 
L 795.943977 248.335691 
z
" clip-path="url(#pe0dbb2f1a0)" style="fill: #1f77b4"/>
   </g>
   <g id="patch_30">
    <path d="M 823.177539 318.94 
L 844.964388 318.94 
L 844.964388 118.910893 
L 823.177539 118.910893 
z
" clip-path="url(#pe0dbb2f1a0)" style="fill: #1f77b4"/>
   </g>
   <g id="patch_31">
    <path d="M 850.411101 318.94 
L 872.19795 318.94 
L 872.19795 236.551871 
L 850.411101 236.551871 
z
" clip-path="url(#pe0dbb2f1a0)" style="fill: #1f77b4"/>
   </g>
   <g id="patch_32">
    <path d="M 877.644663 318.94 
L 899.431512 318.94 
L 899.431512 115.607479 
L 877.644663 115.607479 
z
" clip-path="url(#pe0dbb2f1a0)" style="fill: #1f77b4"/>
   </g>
   <g id="patch_33">
    <path d="M 904.878225 318.94 
L 926.665074 318.94 
L 926.665074 220.478544 
L 904.878225 220.478544 
z
" clip-path="url(#pe0dbb2f1a0)" style="fill: #1f77b4"/>
   </g>
   <g id="patch_34">
    <path d="M 932.111787 318.94 
L 953.898636 318.94 
L 953.898636 244.095488 
L 932.111787 244.095488 
z
" clip-path="url(#pe0dbb2f1a0)" style="fill: #1f77b4"/>
   </g>
   <g id="matplotlib.axis_1">
    <g id="xtick_1">
     <g id="line2d_1">
      <defs>
       <path id="md0541975f0" d="M 0 0 
L 0 3.5 
" style="stroke: #000000; stroke-width: 0.8"/>
      </defs>
      <g>
       <use xlink:href="#md0541975f0" x="98.764788" y="318.94" style="stroke: #000000; stroke-width: 0.8"/>
      </g>
     </g>
     <g id="text_1">
      <!-- alexnet -->
      <g transform="translate(101.524163 363.154063) rotate(-90) scale(0.1 -0.1)">
       <defs>
        <path id="DejaVuSans-61" d="M 2194 1759 
Q 1497 1759 1228 1600 
Q 959 1441 959 1056 
Q 959 750 1161 570 
Q 1363 391 1709 391 
Q 2188 391 2477 730 
Q 2766 1069 2766 1631 
L 2766 1759 
L 2194 1759 
z
M 3341 1997 
L 3341 0 
L 2766 0 
L 2766 531 
Q 2569 213 2275 61 
Q 1981 -91 1556 -91 
Q 1019 -91 701 211 
Q 384 513 384 1019 
Q 384 1609 779 1909 
Q 1175 2209 1959 2209 
L 2766 2209 
L 2766 2266 
Q 2766 2663 2505 2880 
Q 2244 3097 1772 3097 
Q 1472 3097 1187 3025 
Q 903 2953 641 2809 
L 641 3341 
Q 956 3463 1253 3523 
Q 1550 3584 1831 3584 
Q 2591 3584 2966 3190 
Q 3341 2797 3341 1997 
z
" transform="scale(0.015625)"/>
        <path id="DejaVuSans-6c" d="M 603 4863 
L 1178 4863 
L 1178 0 
L 603 0 
L 603 4863 
z
" transform="scale(0.015625)"/>
        <path id="DejaVuSans-65" d="M 3597 1894 
L 3597 1613 
L 953 1613 
Q 991 1019 1311 708 
Q 1631 397 2203 397 
Q 2534 397 2845 478 
Q 3156 559 3463 722 
L 3463 178 
Q 3153 47 2828 -22 
Q 2503 -91 2169 -91 
Q 1331 -91 842 396 
Q 353 884 353 1716 
Q 353 2575 817 3079 
Q 1281 3584 2069 3584 
Q 2775 3584 3186 3129 
Q 3597 2675 3597 1894 
z
M 3022 2063 
Q 3016 2534 2758 2815 
Q 2500 3097 2075 3097 
Q 1594 3097 1305 2825 
Q 1016 2553 972 2059 
L 3022 2063 
z
" transform="scale(0.015625)"/>
        <path id="DejaVuSans-78" d="M 3513 3500 
L 2247 1797 
L 3578 0 
L 2900 0 
L 1881 1375 
L 863 0 
L 184 0 
L 1544 1831 
L 300 3500 
L 978 3500 
L 1906 2253 
L 2834 3500 
L 3513 3500 
z
" transform="scale(0.015625)"/>
        <path id="DejaVuSans-6e" d="M 3513 2113 
L 3513 0 
L 2938 0 
L 2938 2094 
Q 2938 2591 2744 2837 
Q 2550 3084 2163 3084 
Q 1697 3084 1428 2787 
Q 1159 2491 1159 1978 
L 1159 0 
L 581 0 
L 581 3500 
L 1159 3500 
L 1159 2956 
Q 1366 3272 1645 3428 
Q 1925 3584 2291 3584 
Q 2894 3584 3203 3211 
Q 3513 2838 3513 2113 
z
" transform="scale(0.015625)"/>
        <path id="DejaVuSans-74" d="M 1172 4494 
L 1172 3500 
L 2356 3500 
L 2356 3053 
L 1172 3053 
L 1172 1153 
Q 1172 725 1289 603 
Q 1406 481 1766 481 
L 2356 481 
L 2356 0 
L 1766 0 
Q 1100 0 847 248 
Q 594 497 594 1153 
L 594 3053 
L 172 3053 
L 172 3500 
L 594 3500 
L 594 4494 
L 1172 4494 
z
" transform="scale(0.015625)"/>
       </defs>
       <use xlink:href="#DejaVuSans-61"/>
       <use xlink:href="#DejaVuSans-6c" x="61.279297"/>
       <use xlink:href="#DejaVuSans-65" x="89.0625"/>
       <use xlink:href="#DejaVuSans-78" x="148.835938"/>
       <use xlink:href="#DejaVuSans-6e" x="208.015625"/>
       <use xlink:href="#DejaVuSans-65" x="271.394531"/>
       <use xlink:href="#DejaVuSans-74" x="332.917969"/>
      </g>
     </g>
    </g>
    <g id="xtick_2">
     <g id="line2d_2">
      <g>
       <use xlink:href="#md0541975f0" x="125.99835" y="318.94" style="stroke: #000000; stroke-width: 0.8"/>
      </g>
     </g>
     <g id="text_2">
      <!-- backtrack -->
      <g transform="translate(128.757725 375.154063) rotate(-90) scale(0.1 -0.1)">
       <defs>
        <path id="DejaVuSans-62" d="M 3116 1747 
Q 3116 2381 2855 2742 
Q 2594 3103 2138 3103 
Q 1681 3103 1420 2742 
Q 1159 2381 1159 1747 
Q 1159 1113 1420 752 
Q 1681 391 2138 391 
Q 2594 391 2855 752 
Q 3116 1113 3116 1747 
z
M 1159 2969 
Q 1341 3281 1617 3432 
Q 1894 3584 2278 3584 
Q 2916 3584 3314 3078 
Q 3713 2572 3713 1747 
Q 3713 922 3314 415 
Q 2916 -91 2278 -91 
Q 1894 -91 1617 61 
Q 1341 213 1159 525 
L 1159 0 
L 581 0 
L 581 4863 
L 1159 4863 
L 1159 2969 
z
" transform="scale(0.015625)"/>
        <path id="DejaVuSans-63" d="M 3122 3366 
L 3122 2828 
Q 2878 2963 2633 3030 
Q 2388 3097 2138 3097 
Q 1578 3097 1268 2742 
Q 959 2388 959 1747 
Q 959 1106 1268 751 
Q 1578 397 2138 397 
Q 2388 397 2633 464 
Q 2878 531 3122 666 
L 3122 134 
Q 2881 22 2623 -34 
Q 2366 -91 2075 -91 
Q 1284 -91 818 406 
Q 353 903 353 1747 
Q 353 2603 823 3093 
Q 1294 3584 2113 3584 
Q 2378 3584 2631 3529 
Q 2884 3475 3122 3366 
z
" transform="scale(0.015625)"/>
        <path id="DejaVuSans-6b" d="M 581 4863 
L 1159 4863 
L 1159 1991 
L 2875 3500 
L 3609 3500 
L 1753 1863 
L 3688 0 
L 2938 0 
L 1159 1709 
L 1159 0 
L 581 0 
L 581 4863 
z
" transform="scale(0.015625)"/>
        <path id="DejaVuSans-72" d="M 2631 2963 
Q 2534 3019 2420 3045 
Q 2306 3072 2169 3072 
Q 1681 3072 1420 2755 
Q 1159 2438 1159 1844 
L 1159 0 
L 581 0 
L 581 3500 
L 1159 3500 
L 1159 2956 
Q 1341 3275 1631 3429 
Q 1922 3584 2338 3584 
Q 2397 3584 2469 3576 
Q 2541 3569 2628 3553 
L 2631 2963 
z
" transform="scale(0.015625)"/>
       </defs>
       <use xlink:href="#DejaVuSans-62"/>
       <use xlink:href="#DejaVuSans-61" x="63.476562"/>
       <use xlink:href="#DejaVuSans-63" x="124.755859"/>
       <use xlink:href="#DejaVuSans-6b" x="179.736328"/>
       <use xlink:href="#DejaVuSans-74" x="237.646484"/>
       <use xlink:href="#DejaVuSans-72" x="276.855469"/>
       <use xlink:href="#DejaVuSans-61" x="317.96875"/>
       <use xlink:href="#DejaVuSans-63" x="379.248047"/>
       <use xlink:href="#DejaVuSans-6b" x="434.228516"/>
      </g>
     </g>
    </g>
    <g id="xtick_3">
     <g id="line2d_3">
      <g>
       <use xlink:href="#md0541975f0" x="153.231913" y="318.94" style="stroke: #000000; stroke-width: 0.8"/>
      </g>
     </g>
     <g id="text_3">
      <!-- basic_malloc -->
      <g transform="translate(155.852225 389.944687) rotate(-90) scale(0.1 -0.1)">
       <defs>
        <path id="DejaVuSans-73" d="M 2834 3397 
L 2834 2853 
Q 2591 2978 2328 3040 
Q 2066 3103 1784 3103 
Q 1356 3103 1142 2972 
Q 928 2841 928 2578 
Q 928 2378 1081 2264 
Q 1234 2150 1697 2047 
L 1894 2003 
Q 2506 1872 2764 1633 
Q 3022 1394 3022 966 
Q 3022 478 2636 193 
Q 2250 -91 1575 -91 
Q 1294 -91 989 -36 
Q 684 19 347 128 
L 347 722 
Q 666 556 975 473 
Q 1284 391 1588 391 
Q 1994 391 2212 530 
Q 2431 669 2431 922 
Q 2431 1156 2273 1281 
Q 2116 1406 1581 1522 
L 1381 1569 
Q 847 1681 609 1914 
Q 372 2147 372 2553 
Q 372 3047 722 3315 
Q 1072 3584 1716 3584 
Q 2034 3584 2315 3537 
Q 2597 3491 2834 3397 
z
" transform="scale(0.015625)"/>
        <path id="DejaVuSans-69" d="M 603 3500 
L 1178 3500 
L 1178 0 
L 603 0 
L 603 3500 
z
M 603 4863 
L 1178 4863 
L 1178 4134 
L 603 4134 
L 603 4863 
z
" transform="scale(0.015625)"/>
        <path id="DejaVuSans-5f" d="M 3263 -1063 
L 3263 -1509 
L -63 -1509 
L -63 -1063 
L 3263 -1063 
z
" transform="scale(0.015625)"/>
        <path id="DejaVuSans-6d" d="M 3328 2828 
Q 3544 3216 3844 3400 
Q 4144 3584 4550 3584 
Q 5097 3584 5394 3201 
Q 5691 2819 5691 2113 
L 5691 0 
L 5113 0 
L 5113 2094 
Q 5113 2597 4934 2840 
Q 4756 3084 4391 3084 
Q 3944 3084 3684 2787 
Q 3425 2491 3425 1978 
L 3425 0 
L 2847 0 
L 2847 2094 
Q 2847 2600 2669 2842 
Q 2491 3084 2119 3084 
Q 1678 3084 1418 2786 
Q 1159 2488 1159 1978 
L 1159 0 
L 581 0 
L 581 3500 
L 1159 3500 
L 1159 2956 
Q 1356 3278 1631 3431 
Q 1906 3584 2284 3584 
Q 2666 3584 2933 3390 
Q 3200 3197 3328 2828 
z
" transform="scale(0.015625)"/>
        <path id="DejaVuSans-6f" d="M 1959 3097 
Q 1497 3097 1228 2736 
Q 959 2375 959 1747 
Q 959 1119 1226 758 
Q 1494 397 1959 397 
Q 2419 397 2687 759 
Q 2956 1122 2956 1747 
Q 2956 2369 2687 2733 
Q 2419 3097 1959 3097 
z
M 1959 3584 
Q 2709 3584 3137 3096 
Q 3566 2609 3566 1747 
Q 3566 888 3137 398 
Q 2709 -91 1959 -91 
Q 1206 -91 779 398 
Q 353 888 353 1747 
Q 353 2609 779 3096 
Q 1206 3584 1959 3584 
z
" transform="scale(0.015625)"/>
       </defs>
       <use xlink:href="#DejaVuSans-62"/>
       <use xlink:href="#DejaVuSans-61" x="63.476562"/>
       <use xlink:href="#DejaVuSans-73" x="124.755859"/>
       <use xlink:href="#DejaVuSans-69" x="176.855469"/>
       <use xlink:href="#DejaVuSans-63" x="204.638672"/>
       <use xlink:href="#DejaVuSans-5f" x="259.619141"/>
       <use xlink:href="#DejaVuSans-6d" x="309.619141"/>
       <use xlink:href="#DejaVuSans-61" x="407.03125"/>
       <use xlink:href="#DejaVuSans-6c" x="468.310547"/>
       <use xlink:href="#DejaVuSans-6c" x="496.09375"/>
       <use xlink:href="#DejaVuSans-6f" x="523.876953"/>
       <use xlink:href="#DejaVuSans-63" x="585.058594"/>
      </g>
     </g>
    </g>
    <g id="xtick_4">
     <g id="line2d_4">
      <g>
       <use xlink:href="#md0541975f0" x="180.465475" y="318.94" style="stroke: #000000; stroke-width: 0.8"/>
      </g>
     </g>
     <g id="text_4">
      <!-- bfs -->
      <g transform="translate(183.22485 341.018125) rotate(-90) scale(0.1 -0.1)">
       <defs>
        <path id="DejaVuSans-66" d="M 2375 4863 
L 2375 4384 
L 1825 4384 
Q 1516 4384 1395 4259 
Q 1275 4134 1275 3809 
L 1275 3500 
L 2222 3500 
L 2222 3053 
L 1275 3053 
L 1275 0 
L 697 0 
L 697 3053 
L 147 3053 
L 147 3500 
L 697 3500 
L 697 3744 
Q 697 4328 969 4595 
Q 1241 4863 1831 4863 
L 2375 4863 
z
" transform="scale(0.015625)"/>
       </defs>
       <use xlink:href="#DejaVuSans-62"/>
       <use xlink:href="#DejaVuSans-66" x="63.476562"/>
       <use xlink:href="#DejaVuSans-73" x="98.681641"/>
      </g>
     </g>
    </g>
    <g id="xtick_5">
     <g id="line2d_5">
      <g>
       <use xlink:href="#md0541975f0" x="207.699037" y="318.94" style="stroke: #000000; stroke-width: 0.8"/>
      </g>
     </g>
     <g id="text_5">
      <!-- btest1 -->
      <g transform="translate(210.458412 357.854062) rotate(-90) scale(0.1 -0.1)">
       <defs>
        <path id="DejaVuSans-31" d="M 794 531 
L 1825 531 
L 1825 4091 
L 703 3866 
L 703 4441 
L 1819 4666 
L 2450 4666 
L 2450 531 
L 3481 531 
L 3481 0 
L 794 0 
L 794 531 
z
" transform="scale(0.015625)"/>
       </defs>
       <use xlink:href="#DejaVuSans-62"/>
       <use xlink:href="#DejaVuSans-74" x="63.476562"/>
       <use xlink:href="#DejaVuSans-65" x="102.685547"/>
       <use xlink:href="#DejaVuSans-73" x="164.208984"/>
       <use xlink:href="#DejaVuSans-74" x="216.308594"/>
       <use xlink:href="#DejaVuSans-31" x="255.517578"/>
      </g>
     </g>
    </g>
    <g id="xtick_6">
     <g id="line2d_6">
      <g>
       <use xlink:href="#md0541975f0" x="234.932599" y="318.94" style="stroke: #000000; stroke-width: 0.8"/>
      </g>
     </g>
     <g id="text_6">
      <!-- btest2 -->
      <g transform="translate(237.691974 357.854062) rotate(-90) scale(0.1 -0.1)">
       <defs>
        <path id="DejaVuSans-32" d="M 1228 531 
L 3431 531 
L 3431 0 
L 469 0 
L 469 531 
Q 828 903 1448 1529 
Q 2069 2156 2228 2338 
Q 2531 2678 2651 2914 
Q 2772 3150 2772 3378 
Q 2772 3750 2511 3984 
Q 2250 4219 1831 4219 
Q 1534 4219 1204 4116 
Q 875 4013 500 3803 
L 500 4441 
Q 881 4594 1212 4672 
Q 1544 4750 1819 4750 
Q 2544 4750 2975 4387 
Q 3406 4025 3406 3419 
Q 3406 3131 3298 2873 
Q 3191 2616 2906 2266 
Q 2828 2175 2409 1742 
Q 1991 1309 1228 531 
z
" transform="scale(0.015625)"/>
       </defs>
       <use xlink:href="#DejaVuSans-62"/>
       <use xlink:href="#DejaVuSans-74" x="63.476562"/>
       <use xlink:href="#DejaVuSans-65" x="102.685547"/>
       <use xlink:href="#DejaVuSans-73" x="164.208984"/>
       <use xlink:href="#DejaVuSans-74" x="216.308594"/>
       <use xlink:href="#DejaVuSans-32" x="255.517578"/>
      </g>
     </g>
    </g>
    <g id="xtick_7">
     <g id="line2d_7">
      <g>
       <use xlink:href="#md0541975f0" x="262.166161" y="318.94" style="stroke: #000000; stroke-width: 0.8"/>
      </g>
     </g>
     <g id="text_7">
      <!-- copy_long -->
      <g transform="translate(264.786473 376.407188) rotate(-90) scale(0.1 -0.1)">
       <defs>
        <path id="DejaVuSans-70" d="M 1159 525 
L 1159 -1331 
L 581 -1331 
L 581 3500 
L 1159 3500 
L 1159 2969 
Q 1341 3281 1617 3432 
Q 1894 3584 2278 3584 
Q 2916 3584 3314 3078 
Q 3713 2572 3713 1747 
Q 3713 922 3314 415 
Q 2916 -91 2278 -91 
Q 1894 -91 1617 61 
Q 1341 213 1159 525 
z
M 3116 1747 
Q 3116 2381 2855 2742 
Q 2594 3103 2138 3103 
Q 1681 3103 1420 2742 
Q 1159 2381 1159 1747 
Q 1159 1113 1420 752 
Q 1681 391 2138 391 
Q 2594 391 2855 752 
Q 3116 1113 3116 1747 
z
" transform="scale(0.015625)"/>
        <path id="DejaVuSans-79" d="M 2059 -325 
Q 1816 -950 1584 -1140 
Q 1353 -1331 966 -1331 
L 506 -1331 
L 506 -850 
L 844 -850 
Q 1081 -850 1212 -737 
Q 1344 -625 1503 -206 
L 1606 56 
L 191 3500 
L 800 3500 
L 1894 763 
L 2988 3500 
L 3597 3500 
L 2059 -325 
z
" transform="scale(0.015625)"/>
        <path id="DejaVuSans-67" d="M 2906 1791 
Q 2906 2416 2648 2759 
Q 2391 3103 1925 3103 
Q 1463 3103 1205 2759 
Q 947 2416 947 1791 
Q 947 1169 1205 825 
Q 1463 481 1925 481 
Q 2391 481 2648 825 
Q 2906 1169 2906 1791 
z
M 3481 434 
Q 3481 -459 3084 -895 
Q 2688 -1331 1869 -1331 
Q 1566 -1331 1297 -1286 
Q 1028 -1241 775 -1147 
L 775 -588 
Q 1028 -725 1275 -790 
Q 1522 -856 1778 -856 
Q 2344 -856 2625 -561 
Q 2906 -266 2906 331 
L 2906 616 
Q 2728 306 2450 153 
Q 2172 0 1784 0 
Q 1141 0 747 490 
Q 353 981 353 1791 
Q 353 2603 747 3093 
Q 1141 3584 1784 3584 
Q 2172 3584 2450 3431 
Q 2728 3278 2906 2969 
L 2906 3500 
L 3481 3500 
L 3481 434 
z
" transform="scale(0.015625)"/>
       </defs>
       <use xlink:href="#DejaVuSans-63"/>
       <use xlink:href="#DejaVuSans-6f" x="54.980469"/>
       <use xlink:href="#DejaVuSans-70" x="116.162109"/>
       <use xlink:href="#DejaVuSans-79" x="179.638672"/>
       <use xlink:href="#DejaVuSans-5f" x="238.818359"/>
       <use xlink:href="#DejaVuSans-6c" x="288.818359"/>
       <use xlink:href="#DejaVuSans-6f" x="316.601562"/>
       <use xlink:href="#DejaVuSans-6e" x="377.783203"/>
       <use xlink:href="#DejaVuSans-67" x="441.162109"/>
      </g>
     </g>
    </g>
    <g id="xtick_8">
     <g id="line2d_8">
      <g>
       <use xlink:href="#md0541975f0" x="289.399723" y="318.94" style="stroke: #000000; stroke-width: 0.8"/>
      </g>
     </g>
     <g id="text_8">
      <!-- dft -->
      <g transform="translate(292.159098 339.554062) rotate(-90) scale(0.1 -0.1)">
       <defs>
        <path id="DejaVuSans-64" d="M 2906 2969 
L 2906 4863 
L 3481 4863 
L 3481 0 
L 2906 0 
L 2906 525 
Q 2725 213 2448 61 
Q 2172 -91 1784 -91 
Q 1150 -91 751 415 
Q 353 922 353 1747 
Q 353 2572 751 3078 
Q 1150 3584 1784 3584 
Q 2172 3584 2448 3432 
Q 2725 3281 2906 2969 
z
M 947 1747 
Q 947 1113 1208 752 
Q 1469 391 1925 391 
Q 2381 391 2643 752 
Q 2906 1113 2906 1747 
Q 2906 2381 2643 2742 
Q 2381 3103 1925 3103 
Q 1469 3103 1208 2742 
Q 947 2381 947 1747 
z
" transform="scale(0.015625)"/>
       </defs>
       <use xlink:href="#DejaVuSans-64"/>
       <use xlink:href="#DejaVuSans-66" x="63.476562"/>
       <use xlink:href="#DejaVuSans-74" x="96.931641"/>
      </g>
     </g>
    </g>
    <g id="xtick_9">
     <g id="line2d_9">
      <g>
       <use xlink:href="#md0541975f0" x="316.633285" y="318.94" style="stroke: #000000; stroke-width: 0.8"/>
      </g>
     </g>
     <g id="text_9">
      <!-- evens -->
      <g transform="translate(319.39266 355.711875) rotate(-90) scale(0.1 -0.1)">
       <defs>
        <path id="DejaVuSans-76" d="M 191 3500 
L 800 3500 
L 1894 563 
L 2988 3500 
L 3597 3500 
L 2284 0 
L 1503 0 
L 191 3500 
z
" transform="scale(0.015625)"/>
       </defs>
       <use xlink:href="#DejaVuSans-65"/>
       <use xlink:href="#DejaVuSans-76" x="61.523438"/>
       <use xlink:href="#DejaVuSans-65" x="120.703125"/>
       <use xlink:href="#DejaVuSans-6e" x="182.226562"/>
       <use xlink:href="#DejaVuSans-73" x="245.605469"/>
      </g>
     </g>
    </g>
    <g id="xtick_10">
     <g id="line2d_10">
      <g>
       <use xlink:href="#md0541975f0" x="343.866847" y="318.94" style="stroke: #000000; stroke-width: 0.8"/>
      </g>
     </g>
     <g id="text_10">
      <!-- evens_long -->
      <g transform="translate(346.487159 382.294688) rotate(-90) scale(0.1 -0.1)">
       <use xlink:href="#DejaVuSans-65"/>
       <use xlink:href="#DejaVuSans-76" x="61.523438"/>
       <use xlink:href="#DejaVuSans-65" x="120.703125"/>
       <use xlink:href="#DejaVuSans-6e" x="182.226562"/>
       <use xlink:href="#DejaVuSans-73" x="245.605469"/>
       <use xlink:href="#DejaVuSans-5f" x="297.705078"/>
       <use xlink:href="#DejaVuSans-6c" x="347.705078"/>
       <use xlink:href="#DejaVuSans-6f" x="375.488281"/>
       <use xlink:href="#DejaVuSans-6e" x="436.669922"/>
       <use xlink:href="#DejaVuSans-67" x="500.048828"/>
      </g>
     </g>
    </g>
    <g id="xtick_11">
     <g id="line2d_11">
      <g>
       <use xlink:href="#md0541975f0" x="371.100409" y="318.94" style="stroke: #000000; stroke-width: 0.8"/>
      </g>
     </g>
     <g id="text_11">
      <!-- fc_forward -->
      <g transform="translate(373.720721 378.299375) rotate(-90) scale(0.1 -0.1)">
       <defs>
        <path id="DejaVuSans-77" d="M 269 3500 
L 844 3500 
L 1563 769 
L 2278 3500 
L 2956 3500 
L 3675 769 
L 4391 3500 
L 4966 3500 
L 4050 0 
L 3372 0 
L 2619 2869 
L 1863 0 
L 1184 0 
L 269 3500 
z
" transform="scale(0.015625)"/>
       </defs>
       <use xlink:href="#DejaVuSans-66"/>
       <use xlink:href="#DejaVuSans-63" x="35.205078"/>
       <use xlink:href="#DejaVuSans-5f" x="90.185547"/>
       <use xlink:href="#DejaVuSans-66" x="140.185547"/>
       <use xlink:href="#DejaVuSans-6f" x="175.390625"/>
       <use xlink:href="#DejaVuSans-72" x="236.572266"/>
       <use xlink:href="#DejaVuSans-77" x="277.685547"/>
       <use xlink:href="#DejaVuSans-61" x="359.472656"/>
       <use xlink:href="#DejaVuSans-72" x="420.751953"/>
       <use xlink:href="#DejaVuSans-64" x="460.115234"/>
      </g>
     </g>
    </g>
    <g id="xtick_12">
     <g id="line2d_12">
      <g>
       <use xlink:href="#md0541975f0" x="398.333971" y="318.94" style="stroke: #000000; stroke-width: 0.8"/>
      </g>
     </g>
     <g id="text_12">
      <!-- fib -->
      <g transform="translate(401.093346 338.586875) rotate(-90) scale(0.1 -0.1)">
       <use xlink:href="#DejaVuSans-66"/>
       <use xlink:href="#DejaVuSans-69" x="35.205078"/>
       <use xlink:href="#DejaVuSans-62" x="62.988281"/>
      </g>
     </g>
    </g>
    <g id="xtick_13">
     <g id="line2d_13">
      <g>
       <use xlink:href="#md0541975f0" x="425.567533" y="318.94" style="stroke: #000000; stroke-width: 0.8"/>
      </g>
     </g>
     <g id="text_13">
      <!-- fib_long -->
      <g transform="translate(428.187845 365.169688) rotate(-90) scale(0.1 -0.1)">
       <use xlink:href="#DejaVuSans-66"/>
       <use xlink:href="#DejaVuSans-69" x="35.205078"/>
       <use xlink:href="#DejaVuSans-62" x="62.988281"/>
       <use xlink:href="#DejaVuSans-5f" x="126.464844"/>
       <use xlink:href="#DejaVuSans-6c" x="176.464844"/>
       <use xlink:href="#DejaVuSans-6f" x="204.248047"/>
       <use xlink:href="#DejaVuSans-6e" x="265.429688"/>
       <use xlink:href="#DejaVuSans-67" x="328.808594"/>
      </g>
     </g>
    </g>
    <g id="xtick_14">
     <g id="line2d_14">
      <g>
       <use xlink:href="#md0541975f0" x="452.801095" y="318.94" style="stroke: #000000; stroke-width: 0.8"/>
      </g>
     </g>
     <g id="text_14">
      <!-- fib_rec -->
      <g transform="translate(455.421407 359.124375) rotate(-90) scale(0.1 -0.1)">
       <use xlink:href="#DejaVuSans-66"/>
       <use xlink:href="#DejaVuSans-69" x="35.205078"/>
       <use xlink:href="#DejaVuSans-62" x="62.988281"/>
       <use xlink:href="#DejaVuSans-5f" x="126.464844"/>
       <use xlink:href="#DejaVuSans-72" x="176.464844"/>
       <use xlink:href="#DejaVuSans-65" x="215.328125"/>
       <use xlink:href="#DejaVuSans-63" x="276.851562"/>
      </g>
     </g>
    </g>
    <g id="xtick_15">
     <g id="line2d_15">
      <g>
       <use xlink:href="#md0541975f0" x="480.034657" y="318.94" style="stroke: #000000; stroke-width: 0.8"/>
      </g>
     </g>
     <g id="text_15">
      <!-- graph -->
      <g transform="translate(482.794032 355.213437) rotate(-90) scale(0.1 -0.1)">
       <defs>
        <path id="DejaVuSans-68" d="M 3513 2113 
L 3513 0 
L 2938 0 
L 2938 2094 
Q 2938 2591 2744 2837 
Q 2550 3084 2163 3084 
Q 1697 3084 1428 2787 
Q 1159 2491 1159 1978 
L 1159 0 
L 581 0 
L 581 4863 
L 1159 4863 
L 1159 2956 
Q 1366 3272 1645 3428 
Q 1925 3584 2291 3584 
Q 2894 3584 3203 3211 
Q 3513 2838 3513 2113 
z
" transform="scale(0.015625)"/>
       </defs>
       <use xlink:href="#DejaVuSans-67"/>
       <use xlink:href="#DejaVuSans-72" x="63.476562"/>
       <use xlink:href="#DejaVuSans-61" x="104.589844"/>
       <use xlink:href="#DejaVuSans-70" x="165.869141"/>
       <use xlink:href="#DejaVuSans-68" x="229.345703"/>
      </g>
     </g>
    </g>
    <g id="xtick_16">
     <g id="line2d_16">
      <g>
       <use xlink:href="#md0541975f0" x="507.268219" y="318.94" style="stroke: #000000; stroke-width: 0.8"/>
      </g>
     </g>
     <g id="text_16">
      <!-- haha -->
      <g transform="translate(510.027594 350.87125) rotate(-90) scale(0.1 -0.1)">
       <use xlink:href="#DejaVuSans-68"/>
       <use xlink:href="#DejaVuSans-61" x="63.378906"/>
       <use xlink:href="#DejaVuSans-68" x="124.658203"/>
       <use xlink:href="#DejaVuSans-61" x="188.037109"/>
      </g>
     </g>
    </g>
    <g id="xtick_17">
     <g id="line2d_17">
      <g>
       <use xlink:href="#md0541975f0" x="534.501781" y="318.94" style="stroke: #000000; stroke-width: 0.8"/>
      </g>
     </g>
     <g id="text_17">
      <!-- halt -->
      <g transform="translate(537.261156 345.104062) rotate(-90) scale(0.1 -0.1)">
       <use xlink:href="#DejaVuSans-68"/>
       <use xlink:href="#DejaVuSans-61" x="63.378906"/>
       <use xlink:href="#DejaVuSans-6c" x="124.658203"/>
       <use xlink:href="#DejaVuSans-74" x="152.441406"/>
      </g>
     </g>
    </g>
    <g id="xtick_18">
     <g id="line2d_18">
      <g>
       <use xlink:href="#md0541975f0" x="561.735343" y="318.94" style="stroke: #000000; stroke-width: 0.8"/>
      </g>
     </g>
     <g id="text_18">
      <!-- insertion -->
      <g transform="translate(564.494718 369.68375) rotate(-90) scale(0.1 -0.1)">
       <use xlink:href="#DejaVuSans-69"/>
       <use xlink:href="#DejaVuSans-6e" x="27.783203"/>
       <use xlink:href="#DejaVuSans-73" x="91.162109"/>
       <use xlink:href="#DejaVuSans-65" x="143.261719"/>
       <use xlink:href="#DejaVuSans-72" x="204.785156"/>
       <use xlink:href="#DejaVuSans-74" x="245.898438"/>
       <use xlink:href="#DejaVuSans-69" x="285.107422"/>
       <use xlink:href="#DejaVuSans-6f" x="312.890625"/>
       <use xlink:href="#DejaVuSans-6e" x="374.072266"/>
      </g>
     </g>
    </g>
    <g id="xtick_19">
     <g id="line2d_19">
      <g>
       <use xlink:href="#md0541975f0" x="588.968905" y="318.94" style="stroke: #000000; stroke-width: 0.8"/>
      </g>
     </g>
     <g id="text_19">
      <!-- insertionsort -->
      <g transform="translate(591.72828 389.043125) rotate(-90) scale(0.1 -0.1)">
       <use xlink:href="#DejaVuSans-69"/>
       <use xlink:href="#DejaVuSans-6e" x="27.783203"/>
       <use xlink:href="#DejaVuSans-73" x="91.162109"/>
       <use xlink:href="#DejaVuSans-65" x="143.261719"/>
       <use xlink:href="#DejaVuSans-72" x="204.785156"/>
       <use xlink:href="#DejaVuSans-74" x="245.898438"/>
       <use xlink:href="#DejaVuSans-69" x="285.107422"/>
       <use xlink:href="#DejaVuSans-6f" x="312.890625"/>
       <use xlink:href="#DejaVuSans-6e" x="374.072266"/>
       <use xlink:href="#DejaVuSans-73" x="437.451172"/>
       <use xlink:href="#DejaVuSans-6f" x="489.550781"/>
       <use xlink:href="#DejaVuSans-72" x="550.732422"/>
       <use xlink:href="#DejaVuSans-74" x="591.845703"/>
      </g>
     </g>
    </g>
    <g id="xtick_20">
     <g id="line2d_20">
      <g>
       <use xlink:href="#md0541975f0" x="616.202467" y="318.94" style="stroke: #000000; stroke-width: 0.8"/>
      </g>
     </g>
     <g id="text_20">
      <!-- matrix_mult_rec -->
      <g transform="translate(618.82278 406.850937) rotate(-90) scale(0.1 -0.1)">
       <defs>
        <path id="DejaVuSans-75" d="M 544 1381 
L 544 3500 
L 1119 3500 
L 1119 1403 
Q 1119 906 1312 657 
Q 1506 409 1894 409 
Q 2359 409 2629 706 
Q 2900 1003 2900 1516 
L 2900 3500 
L 3475 3500 
L 3475 0 
L 2900 0 
L 2900 538 
Q 2691 219 2414 64 
Q 2138 -91 1772 -91 
Q 1169 -91 856 284 
Q 544 659 544 1381 
z
M 1991 3584 
L 1991 3584 
z
" transform="scale(0.015625)"/>
       </defs>
       <use xlink:href="#DejaVuSans-6d"/>
       <use xlink:href="#DejaVuSans-61" x="97.412109"/>
       <use xlink:href="#DejaVuSans-74" x="158.691406"/>
       <use xlink:href="#DejaVuSans-72" x="197.900391"/>
       <use xlink:href="#DejaVuSans-69" x="239.013672"/>
       <use xlink:href="#DejaVuSans-78" x="266.796875"/>
       <use xlink:href="#DejaVuSans-5f" x="325.976562"/>
       <use xlink:href="#DejaVuSans-6d" x="375.976562"/>
       <use xlink:href="#DejaVuSans-75" x="473.388672"/>
       <use xlink:href="#DejaVuSans-6c" x="536.767578"/>
       <use xlink:href="#DejaVuSans-74" x="564.550781"/>
       <use xlink:href="#DejaVuSans-5f" x="603.759766"/>
       <use xlink:href="#DejaVuSans-72" x="653.759766"/>
       <use xlink:href="#DejaVuSans-65" x="692.623047"/>
       <use xlink:href="#DejaVuSans-63" x="754.146484"/>
      </g>
     </g>
    </g>
    <g id="xtick_21">
     <g id="line2d_21">
      <g>
       <use xlink:href="#md0541975f0" x="643.436029" y="318.94" style="stroke: #000000; stroke-width: 0.8"/>
      </g>
     </g>
     <g id="text_21">
      <!-- mergesort -->
      <g transform="translate(646.195404 377.630625) rotate(-90) scale(0.1 -0.1)">
       <use xlink:href="#DejaVuSans-6d"/>
       <use xlink:href="#DejaVuSans-65" x="97.412109"/>
       <use xlink:href="#DejaVuSans-72" x="158.935547"/>
       <use xlink:href="#DejaVuSans-67" x="198.298828"/>
       <use xlink:href="#DejaVuSans-65" x="261.775391"/>
       <use xlink:href="#DejaVuSans-73" x="323.298828"/>
       <use xlink:href="#DejaVuSans-6f" x="375.398438"/>
       <use xlink:href="#DejaVuSans-72" x="436.580078"/>
       <use xlink:href="#DejaVuSans-74" x="477.693359"/>
      </g>
     </g>
    </g>
    <g id="xtick_22">
     <g id="line2d_22">
      <g>
       <use xlink:href="#md0541975f0" x="670.669591" y="318.94" style="stroke: #000000; stroke-width: 0.8"/>
      </g>
     </g>
     <g id="text_22">
      <!-- mult -->
      <g transform="translate(673.428966 348.716563) rotate(-90) scale(0.1 -0.1)">
       <use xlink:href="#DejaVuSans-6d"/>
       <use xlink:href="#DejaVuSans-75" x="97.412109"/>
       <use xlink:href="#DejaVuSans-6c" x="160.791016"/>
       <use xlink:href="#DejaVuSans-74" x="188.574219"/>
      </g>
     </g>
    </g>
    <g id="xtick_23">
     <g id="line2d_23">
      <g>
       <use xlink:href="#md0541975f0" x="697.903153" y="318.94" style="stroke: #000000; stroke-width: 0.8"/>
      </g>
     </g>
     <g id="text_23">
      <!-- mult_no_lsq -->
      <g transform="translate(700.523466 385.50875) rotate(-90) scale(0.1 -0.1)">
       <defs>
        <path id="DejaVuSans-71" d="M 947 1747 
Q 947 1113 1208 752 
Q 1469 391 1925 391 
Q 2381 391 2643 752 
Q 2906 1113 2906 1747 
Q 2906 2381 2643 2742 
Q 2381 3103 1925 3103 
Q 1469 3103 1208 2742 
Q 947 2381 947 1747 
z
M 2906 525 
Q 2725 213 2448 61 
Q 2172 -91 1784 -91 
Q 1150 -91 751 415 
Q 353 922 353 1747 
Q 353 2572 751 3078 
Q 1150 3584 1784 3584 
Q 2172 3584 2448 3432 
Q 2725 3281 2906 2969 
L 2906 3500 
L 3481 3500 
L 3481 -1331 
L 2906 -1331 
L 2906 525 
z
" transform="scale(0.015625)"/>
       </defs>
       <use xlink:href="#DejaVuSans-6d"/>
       <use xlink:href="#DejaVuSans-75" x="97.412109"/>
       <use xlink:href="#DejaVuSans-6c" x="160.791016"/>
       <use xlink:href="#DejaVuSans-74" x="188.574219"/>
       <use xlink:href="#DejaVuSans-5f" x="227.783203"/>
       <use xlink:href="#DejaVuSans-6e" x="277.783203"/>
       <use xlink:href="#DejaVuSans-6f" x="341.162109"/>
       <use xlink:href="#DejaVuSans-5f" x="402.34375"/>
       <use xlink:href="#DejaVuSans-6c" x="452.34375"/>
       <use xlink:href="#DejaVuSans-73" x="480.126953"/>
       <use xlink:href="#DejaVuSans-71" x="532.226562"/>
      </g>
     </g>
    </g>
    <g id="xtick_24">
     <g id="line2d_24">
      <g>
       <use xlink:href="#md0541975f0" x="725.136715" y="318.94" style="stroke: #000000; stroke-width: 0.8"/>
      </g>
     </g>
     <g id="text_24">
      <!-- no_hazard -->
      <g transform="translate(727.757028 377.522812) rotate(-90) scale(0.1 -0.1)">
       <defs>
        <path id="DejaVuSans-7a" d="M 353 3500 
L 3084 3500 
L 3084 2975 
L 922 459 
L 3084 459 
L 3084 0 
L 275 0 
L 275 525 
L 2438 3041 
L 353 3041 
L 353 3500 
z
" transform="scale(0.015625)"/>
       </defs>
       <use xlink:href="#DejaVuSans-6e"/>
       <use xlink:href="#DejaVuSans-6f" x="63.378906"/>
       <use xlink:href="#DejaVuSans-5f" x="124.560547"/>
       <use xlink:href="#DejaVuSans-68" x="174.560547"/>
       <use xlink:href="#DejaVuSans-61" x="237.939453"/>
       <use xlink:href="#DejaVuSans-7a" x="299.21875"/>
       <use xlink:href="#DejaVuSans-61" x="351.708984"/>
       <use xlink:href="#DejaVuSans-72" x="412.988281"/>
       <use xlink:href="#DejaVuSans-64" x="452.351562"/>
      </g>
     </g>
    </g>
    <g id="xtick_25">
     <g id="line2d_25">
      <g>
       <use xlink:href="#md0541975f0" x="752.370277" y="318.94" style="stroke: #000000; stroke-width: 0.8"/>
      </g>
     </g>
     <g id="text_25">
      <!-- omegalul -->
      <g transform="translate(755.129652 372.322812) rotate(-90) scale(0.1 -0.1)">
       <use xlink:href="#DejaVuSans-6f"/>
       <use xlink:href="#DejaVuSans-6d" x="61.181641"/>
       <use xlink:href="#DejaVuSans-65" x="158.59375"/>
       <use xlink:href="#DejaVuSans-67" x="220.117188"/>
       <use xlink:href="#DejaVuSans-61" x="283.59375"/>
       <use xlink:href="#DejaVuSans-6c" x="344.873047"/>
       <use xlink:href="#DejaVuSans-75" x="372.65625"/>
       <use xlink:href="#DejaVuSans-6c" x="436.035156"/>
      </g>
     </g>
    </g>
    <g id="xtick_26">
     <g id="line2d_26">
      <g>
       <use xlink:href="#md0541975f0" x="779.603839" y="318.94" style="stroke: #000000; stroke-width: 0.8"/>
      </g>
     </g>
     <g id="text_26">
      <!-- outer_product -->
      <g transform="translate(782.224152 396.038437) rotate(-90) scale(0.1 -0.1)">
       <use xlink:href="#DejaVuSans-6f"/>
       <use xlink:href="#DejaVuSans-75" x="61.181641"/>
       <use xlink:href="#DejaVuSans-74" x="124.560547"/>
       <use xlink:href="#DejaVuSans-65" x="163.769531"/>
       <use xlink:href="#DejaVuSans-72" x="225.292969"/>
       <use xlink:href="#DejaVuSans-5f" x="266.40625"/>
       <use xlink:href="#DejaVuSans-70" x="316.40625"/>
       <use xlink:href="#DejaVuSans-72" x="379.882812"/>
       <use xlink:href="#DejaVuSans-6f" x="418.746094"/>
       <use xlink:href="#DejaVuSans-64" x="479.927734"/>
       <use xlink:href="#DejaVuSans-75" x="543.404297"/>
       <use xlink:href="#DejaVuSans-63" x="606.783203"/>
       <use xlink:href="#DejaVuSans-74" x="661.763672"/>
      </g>
     </g>
    </g>
    <g id="xtick_27">
     <g id="line2d_27">
      <g>
       <use xlink:href="#md0541975f0" x="806.837401" y="318.94" style="stroke: #000000; stroke-width: 0.8"/>
      </g>
     </g>
     <g id="text_27">
      <!-- parallel -->
      <g transform="translate(809.596776 363.143125) rotate(-90) scale(0.1 -0.1)">
       <use xlink:href="#DejaVuSans-70"/>
       <use xlink:href="#DejaVuSans-61" x="63.476562"/>
       <use xlink:href="#DejaVuSans-72" x="124.755859"/>
       <use xlink:href="#DejaVuSans-61" x="165.869141"/>
       <use xlink:href="#DejaVuSans-6c" x="227.148438"/>
       <use xlink:href="#DejaVuSans-6c" x="254.931641"/>
       <use xlink:href="#DejaVuSans-65" x="282.714844"/>
       <use xlink:href="#DejaVuSans-6c" x="344.238281"/>
      </g>
     </g>
    </g>
    <g id="xtick_28">
     <g id="line2d_28">
      <g>
       <use xlink:href="#md0541975f0" x="834.070963" y="318.94" style="stroke: #000000; stroke-width: 0.8"/>
      </g>
     </g>
     <g id="text_28">
      <!-- priority_queue -->
      <g transform="translate(836.691276 398.354062) rotate(-90) scale(0.1 -0.1)">
       <use xlink:href="#DejaVuSans-70"/>
       <use xlink:href="#DejaVuSans-72" x="63.476562"/>
       <use xlink:href="#DejaVuSans-69" x="104.589844"/>
       <use xlink:href="#DejaVuSans-6f" x="132.373047"/>
       <use xlink:href="#DejaVuSans-72" x="193.554688"/>
       <use xlink:href="#DejaVuSans-69" x="234.667969"/>
       <use xlink:href="#DejaVuSans-74" x="262.451172"/>
       <use xlink:href="#DejaVuSans-79" x="301.660156"/>
       <use xlink:href="#DejaVuSans-5f" x="360.839844"/>
       <use xlink:href="#DejaVuSans-71" x="410.839844"/>
       <use xlink:href="#DejaVuSans-75" x="474.316406"/>
       <use xlink:href="#DejaVuSans-65" x="537.695312"/>
       <use xlink:href="#DejaVuSans-75" x="599.21875"/>
       <use xlink:href="#DejaVuSans-65" x="662.597656"/>
      </g>
     </g>
    </g>
    <g id="xtick_29">
     <g id="line2d_29">
      <g>
       <use xlink:href="#md0541975f0" x="861.304525" y="318.94" style="stroke: #000000; stroke-width: 0.8"/>
      </g>
     </g>
     <g id="text_29">
      <!-- quicksort -->
      <g transform="translate(864.0639 372.0525) rotate(-90) scale(0.1 -0.1)">
       <use xlink:href="#DejaVuSans-71"/>
       <use xlink:href="#DejaVuSans-75" x="63.476562"/>
       <use xlink:href="#DejaVuSans-69" x="126.855469"/>
       <use xlink:href="#DejaVuSans-63" x="154.638672"/>
       <use xlink:href="#DejaVuSans-6b" x="209.619141"/>
       <use xlink:href="#DejaVuSans-73" x="267.529297"/>
       <use xlink:href="#DejaVuSans-6f" x="319.628906"/>
       <use xlink:href="#DejaVuSans-72" x="380.810547"/>
       <use xlink:href="#DejaVuSans-74" x="421.923828"/>
      </g>
     </g>
    </g>
    <g id="xtick_30">
     <g id="line2d_30">
      <g>
       <use xlink:href="#md0541975f0" x="888.538087" y="318.94" style="stroke: #000000; stroke-width: 0.8"/>
      </g>
     </g>
     <g id="text_30">
      <!-- sampler -->
      <g transform="translate(891.297462 366.40875) rotate(-90) scale(0.1 -0.1)">
       <use xlink:href="#DejaVuSans-73"/>
       <use xlink:href="#DejaVuSans-61" x="52.099609"/>
       <use xlink:href="#DejaVuSans-6d" x="113.378906"/>
       <use xlink:href="#DejaVuSans-70" x="210.791016"/>
       <use xlink:href="#DejaVuSans-6c" x="274.267578"/>
       <use xlink:href="#DejaVuSans-65" x="302.050781"/>
       <use xlink:href="#DejaVuSans-72" x="363.574219"/>
      </g>
     </g>
    </g>
    <g id="xtick_31">
     <g id="line2d_31">
      <g>
       <use xlink:href="#md0541975f0" x="915.77165" y="318.94" style="stroke: #000000; stroke-width: 0.8"/>
      </g>
     </g>
     <g id="text_31">
      <!-- saxpy -->
      <g transform="translate(918.531025 355.463437) rotate(-90) scale(0.1 -0.1)">
       <use xlink:href="#DejaVuSans-73"/>
       <use xlink:href="#DejaVuSans-61" x="52.099609"/>
       <use xlink:href="#DejaVuSans-78" x="113.378906"/>
       <use xlink:href="#DejaVuSans-70" x="172.558594"/>
       <use xlink:href="#DejaVuSans-79" x="236.035156"/>
      </g>
     </g>
    </g>
    <g id="xtick_32">
     <g id="line2d_32">
      <g>
       <use xlink:href="#md0541975f0" x="943.005212" y="318.94" style="stroke: #000000; stroke-width: 0.8"/>
      </g>
     </g>
     <g id="text_32">
      <!-- sort_search -->
      <g transform="translate(945.625524 383.511875) rotate(-90) scale(0.1 -0.1)">
       <use xlink:href="#DejaVuSans-73"/>
       <use xlink:href="#DejaVuSans-6f" x="52.099609"/>
       <use xlink:href="#DejaVuSans-72" x="113.28125"/>
       <use xlink:href="#DejaVuSans-74" x="154.394531"/>
       <use xlink:href="#DejaVuSans-5f" x="193.603516"/>
       <use xlink:href="#DejaVuSans-73" x="243.603516"/>
       <use xlink:href="#DejaVuSans-65" x="295.703125"/>
       <use xlink:href="#DejaVuSans-61" x="357.226562"/>
       <use xlink:href="#DejaVuSans-72" x="418.505859"/>
       <use xlink:href="#DejaVuSans-63" x="457.369141"/>
       <use xlink:href="#DejaVuSans-68" x="512.349609"/>
      </g>
     </g>
    </g>
    <g id="text_33">
     <!-- Programs -->
     <g transform="translate(497.186562 418.449375) scale(0.1 -0.1)">
      <defs>
       <path id="DejaVuSans-50" d="M 1259 4147 
L 1259 2394 
L 2053 2394 
Q 2494 2394 2734 2622 
Q 2975 2850 2975 3272 
Q 2975 3691 2734 3919 
Q 2494 4147 2053 4147 
L 1259 4147 
z
M 628 4666 
L 2053 4666 
Q 2838 4666 3239 4311 
Q 3641 3956 3641 3272 
Q 3641 2581 3239 2228 
Q 2838 1875 2053 1875 
L 1259 1875 
L 1259 0 
L 628 0 
L 628 4666 
z
" transform="scale(0.015625)"/>
      </defs>
      <use xlink:href="#DejaVuSans-50"/>
      <use xlink:href="#DejaVuSans-72" x="58.552734"/>
      <use xlink:href="#DejaVuSans-6f" x="97.416016"/>
      <use xlink:href="#DejaVuSans-67" x="158.597656"/>
      <use xlink:href="#DejaVuSans-72" x="222.074219"/>
      <use xlink:href="#DejaVuSans-61" x="263.1875"/>
      <use xlink:href="#DejaVuSans-6d" x="324.466797"/>
      <use xlink:href="#DejaVuSans-73" x="421.878906"/>
     </g>
    </g>
   </g>
   <g id="matplotlib.axis_2">
    <g id="ytick_1">
     <g id="line2d_33">
      <defs>
       <path id="m907947c96e" d="M 0 0 
L -3.5 0 
" style="stroke: #000000; stroke-width: 0.8"/>
      </defs>
      <g>
       <use xlink:href="#m907947c96e" x="44.57" y="318.94" style="stroke: #000000; stroke-width: 0.8"/>
      </g>
     </g>
     <g id="text_34">
      <!-- 0 -->
      <g transform="translate(31.2075 322.739219) scale(0.1 -0.1)">
       <defs>
        <path id="DejaVuSans-30" d="M 2034 4250 
Q 1547 4250 1301 3770 
Q 1056 3291 1056 2328 
Q 1056 1369 1301 889 
Q 1547 409 2034 409 
Q 2525 409 2770 889 
Q 3016 1369 3016 2328 
Q 3016 3291 2770 3770 
Q 2525 4250 2034 4250 
z
M 2034 4750 
Q 2819 4750 3233 4129 
Q 3647 3509 3647 2328 
Q 3647 1150 3233 529 
Q 2819 -91 2034 -91 
Q 1250 -91 836 529 
Q 422 1150 422 2328 
Q 422 3509 836 4129 
Q 1250 4750 2034 4750 
z
" transform="scale(0.015625)"/>
       </defs>
       <use xlink:href="#DejaVuSans-30"/>
      </g>
     </g>
    </g>
    <g id="ytick_2">
     <g id="line2d_34">
      <g>
       <use xlink:href="#m907947c96e" x="44.57" y="269.635315" style="stroke: #000000; stroke-width: 0.8"/>
      </g>
     </g>
     <g id="text_35">
      <!-- 2 -->
      <g transform="translate(31.2075 273.434534) scale(0.1 -0.1)">
       <use xlink:href="#DejaVuSans-32"/>
      </g>
     </g>
    </g>
    <g id="ytick_3">
     <g id="line2d_35">
      <g>
       <use xlink:href="#m907947c96e" x="44.57" y="220.33063" style="stroke: #000000; stroke-width: 0.8"/>
      </g>
     </g>
     <g id="text_36">
      <!-- 4 -->
      <g transform="translate(31.2075 224.129849) scale(0.1 -0.1)">
       <defs>
        <path id="DejaVuSans-34" d="M 2419 4116 
L 825 1625 
L 2419 1625 
L 2419 4116 
z
M 2253 4666 
L 3047 4666 
L 3047 1625 
L 3713 1625 
L 3713 1100 
L 3047 1100 
L 3047 0 
L 2419 0 
L 2419 1100 
L 313 1100 
L 313 1709 
L 2253 4666 
z
" transform="scale(0.015625)"/>
       </defs>
       <use xlink:href="#DejaVuSans-34"/>
      </g>
     </g>
    </g>
    <g id="ytick_4">
     <g id="line2d_36">
      <g>
       <use xlink:href="#m907947c96e" x="44.57" y="171.025945" style="stroke: #000000; stroke-width: 0.8"/>
      </g>
     </g>
     <g id="text_37">
      <!-- 6 -->
      <g transform="translate(31.2075 174.825163) scale(0.1 -0.1)">
       <defs>
        <path id="DejaVuSans-36" d="M 2113 2584 
Q 1688 2584 1439 2293 
Q 1191 2003 1191 1497 
Q 1191 994 1439 701 
Q 1688 409 2113 409 
Q 2538 409 2786 701 
Q 3034 994 3034 1497 
Q 3034 2003 2786 2293 
Q 2538 2584 2113 2584 
z
M 3366 4563 
L 3366 3988 
Q 3128 4100 2886 4159 
Q 2644 4219 2406 4219 
Q 1781 4219 1451 3797 
Q 1122 3375 1075 2522 
Q 1259 2794 1537 2939 
Q 1816 3084 2150 3084 
Q 2853 3084 3261 2657 
Q 3669 2231 3669 1497 
Q 3669 778 3244 343 
Q 2819 -91 2113 -91 
Q 1303 -91 875 529 
Q 447 1150 447 2328 
Q 447 3434 972 4092 
Q 1497 4750 2381 4750 
Q 2619 4750 2861 4703 
Q 3103 4656 3366 4563 
z
" transform="scale(0.015625)"/>
       </defs>
       <use xlink:href="#DejaVuSans-36"/>
      </g>
     </g>
    </g>
    <g id="ytick_5">
     <g id="line2d_37">
      <g>
       <use xlink:href="#m907947c96e" x="44.57" y="121.72126" style="stroke: #000000; stroke-width: 0.8"/>
      </g>
     </g>
     <g id="text_38">
      <!-- 8 -->
      <g transform="translate(31.2075 125.520478) scale(0.1 -0.1)">
       <defs>
        <path id="DejaVuSans-38" d="M 2034 2216 
Q 1584 2216 1326 1975 
Q 1069 1734 1069 1313 
Q 1069 891 1326 650 
Q 1584 409 2034 409 
Q 2484 409 2743 651 
Q 3003 894 3003 1313 
Q 3003 1734 2745 1975 
Q 2488 2216 2034 2216 
z
M 1403 2484 
Q 997 2584 770 2862 
Q 544 3141 544 3541 
Q 544 4100 942 4425 
Q 1341 4750 2034 4750 
Q 2731 4750 3128 4425 
Q 3525 4100 3525 3541 
Q 3525 3141 3298 2862 
Q 3072 2584 2669 2484 
Q 3125 2378 3379 2068 
Q 3634 1759 3634 1313 
Q 3634 634 3220 271 
Q 2806 -91 2034 -91 
Q 1263 -91 848 271 
Q 434 634 434 1313 
Q 434 1759 690 2068 
Q 947 2378 1403 2484 
z
M 1172 3481 
Q 1172 3119 1398 2916 
Q 1625 2713 2034 2713 
Q 2441 2713 2670 2916 
Q 2900 3119 2900 3481 
Q 2900 3844 2670 4047 
Q 2441 4250 2034 4250 
Q 1625 4250 1398 4047 
Q 1172 3844 1172 3481 
z
" transform="scale(0.015625)"/>
       </defs>
       <use xlink:href="#DejaVuSans-38"/>
      </g>
     </g>
    </g>
    <g id="ytick_6">
     <g id="line2d_38">
      <g>
       <use xlink:href="#m907947c96e" x="44.57" y="72.416575" style="stroke: #000000; stroke-width: 0.8"/>
      </g>
     </g>
     <g id="text_39">
      <!-- 10 -->
      <g transform="translate(24.845 76.215793) scale(0.1 -0.1)">
       <use xlink:href="#DejaVuSans-31"/>
       <use xlink:href="#DejaVuSans-30" x="63.623047"/>
      </g>
     </g>
    </g>
    <g id="text_40">
     <!-- CPI -->
     <g transform="translate(18.765312 180.89125) rotate(-90) scale(0.1 -0.1)">
      <defs>
       <path id="DejaVuSans-43" d="M 4122 4306 
L 4122 3641 
Q 3803 3938 3442 4084 
Q 3081 4231 2675 4231 
Q 1875 4231 1450 3742 
Q 1025 3253 1025 2328 
Q 1025 1406 1450 917 
Q 1875 428 2675 428 
Q 3081 428 3442 575 
Q 3803 722 4122 1019 
L 4122 359 
Q 3791 134 3420 21 
Q 3050 -91 2638 -91 
Q 1578 -91 968 557 
Q 359 1206 359 2328 
Q 359 3453 968 4101 
Q 1578 4750 2638 4750 
Q 3056 4750 3426 4639 
Q 3797 4528 4122 4306 
z
" transform="scale(0.015625)"/>
       <path id="DejaVuSans-49" d="M 628 4666 
L 1259 4666 
L 1259 0 
L 628 0 
L 628 4666 
z
" transform="scale(0.015625)"/>
      </defs>
      <use xlink:href="#DejaVuSans-43"/>
      <use xlink:href="#DejaVuSans-50" x="69.824219"/>
      <use xlink:href="#DejaVuSans-49" x="130.126953"/>
     </g>
    </g>
   </g>
   <g id="patch_35">
    <path d="M 44.57 318.94 
L 44.57 26.88 
" style="fill: none; stroke: #000000; stroke-width: 0.8; stroke-linejoin: miter; stroke-linecap: square"/>
   </g>
   <g id="patch_36">
    <path d="M 997.2 318.94 
L 997.2 26.88 
" style="fill: none; stroke: #000000; stroke-width: 0.8; stroke-linejoin: miter; stroke-linecap: square"/>
   </g>
   <g id="patch_37">
    <path d="M 44.57 318.94 
L 997.2 318.94 
" style="fill: none; stroke: #000000; stroke-width: 0.8; stroke-linejoin: miter; stroke-linecap: square"/>
   </g>
   <g id="patch_38">
    <path d="M 44.57 26.88 
L 997.2 26.88 
" style="fill: none; stroke: #000000; stroke-width: 0.8; stroke-linejoin: miter; stroke-linecap: square"/>
   </g>
   <g id="text_41">
    <!-- CPI of Various Programs on a P6-Style Processor -->
    <g transform="translate(376.97125 20.88) scale(0.12 -0.12)">
     <defs>
      <path id="DejaVuSans-20" transform="scale(0.015625)"/>
      <path id="DejaVuSans-56" d="M 1831 0 
L 50 4666 
L 709 4666 
L 2188 738 
L 3669 4666 
L 4325 4666 
L 2547 0 
L 1831 0 
z
" transform="scale(0.015625)"/>
      <path id="DejaVuSans-2d" d="M 313 2009 
L 1997 2009 
L 1997 1497 
L 313 1497 
L 313 2009 
z
" transform="scale(0.015625)"/>
      <path id="DejaVuSans-53" d="M 3425 4513 
L 3425 3897 
Q 3066 4069 2747 4153 
Q 2428 4238 2131 4238 
Q 1616 4238 1336 4038 
Q 1056 3838 1056 3469 
Q 1056 3159 1242 3001 
Q 1428 2844 1947 2747 
L 2328 2669 
Q 3034 2534 3370 2195 
Q 3706 1856 3706 1288 
Q 3706 609 3251 259 
Q 2797 -91 1919 -91 
Q 1588 -91 1214 -16 
Q 841 59 441 206 
L 441 856 
Q 825 641 1194 531 
Q 1563 422 1919 422 
Q 2459 422 2753 634 
Q 3047 847 3047 1241 
Q 3047 1584 2836 1778 
Q 2625 1972 2144 2069 
L 1759 2144 
Q 1053 2284 737 2584 
Q 422 2884 422 3419 
Q 422 4038 858 4394 
Q 1294 4750 2059 4750 
Q 2388 4750 2728 4690 
Q 3069 4631 3425 4513 
z
" transform="scale(0.015625)"/>
     </defs>
     <use xlink:href="#DejaVuSans-43"/>
     <use xlink:href="#DejaVuSans-50" x="69.824219"/>
     <use xlink:href="#DejaVuSans-49" x="130.126953"/>
     <use xlink:href="#DejaVuSans-20" x="159.619141"/>
     <use xlink:href="#DejaVuSans-6f" x="191.40625"/>
     <use xlink:href="#DejaVuSans-66" x="252.587891"/>
     <use xlink:href="#DejaVuSans-20" x="287.792969"/>
     <use xlink:href="#DejaVuSans-56" x="319.580078"/>
     <use xlink:href="#DejaVuSans-61" x="380.238281"/>
     <use xlink:href="#DejaVuSans-72" x="441.517578"/>
     <use xlink:href="#DejaVuSans-69" x="482.630859"/>
     <use xlink:href="#DejaVuSans-6f" x="510.414062"/>
     <use xlink:href="#DejaVuSans-75" x="571.595703"/>
     <use xlink:href="#DejaVuSans-73" x="634.974609"/>
     <use xlink:href="#DejaVuSans-20" x="687.074219"/>
     <use xlink:href="#DejaVuSans-50" x="718.861328"/>
     <use xlink:href="#DejaVuSans-72" x="777.414062"/>
     <use xlink:href="#DejaVuSans-6f" x="816.277344"/>
     <use xlink:href="#DejaVuSans-67" x="877.458984"/>
     <use xlink:href="#DejaVuSans-72" x="940.935547"/>
     <use xlink:href="#DejaVuSans-61" x="982.048828"/>
     <use xlink:href="#DejaVuSans-6d" x="1043.328125"/>
     <use xlink:href="#DejaVuSans-73" x="1140.740234"/>
     <use xlink:href="#DejaVuSans-20" x="1192.839844"/>
     <use xlink:href="#DejaVuSans-6f" x="1224.626953"/>
     <use xlink:href="#DejaVuSans-6e" x="1285.808594"/>
     <use xlink:href="#DejaVuSans-20" x="1349.1875"/>
     <use xlink:href="#DejaVuSans-61" x="1380.974609"/>
     <use xlink:href="#DejaVuSans-20" x="1442.253906"/>
     <use xlink:href="#DejaVuSans-50" x="1474.041016"/>
     <use xlink:href="#DejaVuSans-36" x="1534.34375"/>
     <use xlink:href="#DejaVuSans-2d" x="1597.966797"/>
     <use xlink:href="#DejaVuSans-53" x="1634.050781"/>
     <use xlink:href="#DejaVuSans-74" x="1697.527344"/>
     <use xlink:href="#DejaVuSans-79" x="1736.736328"/>
     <use xlink:href="#DejaVuSans-6c" x="1795.916016"/>
     <use xlink:href="#DejaVuSans-65" x="1823.699219"/>
     <use xlink:href="#DejaVuSans-20" x="1885.222656"/>
     <use xlink:href="#DejaVuSans-50" x="1917.009766"/>
     <use xlink:href="#DejaVuSans-72" x="1975.5625"/>
     <use xlink:href="#DejaVuSans-6f" x="2014.425781"/>
     <use xlink:href="#DejaVuSans-63" x="2075.607422"/>
     <use xlink:href="#DejaVuSans-65" x="2130.587891"/>
     <use xlink:href="#DejaVuSans-73" x="2192.111328"/>
     <use xlink:href="#DejaVuSans-73" x="2244.210938"/>
     <use xlink:href="#DejaVuSans-6f" x="2296.310547"/>
     <use xlink:href="#DejaVuSans-72" x="2357.492188"/>
    </g>
   </g>
  </g>
 </g>
 <defs>
  <clipPath id="pe0dbb2f1a0">
   <rect x="44.57" y="26.88" width="952.63" height="292.06"/>
  </clipPath>
 </defs>
</svg>
