<?xml version="1.0" encoding="utf-8" standalone="no"?>
<!DOCTYPE svg PUBLIC "-//W3C//DTD SVG 1.1//EN"
  "http://www.w3.org/Graphics/SVG/1.1/DTD/svg11.dtd">
<svg xmlns:xlink="http://www.w3.org/1999/xlink" width="1296pt" height="432pt" viewBox="0 0 1296 432" xmlns="http://www.w3.org/2000/svg" version="1.1">
 <metadata>
  <rdf:RDF xmlns:dc="http://purl.org/dc/elements/1.1/" xmlns:cc="http://creativecommons.org/ns#" xmlns:rdf="http://www.w3.org/1999/02/22-rdf-syntax-ns#">
   <cc:Work>
    <dc:type rdf:resource="http://purl.org/dc/dcmitype/StillImage"/>
    <dc:date>2025-05-04T20:23:17.978802</dc:date>
    <dc:format>image/svg+xml</dc:format>
    <dc:creator>
     <cc:Agent>
      <dc:title>Matplotlib v3.9.4, https://matplotlib.org/</dc:title>
     </cc:Agent>
    </dc:creator>
   </cc:Work>
  </rdf:RDF>
 </metadata>
 <defs>
  <style type="text/css">*{stroke-linejoin: round; stroke-linecap: butt}</style>
 </defs>
 <g id="figure_1">
  <g id="patch_1">
   <path d="M 0 432 
L 1296 432 
L 1296 0 
L 0 0 
z
" style="fill: #ffffff"/>
  </g>
  <g id="axes_1">
   <g id="patch_2">
    <path d="M 44.57 338.805433 
L 1285.2 338.805433 
L 1285.2 26.88 
L 44.57 26.88 
z
" style="fill: #ffffff"/>
   </g>
   <g id="patch_3">
    <path d="M 100.962273 338.805433 
L 114.253381 338.805433 
L 114.253381 158.440387 
L 100.962273 158.440387 
z
" clip-path="url(#p7cd5675817)" style="fill: #1f77b4"/>
   </g>
   <g id="patch_4">
    <path d="M 138.936867 338.805433 
L 152.227975 338.805433 
L 152.227975 84.172426 
L 138.936867 84.172426 
z
" clip-path="url(#p7cd5675817)" style="fill: #1f77b4"/>
   </g>
   <g id="patch_5">
    <path d="M 176.911462 338.805433 
L 190.20257 338.805433 
L 190.20257 84.172426 
L 176.911462 84.172426 
z
" clip-path="url(#p7cd5675817)" style="fill: #1f77b4"/>
   </g>
   <g id="patch_6">
    <path d="M 214.886056 338.805433 
L 228.177164 338.805433 
L 228.177164 285.75689 
L 214.886056 285.75689 
z
" clip-path="url(#p7cd5675817)" style="fill: #1f77b4"/>
   </g>
   <g id="patch_7">
    <path d="M 252.86065 338.805433 
L 266.151758 338.805433 
L 266.151758 291.061744 
L 252.86065 291.061744 
z
" clip-path="url(#p7cd5675817)" style="fill: #1f77b4"/>
   </g>
   <g id="patch_8">
    <path d="M 290.835245 338.805433 
L 304.126353 338.805433 
L 304.126353 275.147181 
L 290.835245 275.147181 
z
" clip-path="url(#p7cd5675817)" style="fill: #1f77b4"/>
   </g>
   <g id="patch_9">
    <path d="M 328.809839 338.805433 
L 342.100947 338.805433 
L 342.100947 280.452035 
L 328.809839 280.452035 
z
" clip-path="url(#p7cd5675817)" style="fill: #1f77b4"/>
   </g>
   <g id="patch_10">
    <path d="M 366.784434 338.805433 
L 380.075542 338.805433 
L 380.075542 269.842327 
L 366.784434 269.842327 
z
" clip-path="url(#p7cd5675817)" style="fill: #1f77b4"/>
   </g>
   <g id="patch_11">
    <path d="M 404.759028 338.805433 
L 418.050136 338.805433 
L 418.050136 285.75689 
L 404.759028 285.75689 
z
" clip-path="url(#p7cd5675817)" style="fill: #1f77b4"/>
   </g>
   <g id="patch_12">
    <path d="M 442.733623 338.805433 
L 456.024731 338.805433 
L 456.024731 243.318055 
L 442.733623 243.318055 
z
" clip-path="url(#p7cd5675817)" style="fill: #1f77b4"/>
   </g>
   <g id="patch_13">
    <path d="M 480.708217 338.805433 
L 493.999325 338.805433 
L 493.999325 216.793784 
L 480.708217 216.793784 
z
" clip-path="url(#p7cd5675817)" style="fill: #1f77b4"/>
   </g>
   <g id="patch_14">
    <path d="M 518.682811 338.805433 
L 531.973919 338.805433 
L 531.973919 259.232618 
L 518.682811 259.232618 
z
" clip-path="url(#p7cd5675817)" style="fill: #1f77b4"/>
   </g>
   <g id="patch_15">
    <path d="M 556.657406 338.805433 
L 569.948514 338.805433 
L 569.948514 232.708347 
L 556.657406 232.708347 
z
" clip-path="url(#p7cd5675817)" style="fill: #1f77b4"/>
   </g>
   <g id="patch_16">
    <path d="M 594.632 338.805433 
L 607.923108 338.805433 
L 607.923108 169.050095 
L 594.632 169.050095 
z
" clip-path="url(#p7cd5675817)" style="fill: #1f77b4"/>
   </g>
   <g id="patch_17">
    <path d="M 632.606595 338.805433 
L 645.897703 338.805433 
L 645.897703 253.927764 
L 632.606595 253.927764 
z
" clip-path="url(#p7cd5675817)" style="fill: #1f77b4"/>
   </g>
   <g id="patch_18">
    <path d="M 670.581189 338.805433 
L 683.872297 338.805433 
L 683.872297 222.098638 
L 670.581189 222.098638 
z
" clip-path="url(#p7cd5675817)" style="fill: #1f77b4"/>
   </g>
   <g id="patch_19">
    <path d="M 708.555784 338.805433 
L 721.846892 338.805433 
L 721.846892 190.269512 
L 708.555784 190.269512 
z
" clip-path="url(#p7cd5675817)" style="fill: #1f77b4"/>
   </g>
   <g id="patch_20">
    <path d="M 746.530378 338.805433 
L 759.821486 338.805433 
L 759.821486 153.135532 
L 746.530378 153.135532 
z
" clip-path="url(#p7cd5675817)" style="fill: #1f77b4"/>
   </g>
   <g id="patch_21">
    <path d="M 784.504972 338.805433 
L 797.796081 338.805433 
L 797.796081 142.525824 
L 784.504972 142.525824 
z
" clip-path="url(#p7cd5675817)" style="fill: #1f77b4"/>
   </g>
   <g id="patch_22">
    <path d="M 822.479567 338.805433 
L 835.770675 338.805433 
L 835.770675 200.879221 
L 822.479567 200.879221 
z
" clip-path="url(#p7cd5675817)" style="fill: #1f77b4"/>
   </g>
   <g id="patch_23">
    <path d="M 860.454161 338.805433 
L 873.745269 338.805433 
L 873.745269 206.184075 
L 860.454161 206.184075 
z
" clip-path="url(#p7cd5675817)" style="fill: #1f77b4"/>
   </g>
   <g id="patch_24">
    <path d="M 898.428756 338.805433 
L 911.719864 338.805433 
L 911.719864 179.659804 
L 898.428756 179.659804 
z
" clip-path="url(#p7cd5675817)" style="fill: #1f77b4"/>
   </g>
   <g id="patch_25">
    <path d="M 936.40335 338.805433 
L 949.694458 338.805433 
L 949.694458 169.050095 
L 936.40335 169.050095 
z
" clip-path="url(#p7cd5675817)" style="fill: #1f77b4"/>
   </g>
   <g id="patch_26">
    <path d="M 974.377945 338.805433 
L 987.669053 338.805433 
L 987.669053 179.659804 
L 974.377945 179.659804 
z
" clip-path="url(#p7cd5675817)" style="fill: #1f77b4"/>
   </g>
   <g id="patch_27">
    <path d="M 1012.352539 338.805433 
L 1025.643647 338.805433 
L 1025.643647 190.269512 
L 1012.352539 190.269512 
z
" clip-path="url(#p7cd5675817)" style="fill: #1f77b4"/>
   </g>
   <g id="patch_28">
    <path d="M 1050.327133 338.805433 
L 1063.618242 338.805433 
L 1063.618242 253.927764 
L 1050.327133 253.927764 
z
" clip-path="url(#p7cd5675817)" style="fill: #1f77b4"/>
   </g>
   <g id="patch_29">
    <path d="M 1088.301728 338.805433 
L 1101.592836 338.805433 
L 1101.592836 232.708347 
L 1088.301728 232.708347 
z
" clip-path="url(#p7cd5675817)" style="fill: #1f77b4"/>
   </g>
   <g id="patch_30">
    <path d="M 1126.276322 338.805433 
L 1139.56743 338.805433 
L 1139.56743 200.879221 
L 1126.276322 200.879221 
z
" clip-path="url(#p7cd5675817)" style="fill: #1f77b4"/>
   </g>
   <g id="patch_31">
    <path d="M 1164.250917 338.805433 
L 1177.542025 338.805433 
L 1177.542025 126.611261 
L 1164.250917 126.611261 
z
" clip-path="url(#p7cd5675817)" style="fill: #1f77b4"/>
   </g>
   <g id="patch_32">
    <path d="M 1202.225511 338.805433 
L 1215.516619 338.805433 
L 1215.516619 211.48893 
L 1202.225511 211.48893 
z
" clip-path="url(#p7cd5675817)" style="fill: #1f77b4"/>
   </g>
   <g id="patch_33">
    <path d="M 114.253381 338.805433 
L 127.544489 338.805433 
L 127.544489 153.029435 
L 114.253381 153.029435 
z
" clip-path="url(#p7cd5675817)" style="fill: #ff7f0e"/>
   </g>
   <g id="patch_34">
    <path d="M 152.227975 338.805433 
L 165.519083 338.805433 
L 165.519083 84.172426 
L 152.227975 84.172426 
z
" clip-path="url(#p7cd5675817)" style="fill: #ff7f0e"/>
   </g>
   <g id="patch_35">
    <path d="M 190.20257 338.805433 
L 203.493678 338.805433 
L 203.493678 56.162796 
L 190.20257 56.162796 
z
" clip-path="url(#p7cd5675817)" style="fill: #ff7f0e"/>
   </g>
   <g id="patch_36">
    <path d="M 228.177164 338.805433 
L 241.468272 338.805433 
L 241.468272 275.147181 
L 228.177164 275.147181 
z
" clip-path="url(#p7cd5675817)" style="fill: #ff7f0e"/>
   </g>
   <g id="patch_37">
    <path d="M 266.151758 338.805433 
L 279.442867 338.805433 
L 279.442867 283.900191 
L 266.151758 283.900191 
z
" clip-path="url(#p7cd5675817)" style="fill: #ff7f0e"/>
   </g>
   <g id="patch_38">
    <path d="M 304.126353 338.805433 
L 317.417461 338.805433 
L 317.417461 268.781356 
L 304.126353 268.781356 
z
" clip-path="url(#p7cd5675817)" style="fill: #ff7f0e"/>
   </g>
   <g id="patch_39">
    <path d="M 342.100947 338.805433 
L 355.392055 338.805433 
L 355.392055 274.616696 
L 342.100947 274.616696 
z
" clip-path="url(#p7cd5675817)" style="fill: #ff7f0e"/>
   </g>
   <g id="patch_40">
    <path d="M 380.075542 338.805433 
L 393.36665 338.805433 
L 393.36665 257.428968 
L 380.075542 257.428968 
z
" clip-path="url(#p7cd5675817)" style="fill: #ff7f0e"/>
   </g>
   <g id="patch_41">
    <path d="M 418.050136 338.805433 
L 431.341244 338.805433 
L 431.341244 280.452035 
L 418.050136 280.452035 
z
" clip-path="url(#p7cd5675817)" style="fill: #ff7f0e"/>
   </g>
   <g id="patch_42">
    <path d="M 456.024731 338.805433 
L 469.315839 338.805433 
L 469.315839 195.574367 
L 456.024731 195.574367 
z
" clip-path="url(#p7cd5675817)" style="fill: #ff7f0e"/>
   </g>
   <g id="patch_43">
    <path d="M 493.999325 338.805433 
L 507.290433 338.805433 
L 507.290433 180.190289 
L 493.999325 180.190289 
z
" clip-path="url(#p7cd5675817)" style="fill: #ff7f0e"/>
   </g>
   <g id="patch_44">
    <path d="M 531.973919 338.805433 
L 545.265028 338.805433 
L 545.265028 211.48893 
L 531.973919 211.48893 
z
" clip-path="url(#p7cd5675817)" style="fill: #ff7f0e"/>
   </g>
   <g id="patch_45">
    <path d="M 569.948514 338.805433 
L 583.239622 338.805433 
L 583.239622 211.48893 
L 569.948514 211.48893 
z
" clip-path="url(#p7cd5675817)" style="fill: #ff7f0e"/>
   </g>
   <g id="patch_46">
    <path d="M 607.923108 338.805433 
L 621.214216 338.805433 
L 621.214216 138.494134 
L 607.923108 138.494134 
z
" clip-path="url(#p7cd5675817)" style="fill: #ff7f0e"/>
   </g>
   <g id="patch_47">
    <path d="M 645.897703 338.805433 
L 659.188811 338.805433 
L 659.188811 211.48893 
L 645.897703 211.48893 
z
" clip-path="url(#p7cd5675817)" style="fill: #ff7f0e"/>
   </g>
   <g id="patch_48">
    <path d="M 683.872297 338.805433 
L 697.163405 338.805433 
L 697.163405 204.592619 
L 683.872297 204.592619 
z
" clip-path="url(#p7cd5675817)" style="fill: #ff7f0e"/>
   </g>
   <g id="patch_49">
    <path d="M 721.846892 338.805433 
L 735.138 338.805433 
L 735.138 175.41592 
L 721.846892 175.41592 
z
" clip-path="url(#p7cd5675817)" style="fill: #ff7f0e"/>
   </g>
   <g id="patch_50">
    <path d="M 759.821486 338.805433 
L 773.112594 338.805433 
L 773.112594 127.141746 
L 759.821486 127.141746 
z
" clip-path="url(#p7cd5675817)" style="fill: #ff7f0e"/>
   </g>
   <g id="patch_51">
    <path d="M 797.796081 338.805433 
L 811.087189 338.805433 
L 811.087189 122.897863 
L 797.796081 122.897863 
z
" clip-path="url(#p7cd5675817)" style="fill: #ff7f0e"/>
   </g>
   <g id="patch_52">
    <path d="M 835.770675 338.805433 
L 849.061783 338.805433 
L 849.061783 145.708736 
L 835.770675 145.708736 
z
" clip-path="url(#p7cd5675817)" style="fill: #ff7f0e"/>
   </g>
   <g id="patch_53">
    <path d="M 873.745269 338.805433 
L 887.036377 338.805433 
L 887.036377 179.659804 
L 873.745269 179.659804 
z
" clip-path="url(#p7cd5675817)" style="fill: #ff7f0e"/>
   </g>
   <g id="patch_54">
    <path d="M 911.719864 338.805433 
L 925.010972 338.805433 
L 925.010972 116.001552 
L 911.719864 116.001552 
z
" clip-path="url(#p7cd5675817)" style="fill: #ff7f0e"/>
   </g>
   <g id="patch_55">
    <path d="M 949.694458 338.805433 
L 962.985566 338.805433 
L 962.985566 152.074561 
L 949.694458 152.074561 
z
" clip-path="url(#p7cd5675817)" style="fill: #ff7f0e"/>
   </g>
   <g id="patch_56">
    <path d="M 987.669053 338.805433 
L 1000.960161 338.805433 
L 1000.960161 92.129708 
L 987.669053 92.129708 
z
" clip-path="url(#p7cd5675817)" style="fill: #ff7f0e"/>
   </g>
   <g id="patch_57">
    <path d="M 1025.643647 338.805433 
L 1038.934755 338.805433 
L 1038.934755 41.733592 
L 1025.643647 41.733592 
z
" clip-path="url(#p7cd5675817)" style="fill: #ff7f0e"/>
   </g>
   <g id="patch_58">
    <path d="M 1063.618242 338.805433 
L 1076.90935 338.805433 
L 1076.90935 232.708347 
L 1063.618242 232.708347 
z
" clip-path="url(#p7cd5675817)" style="fill: #ff7f0e"/>
   </g>
   <g id="patch_59">
    <path d="M 1101.592836 338.805433 
L 1114.883944 338.805433 
L 1114.883944 195.574367 
L 1101.592836 195.574367 
z
" clip-path="url(#p7cd5675817)" style="fill: #ff7f0e"/>
   </g>
   <g id="patch_60">
    <path d="M 1139.56743 338.805433 
L 1152.858538 338.805433 
L 1152.858538 173.293979 
L 1139.56743 173.293979 
z
" clip-path="url(#p7cd5675817)" style="fill: #ff7f0e"/>
   </g>
   <g id="patch_61">
    <path d="M 1177.542025 338.805433 
L 1190.833133 338.805433 
L 1190.833133 126.611261 
L 1177.542025 126.611261 
z
" clip-path="url(#p7cd5675817)" style="fill: #ff7f0e"/>
   </g>
   <g id="patch_62">
    <path d="M 1215.516619 338.805433 
L 1228.807727 338.805433 
L 1228.807727 179.659804 
L 1215.516619 179.659804 
z
" clip-path="url(#p7cd5675817)" style="fill: #ff7f0e"/>
   </g>
   <g id="matplotlib.axis_1">
    <g id="xtick_1">
     <g id="line2d_1">
      <defs>
       <path id="m1eb511a6dc" d="M 0 0 
L 0 3.5 
" style="stroke: #000000; stroke-width: 0.8"/>
      </defs>
      <g>
       <use xlink:href="#m1eb511a6dc" x="114.253381" y="338.805433" style="stroke: #000000; stroke-width: 0.8"/>
      </g>
     </g>
     <g id="text_1">
      <!-- haha -->
      <g transform="translate(99.986694 371.195747) rotate(-60) scale(0.1 -0.1)">
       <defs>
        <path id="DejaVuSans-68" d="M 3513 2113 
L 3513 0 
L 2938 0 
L 2938 2094 
Q 2938 2591 2744 2837 
Q 2550 3084 2163 3084 
Q 1697 3084 1428 2787 
Q 1159 2491 1159 1978 
L 1159 0 
L 581 0 
L 581 4863 
L 1159 4863 
L 1159 2956 
Q 1366 3272 1645 3428 
Q 1925 3584 2291 3584 
Q 2894 3584 3203 3211 
Q 3513 2838 3513 2113 
z
" transform="scale(0.015625)"/>
        <path id="DejaVuSans-61" d="M 2194 1759 
Q 1497 1759 1228 1600 
Q 959 1441 959 1056 
Q 959 750 1161 570 
Q 1363 391 1709 391 
Q 2188 391 2477 730 
Q 2766 1069 2766 1631 
L 2766 1759 
L 2194 1759 
z
M 3341 1997 
L 3341 0 
L 2766 0 
L 2766 531 
Q 2569 213 2275 61 
Q 1981 -91 1556 -91 
Q 1019 -91 701 211 
Q 384 513 384 1019 
Q 384 1609 779 1909 
Q 1175 2209 1959 2209 
L 2766 2209 
L 2766 2266 
Q 2766 2663 2505 2880 
Q 2244 3097 1772 3097 
Q 1472 3097 1187 3025 
Q 903 2953 641 2809 
L 641 3341 
Q 956 3463 1253 3523 
Q 1550 3584 1831 3584 
Q 2591 3584 2966 3190 
Q 3341 2797 3341 1997 
z
" transform="scale(0.015625)"/>
       </defs>
       <use xlink:href="#DejaVuSans-68"/>
       <use xlink:href="#DejaVuSans-61" x="63.378906"/>
       <use xlink:href="#DejaVuSans-68" x="124.658203"/>
       <use xlink:href="#DejaVuSans-61" x="188.037109"/>
      </g>
     </g>
    </g>
    <g id="xtick_2">
     <g id="line2d_2">
      <g>
       <use xlink:href="#m1eb511a6dc" x="152.227975" y="338.805433" style="stroke: #000000; stroke-width: 0.8"/>
      </g>
     </g>
     <g id="text_2">
      <!-- btest1 -->
      <g transform="translate(134.469882 377.24304) rotate(-60) scale(0.1 -0.1)">
       <defs>
        <path id="DejaVuSans-62" d="M 3116 1747 
Q 3116 2381 2855 2742 
Q 2594 3103 2138 3103 
Q 1681 3103 1420 2742 
Q 1159 2381 1159 1747 
Q 1159 1113 1420 752 
Q 1681 391 2138 391 
Q 2594 391 2855 752 
Q 3116 1113 3116 1747 
z
M 1159 2969 
Q 1341 3281 1617 3432 
Q 1894 3584 2278 3584 
Q 2916 3584 3314 3078 
Q 3713 2572 3713 1747 
Q 3713 922 3314 415 
Q 2916 -91 2278 -91 
Q 1894 -91 1617 61 
Q 1341 213 1159 525 
L 1159 0 
L 581 0 
L 581 4863 
L 1159 4863 
L 1159 2969 
z
" transform="scale(0.015625)"/>
        <path id="DejaVuSans-74" d="M 1172 4494 
L 1172 3500 
L 2356 3500 
L 2356 3053 
L 1172 3053 
L 1172 1153 
Q 1172 725 1289 603 
Q 1406 481 1766 481 
L 2356 481 
L 2356 0 
L 1766 0 
Q 1100 0 847 248 
Q 594 497 594 1153 
L 594 3053 
L 172 3053 
L 172 3500 
L 594 3500 
L 594 4494 
L 1172 4494 
z
" transform="scale(0.015625)"/>
        <path id="DejaVuSans-65" d="M 3597 1894 
L 3597 1613 
L 953 1613 
Q 991 1019 1311 708 
Q 1631 397 2203 397 
Q 2534 397 2845 478 
Q 3156 559 3463 722 
L 3463 178 
Q 3153 47 2828 -22 
Q 2503 -91 2169 -91 
Q 1331 -91 842 396 
Q 353 884 353 1716 
Q 353 2575 817 3079 
Q 1281 3584 2069 3584 
Q 2775 3584 3186 3129 
Q 3597 2675 3597 1894 
z
M 3022 2063 
Q 3016 2534 2758 2815 
Q 2500 3097 2075 3097 
Q 1594 3097 1305 2825 
Q 1016 2553 972 2059 
L 3022 2063 
z
" transform="scale(0.015625)"/>
        <path id="DejaVuSans-73" d="M 2834 3397 
L 2834 2853 
Q 2591 2978 2328 3040 
Q 2066 3103 1784 3103 
Q 1356 3103 1142 2972 
Q 928 2841 928 2578 
Q 928 2378 1081 2264 
Q 1234 2150 1697 2047 
L 1894 2003 
Q 2506 1872 2764 1633 
Q 3022 1394 3022 966 
Q 3022 478 2636 193 
Q 2250 -91 1575 -91 
Q 1294 -91 989 -36 
Q 684 19 347 128 
L 347 722 
Q 666 556 975 473 
Q 1284 391 1588 391 
Q 1994 391 2212 530 
Q 2431 669 2431 922 
Q 2431 1156 2273 1281 
Q 2116 1406 1581 1522 
L 1381 1569 
Q 847 1681 609 1914 
Q 372 2147 372 2553 
Q 372 3047 722 3315 
Q 1072 3584 1716 3584 
Q 2034 3584 2315 3537 
Q 2597 3491 2834 3397 
z
" transform="scale(0.015625)"/>
        <path id="DejaVuSans-31" d="M 794 531 
L 1825 531 
L 1825 4091 
L 703 3866 
L 703 4441 
L 1819 4666 
L 2450 4666 
L 2450 531 
L 3481 531 
L 3481 0 
L 794 0 
L 794 531 
z
" transform="scale(0.015625)"/>
       </defs>
       <use xlink:href="#DejaVuSans-62"/>
       <use xlink:href="#DejaVuSans-74" x="63.476562"/>
       <use xlink:href="#DejaVuSans-65" x="102.685547"/>
       <use xlink:href="#DejaVuSans-73" x="164.208984"/>
       <use xlink:href="#DejaVuSans-74" x="216.308594"/>
       <use xlink:href="#DejaVuSans-31" x="255.517578"/>
      </g>
     </g>
    </g>
    <g id="xtick_3">
     <g id="line2d_3">
      <g>
       <use xlink:href="#m1eb511a6dc" x="190.20257" y="338.805433" style="stroke: #000000; stroke-width: 0.8"/>
      </g>
     </g>
     <g id="text_3">
      <!-- btest2 -->
      <g transform="translate(172.444476 377.24304) rotate(-60) scale(0.1 -0.1)">
       <defs>
        <path id="DejaVuSans-32" d="M 1228 531 
L 3431 531 
L 3431 0 
L 469 0 
L 469 531 
Q 828 903 1448 1529 
Q 2069 2156 2228 2338 
Q 2531 2678 2651 2914 
Q 2772 3150 2772 3378 
Q 2772 3750 2511 3984 
Q 2250 4219 1831 4219 
Q 1534 4219 1204 4116 
Q 875 4013 500 3803 
L 500 4441 
Q 881 4594 1212 4672 
Q 1544 4750 1819 4750 
Q 2544 4750 2975 4387 
Q 3406 4025 3406 3419 
Q 3406 3131 3298 2873 
Q 3191 2616 2906 2266 
Q 2828 2175 2409 1742 
Q 1991 1309 1228 531 
z
" transform="scale(0.015625)"/>
       </defs>
       <use xlink:href="#DejaVuSans-62"/>
       <use xlink:href="#DejaVuSans-74" x="63.476562"/>
       <use xlink:href="#DejaVuSans-65" x="102.685547"/>
       <use xlink:href="#DejaVuSans-73" x="164.208984"/>
       <use xlink:href="#DejaVuSans-74" x="216.308594"/>
       <use xlink:href="#DejaVuSans-32" x="255.517578"/>
      </g>
     </g>
    </g>
    <g id="xtick_4">
     <g id="line2d_4">
      <g>
       <use xlink:href="#m1eb511a6dc" x="228.177164" y="338.805433" style="stroke: #000000; stroke-width: 0.8"/>
      </g>
     </g>
     <g id="text_4">
      <!-- copy_long -->
      <g transform="translate(200.901645 393.310518) rotate(-60) scale(0.1 -0.1)">
       <defs>
        <path id="DejaVuSans-63" d="M 3122 3366 
L 3122 2828 
Q 2878 2963 2633 3030 
Q 2388 3097 2138 3097 
Q 1578 3097 1268 2742 
Q 959 2388 959 1747 
Q 959 1106 1268 751 
Q 1578 397 2138 397 
Q 2388 397 2633 464 
Q 2878 531 3122 666 
L 3122 134 
Q 2881 22 2623 -34 
Q 2366 -91 2075 -91 
Q 1284 -91 818 406 
Q 353 903 353 1747 
Q 353 2603 823 3093 
Q 1294 3584 2113 3584 
Q 2378 3584 2631 3529 
Q 2884 3475 3122 3366 
z
" transform="scale(0.015625)"/>
        <path id="DejaVuSans-6f" d="M 1959 3097 
Q 1497 3097 1228 2736 
Q 959 2375 959 1747 
Q 959 1119 1226 758 
Q 1494 397 1959 397 
Q 2419 397 2687 759 
Q 2956 1122 2956 1747 
Q 2956 2369 2687 2733 
Q 2419 3097 1959 3097 
z
M 1959 3584 
Q 2709 3584 3137 3096 
Q 3566 2609 3566 1747 
Q 3566 888 3137 398 
Q 2709 -91 1959 -91 
Q 1206 -91 779 398 
Q 353 888 353 1747 
Q 353 2609 779 3096 
Q 1206 3584 1959 3584 
z
" transform="scale(0.015625)"/>
        <path id="DejaVuSans-70" d="M 1159 525 
L 1159 -1331 
L 581 -1331 
L 581 3500 
L 1159 3500 
L 1159 2969 
Q 1341 3281 1617 3432 
Q 1894 3584 2278 3584 
Q 2916 3584 3314 3078 
Q 3713 2572 3713 1747 
Q 3713 922 3314 415 
Q 2916 -91 2278 -91 
Q 1894 -91 1617 61 
Q 1341 213 1159 525 
z
M 3116 1747 
Q 3116 2381 2855 2742 
Q 2594 3103 2138 3103 
Q 1681 3103 1420 2742 
Q 1159 2381 1159 1747 
Q 1159 1113 1420 752 
Q 1681 391 2138 391 
Q 2594 391 2855 752 
Q 3116 1113 3116 1747 
z
" transform="scale(0.015625)"/>
        <path id="DejaVuSans-79" d="M 2059 -325 
Q 1816 -950 1584 -1140 
Q 1353 -1331 966 -1331 
L 506 -1331 
L 506 -850 
L 844 -850 
Q 1081 -850 1212 -737 
Q 1344 -625 1503 -206 
L 1606 56 
L 191 3500 
L 800 3500 
L 1894 763 
L 2988 3500 
L 3597 3500 
L 2059 -325 
z
" transform="scale(0.015625)"/>
        <path id="DejaVuSans-5f" d="M 3263 -1063 
L 3263 -1509 
L -63 -1509 
L -63 -1063 
L 3263 -1063 
z
" transform="scale(0.015625)"/>
        <path id="DejaVuSans-6c" d="M 603 4863 
L 1178 4863 
L 1178 0 
L 603 0 
L 603 4863 
z
" transform="scale(0.015625)"/>
        <path id="DejaVuSans-6e" d="M 3513 2113 
L 3513 0 
L 2938 0 
L 2938 2094 
Q 2938 2591 2744 2837 
Q 2550 3084 2163 3084 
Q 1697 3084 1428 2787 
Q 1159 2491 1159 1978 
L 1159 0 
L 581 0 
L 581 3500 
L 1159 3500 
L 1159 2956 
Q 1366 3272 1645 3428 
Q 1925 3584 2291 3584 
Q 2894 3584 3203 3211 
Q 3513 2838 3513 2113 
z
" transform="scale(0.015625)"/>
        <path id="DejaVuSans-67" d="M 2906 1791 
Q 2906 2416 2648 2759 
Q 2391 3103 1925 3103 
Q 1463 3103 1205 2759 
Q 947 2416 947 1791 
Q 947 1169 1205 825 
Q 1463 481 1925 481 
Q 2391 481 2648 825 
Q 2906 1169 2906 1791 
z
M 3481 434 
Q 3481 -459 3084 -895 
Q 2688 -1331 1869 -1331 
Q 1566 -1331 1297 -1286 
Q 1028 -1241 775 -1147 
L 775 -588 
Q 1028 -725 1275 -790 
Q 1522 -856 1778 -856 
Q 2344 -856 2625 -561 
Q 2906 -266 2906 331 
L 2906 616 
Q 2728 306 2450 153 
Q 2172 0 1784 0 
Q 1141 0 747 490 
Q 353 981 353 1791 
Q 353 2603 747 3093 
Q 1141 3584 1784 3584 
Q 2172 3584 2450 3431 
Q 2728 3278 2906 2969 
L 2906 3500 
L 3481 3500 
L 3481 434 
z
" transform="scale(0.015625)"/>
       </defs>
       <use xlink:href="#DejaVuSans-63"/>
       <use xlink:href="#DejaVuSans-6f" x="54.980469"/>
       <use xlink:href="#DejaVuSans-70" x="116.162109"/>
       <use xlink:href="#DejaVuSans-79" x="179.638672"/>
       <use xlink:href="#DejaVuSans-5f" x="238.818359"/>
       <use xlink:href="#DejaVuSans-6c" x="288.818359"/>
       <use xlink:href="#DejaVuSans-6f" x="316.601562"/>
       <use xlink:href="#DejaVuSans-6e" x="377.783203"/>
       <use xlink:href="#DejaVuSans-67" x="441.162109"/>
      </g>
     </g>
    </g>
    <g id="xtick_5">
     <g id="line2d_5">
      <g>
       <use xlink:href="#m1eb511a6dc" x="266.151758" y="338.805433" style="stroke: #000000; stroke-width: 0.8"/>
      </g>
     </g>
     <g id="text_5">
      <!-- copy -->
      <g transform="translate(252.408509 370.289127) rotate(-60) scale(0.1 -0.1)">
       <use xlink:href="#DejaVuSans-63"/>
       <use xlink:href="#DejaVuSans-6f" x="54.980469"/>
       <use xlink:href="#DejaVuSans-70" x="116.162109"/>
       <use xlink:href="#DejaVuSans-79" x="179.638672"/>
      </g>
     </g>
    </g>
    <g id="xtick_6">
     <g id="line2d_6">
      <g>
       <use xlink:href="#m1eb511a6dc" x="304.126353" y="338.805433" style="stroke: #000000; stroke-width: 0.8"/>
      </g>
     </g>
     <g id="text_6">
      <!-- evens_long -->
      <g transform="translate(273.907084 398.409242) rotate(-60) scale(0.1 -0.1)">
       <defs>
        <path id="DejaVuSans-76" d="M 191 3500 
L 800 3500 
L 1894 563 
L 2988 3500 
L 3597 3500 
L 2284 0 
L 1503 0 
L 191 3500 
z
" transform="scale(0.015625)"/>
       </defs>
       <use xlink:href="#DejaVuSans-65"/>
       <use xlink:href="#DejaVuSans-76" x="61.523438"/>
       <use xlink:href="#DejaVuSans-65" x="120.703125"/>
       <use xlink:href="#DejaVuSans-6e" x="182.226562"/>
       <use xlink:href="#DejaVuSans-73" x="245.605469"/>
       <use xlink:href="#DejaVuSans-5f" x="297.705078"/>
       <use xlink:href="#DejaVuSans-6c" x="347.705078"/>
       <use xlink:href="#DejaVuSans-6f" x="375.488281"/>
       <use xlink:href="#DejaVuSans-6e" x="436.669922"/>
       <use xlink:href="#DejaVuSans-67" x="500.048828"/>
      </g>
     </g>
    </g>
    <g id="xtick_7">
     <g id="line2d_7">
      <g>
       <use xlink:href="#m1eb511a6dc" x="342.100947" y="338.805433" style="stroke: #000000; stroke-width: 0.8"/>
      </g>
     </g>
     <g id="text_7">
      <!-- evens -->
      <g transform="translate(325.413948 375.387852) rotate(-60) scale(0.1 -0.1)">
       <use xlink:href="#DejaVuSans-65"/>
       <use xlink:href="#DejaVuSans-76" x="61.523438"/>
       <use xlink:href="#DejaVuSans-65" x="120.703125"/>
       <use xlink:href="#DejaVuSans-6e" x="182.226562"/>
       <use xlink:href="#DejaVuSans-73" x="245.605469"/>
      </g>
     </g>
    </g>
    <g id="xtick_8">
     <g id="line2d_8">
      <g>
       <use xlink:href="#m1eb511a6dc" x="380.075542" y="338.805433" style="stroke: #000000; stroke-width: 0.8"/>
      </g>
     </g>
     <g id="text_8">
      <!-- fib_long -->
      <g transform="translate(358.418773 383.578557) rotate(-60) scale(0.1 -0.1)">
       <defs>
        <path id="DejaVuSans-66" d="M 2375 4863 
L 2375 4384 
L 1825 4384 
Q 1516 4384 1395 4259 
Q 1275 4134 1275 3809 
L 1275 3500 
L 2222 3500 
L 2222 3053 
L 1275 3053 
L 1275 0 
L 697 0 
L 697 3053 
L 147 3053 
L 147 3500 
L 697 3500 
L 697 3744 
Q 697 4328 969 4595 
Q 1241 4863 1831 4863 
L 2375 4863 
z
" transform="scale(0.015625)"/>
        <path id="DejaVuSans-69" d="M 603 3500 
L 1178 3500 
L 1178 0 
L 603 0 
L 603 3500 
z
M 603 4863 
L 1178 4863 
L 1178 4134 
L 603 4134 
L 603 4863 
z
" transform="scale(0.015625)"/>
       </defs>
       <use xlink:href="#DejaVuSans-66"/>
       <use xlink:href="#DejaVuSans-69" x="35.205078"/>
       <use xlink:href="#DejaVuSans-62" x="62.988281"/>
       <use xlink:href="#DejaVuSans-5f" x="126.464844"/>
       <use xlink:href="#DejaVuSans-6c" x="176.464844"/>
       <use xlink:href="#DejaVuSans-6f" x="204.248047"/>
       <use xlink:href="#DejaVuSans-6e" x="265.429688"/>
       <use xlink:href="#DejaVuSans-67" x="328.808594"/>
      </g>
     </g>
    </g>
    <g id="xtick_9">
     <g id="line2d_9">
      <g>
       <use xlink:href="#m1eb511a6dc" x="418.050136" y="338.805433" style="stroke: #000000; stroke-width: 0.8"/>
      </g>
     </g>
     <g id="text_9">
      <!-- fib_rec -->
      <g transform="translate(399.416023 378.343163) rotate(-60) scale(0.1 -0.1)">
       <defs>
        <path id="DejaVuSans-72" d="M 2631 2963 
Q 2534 3019 2420 3045 
Q 2306 3072 2169 3072 
Q 1681 3072 1420 2755 
Q 1159 2438 1159 1844 
L 1159 0 
L 581 0 
L 581 3500 
L 1159 3500 
L 1159 2956 
Q 1341 3275 1631 3429 
Q 1922 3584 2338 3584 
Q 2397 3584 2469 3576 
Q 2541 3569 2628 3553 
L 2631 2963 
z
" transform="scale(0.015625)"/>
       </defs>
       <use xlink:href="#DejaVuSans-66"/>
       <use xlink:href="#DejaVuSans-69" x="35.205078"/>
       <use xlink:href="#DejaVuSans-62" x="62.988281"/>
       <use xlink:href="#DejaVuSans-5f" x="126.464844"/>
       <use xlink:href="#DejaVuSans-72" x="176.464844"/>
       <use xlink:href="#DejaVuSans-65" x="215.328125"/>
       <use xlink:href="#DejaVuSans-63" x="276.851562"/>
      </g>
     </g>
    </g>
    <g id="xtick_10">
     <g id="line2d_10">
      <g>
       <use xlink:href="#m1eb511a6dc" x="456.024731" y="338.805433" style="stroke: #000000; stroke-width: 0.8"/>
      </g>
     </g>
     <g id="text_10">
      <!-- fib -->
      <g transform="translate(447.900231 360.557166) rotate(-60) scale(0.1 -0.1)">
       <use xlink:href="#DejaVuSans-66"/>
       <use xlink:href="#DejaVuSans-69" x="35.205078"/>
       <use xlink:href="#DejaVuSans-62" x="62.988281"/>
      </g>
     </g>
    </g>
    <g id="xtick_11">
     <g id="line2d_11">
      <g>
       <use xlink:href="#m1eb511a6dc" x="493.999325" y="338.805433" style="stroke: #000000; stroke-width: 0.8"/>
      </g>
     </g>
     <g id="text_11">
      <!-- insertion -->
      <g transform="translate(470.326388 387.48785) rotate(-60) scale(0.1 -0.1)">
       <use xlink:href="#DejaVuSans-69"/>
       <use xlink:href="#DejaVuSans-6e" x="27.783203"/>
       <use xlink:href="#DejaVuSans-73" x="91.162109"/>
       <use xlink:href="#DejaVuSans-65" x="143.261719"/>
       <use xlink:href="#DejaVuSans-72" x="204.785156"/>
       <use xlink:href="#DejaVuSans-74" x="245.898438"/>
       <use xlink:href="#DejaVuSans-69" x="285.107422"/>
       <use xlink:href="#DejaVuSans-6f" x="312.890625"/>
       <use xlink:href="#DejaVuSans-6e" x="374.072266"/>
      </g>
     </g>
    </g>
    <g id="xtick_12">
     <g id="line2d_12">
      <g>
       <use xlink:href="#m1eb511a6dc" x="531.973919" y="338.805433" style="stroke: #000000; stroke-width: 0.8"/>
      </g>
     </g>
     <g id="text_12">
      <!-- mult -->
      <g transform="translate(518.784576 369.329733) rotate(-60) scale(0.1 -0.1)">
       <defs>
        <path id="DejaVuSans-6d" d="M 3328 2828 
Q 3544 3216 3844 3400 
Q 4144 3584 4550 3584 
Q 5097 3584 5394 3201 
Q 5691 2819 5691 2113 
L 5691 0 
L 5113 0 
L 5113 2094 
Q 5113 2597 4934 2840 
Q 4756 3084 4391 3084 
Q 3944 3084 3684 2787 
Q 3425 2491 3425 1978 
L 3425 0 
L 2847 0 
L 2847 2094 
Q 2847 2600 2669 2842 
Q 2491 3084 2119 3084 
Q 1678 3084 1418 2786 
Q 1159 2488 1159 1978 
L 1159 0 
L 581 0 
L 581 3500 
L 1159 3500 
L 1159 2956 
Q 1356 3278 1631 3431 
Q 1906 3584 2284 3584 
Q 2666 3584 2933 3390 
Q 3200 3197 3328 2828 
z
" transform="scale(0.015625)"/>
        <path id="DejaVuSans-75" d="M 544 1381 
L 544 3500 
L 1119 3500 
L 1119 1403 
Q 1119 906 1312 657 
Q 1506 409 1894 409 
Q 2359 409 2629 706 
Q 2900 1003 2900 1516 
L 2900 3500 
L 3475 3500 
L 3475 0 
L 2900 0 
L 2900 538 
Q 2691 219 2414 64 
Q 2138 -91 1772 -91 
Q 1169 -91 856 284 
Q 544 659 544 1381 
z
M 1991 3584 
L 1991 3584 
z
" transform="scale(0.015625)"/>
       </defs>
       <use xlink:href="#DejaVuSans-6d"/>
       <use xlink:href="#DejaVuSans-75" x="97.412109"/>
       <use xlink:href="#DejaVuSans-6c" x="160.791016"/>
       <use xlink:href="#DejaVuSans-74" x="188.574219"/>
      </g>
     </g>
    </g>
    <g id="xtick_13">
     <g id="line2d_13">
      <g>
       <use xlink:href="#m1eb511a6dc" x="569.948514" y="338.805433" style="stroke: #000000; stroke-width: 0.8"/>
      </g>
     </g>
     <g id="text_13">
      <!-- parallel -->
      <g transform="translate(549.545889 381.823503) rotate(-60) scale(0.1 -0.1)">
       <use xlink:href="#DejaVuSans-70"/>
       <use xlink:href="#DejaVuSans-61" x="63.476562"/>
       <use xlink:href="#DejaVuSans-72" x="124.755859"/>
       <use xlink:href="#DejaVuSans-61" x="165.869141"/>
       <use xlink:href="#DejaVuSans-6c" x="227.148438"/>
       <use xlink:href="#DejaVuSans-6c" x="254.931641"/>
       <use xlink:href="#DejaVuSans-65" x="282.714844"/>
       <use xlink:href="#DejaVuSans-6c" x="344.238281"/>
      </g>
     </g>
    </g>
    <g id="xtick_14">
     <g id="line2d_14">
      <g>
       <use xlink:href="#m1eb511a6dc" x="607.923108" y="338.805433" style="stroke: #000000; stroke-width: 0.8"/>
      </g>
     </g>
     <g id="text_14">
      <!-- saxpy -->
      <g transform="translate(591.360327 375.172698) rotate(-60) scale(0.1 -0.1)">
       <defs>
        <path id="DejaVuSans-78" d="M 3513 3500 
L 2247 1797 
L 3578 0 
L 2900 0 
L 1881 1375 
L 863 0 
L 184 0 
L 1544 1831 
L 300 3500 
L 978 3500 
L 1906 2253 
L 2834 3500 
L 3513 3500 
z
" transform="scale(0.015625)"/>
       </defs>
       <use xlink:href="#DejaVuSans-73"/>
       <use xlink:href="#DejaVuSans-61" x="52.099609"/>
       <use xlink:href="#DejaVuSans-78" x="113.378906"/>
       <use xlink:href="#DejaVuSans-70" x="172.558594"/>
       <use xlink:href="#DejaVuSans-79" x="236.035156"/>
      </g>
     </g>
    </g>
    <g id="xtick_15">
     <g id="line2d_15">
      <g>
       <use xlink:href="#m1eb511a6dc" x="645.897703" y="338.805433" style="stroke: #000000; stroke-width: 0.8"/>
      </g>
     </g>
     <g id="text_15">
      <!-- sampler -->
      <g transform="translate(623.862266 384.651617) rotate(-60) scale(0.1 -0.1)">
       <use xlink:href="#DejaVuSans-73"/>
       <use xlink:href="#DejaVuSans-61" x="52.099609"/>
       <use xlink:href="#DejaVuSans-6d" x="113.378906"/>
       <use xlink:href="#DejaVuSans-70" x="210.791016"/>
       <use xlink:href="#DejaVuSans-6c" x="274.267578"/>
       <use xlink:href="#DejaVuSans-65" x="302.050781"/>
       <use xlink:href="#DejaVuSans-72" x="363.574219"/>
      </g>
     </g>
    </g>
    <g id="xtick_16">
     <g id="line2d_16">
      <g>
       <use xlink:href="#m1eb511a6dc" x="683.872297" y="338.805433" style="stroke: #000000; stroke-width: 0.8"/>
      </g>
     </g>
     <g id="text_16">
      <!-- alexnet -->
      <g transform="translate(663.464204 381.832975) rotate(-60) scale(0.1 -0.1)">
       <use xlink:href="#DejaVuSans-61"/>
       <use xlink:href="#DejaVuSans-6c" x="61.279297"/>
       <use xlink:href="#DejaVuSans-65" x="89.0625"/>
       <use xlink:href="#DejaVuSans-78" x="148.835938"/>
       <use xlink:href="#DejaVuSans-6e" x="208.015625"/>
       <use xlink:href="#DejaVuSans-65" x="271.394531"/>
       <use xlink:href="#DejaVuSans-74" x="332.917969"/>
      </g>
     </g>
    </g>
    <g id="xtick_17">
     <g id="line2d_17">
      <g>
       <use xlink:href="#m1eb511a6dc" x="721.846892" y="338.805433" style="stroke: #000000; stroke-width: 0.8"/>
      </g>
     </g>
     <g id="text_17">
      <!-- backtrack -->
      <g transform="translate(695.438798 392.22528) rotate(-60) scale(0.1 -0.1)">
       <defs>
        <path id="DejaVuSans-6b" d="M 581 4863 
L 1159 4863 
L 1159 1991 
L 2875 3500 
L 3609 3500 
L 1753 1863 
L 3688 0 
L 2938 0 
L 1159 1709 
L 1159 0 
L 581 0 
L 581 4863 
z
" transform="scale(0.015625)"/>
       </defs>
       <use xlink:href="#DejaVuSans-62"/>
       <use xlink:href="#DejaVuSans-61" x="63.476562"/>
       <use xlink:href="#DejaVuSans-63" x="124.755859"/>
       <use xlink:href="#DejaVuSans-6b" x="179.736328"/>
       <use xlink:href="#DejaVuSans-74" x="237.646484"/>
       <use xlink:href="#DejaVuSans-72" x="276.855469"/>
       <use xlink:href="#DejaVuSans-61" x="317.96875"/>
       <use xlink:href="#DejaVuSans-63" x="379.248047"/>
       <use xlink:href="#DejaVuSans-6b" x="434.228516"/>
      </g>
     </g>
    </g>
    <g id="xtick_18">
     <g id="line2d_18">
      <g>
       <use xlink:href="#m1eb511a6dc" x="759.821486" y="338.805433" style="stroke: #000000; stroke-width: 0.8"/>
      </g>
     </g>
     <g id="text_18">
      <!-- basic_malloc -->
      <g transform="translate(725.777217 405.034337) rotate(-60) scale(0.1 -0.1)">
       <use xlink:href="#DejaVuSans-62"/>
       <use xlink:href="#DejaVuSans-61" x="63.476562"/>
       <use xlink:href="#DejaVuSans-73" x="124.755859"/>
       <use xlink:href="#DejaVuSans-69" x="176.855469"/>
       <use xlink:href="#DejaVuSans-63" x="204.638672"/>
       <use xlink:href="#DejaVuSans-5f" x="259.619141"/>
       <use xlink:href="#DejaVuSans-6d" x="309.619141"/>
       <use xlink:href="#DejaVuSans-61" x="407.03125"/>
       <use xlink:href="#DejaVuSans-6c" x="468.310547"/>
       <use xlink:href="#DejaVuSans-6c" x="496.09375"/>
       <use xlink:href="#DejaVuSans-6f" x="523.876953"/>
       <use xlink:href="#DejaVuSans-63" x="585.058594"/>
      </g>
     </g>
    </g>
    <g id="xtick_19">
     <g id="line2d_19">
      <g>
       <use xlink:href="#m1eb511a6dc" x="797.796081" y="338.805433" style="stroke: #000000; stroke-width: 0.8"/>
      </g>
     </g>
     <g id="text_19">
      <!-- bfs -->
      <g transform="translate(788.455956 362.662691) rotate(-60) scale(0.1 -0.1)">
       <use xlink:href="#DejaVuSans-62"/>
       <use xlink:href="#DejaVuSans-66" x="63.476562"/>
       <use xlink:href="#DejaVuSans-73" x="98.681641"/>
      </g>
     </g>
    </g>
    <g id="xtick_20">
     <g id="line2d_20">
      <g>
       <use xlink:href="#m1eb511a6dc" x="835.770675" y="338.805433" style="stroke: #000000; stroke-width: 0.8"/>
      </g>
     </g>
     <g id="text_20">
      <!-- dft -->
      <g transform="translate(827.162581 361.394775) rotate(-60) scale(0.1 -0.1)">
       <defs>
        <path id="DejaVuSans-64" d="M 2906 2969 
L 2906 4863 
L 3481 4863 
L 3481 0 
L 2906 0 
L 2906 525 
Q 2725 213 2448 61 
Q 2172 -91 1784 -91 
Q 1150 -91 751 415 
Q 353 922 353 1747 
Q 353 2572 751 3078 
Q 1150 3584 1784 3584 
Q 2172 3584 2448 3432 
Q 2725 3281 2906 2969 
z
M 947 1747 
Q 947 1113 1208 752 
Q 1469 391 1925 391 
Q 2381 391 2643 752 
Q 2906 1113 2906 1747 
Q 2906 2381 2643 2742 
Q 2381 3103 1925 3103 
Q 1469 3103 1208 2742 
Q 947 2381 947 1747 
z
" transform="scale(0.015625)"/>
       </defs>
       <use xlink:href="#DejaVuSans-64"/>
       <use xlink:href="#DejaVuSans-66" x="63.476562"/>
       <use xlink:href="#DejaVuSans-74" x="96.931641"/>
      </g>
     </g>
    </g>
    <g id="xtick_21">
     <g id="line2d_21">
      <g>
       <use xlink:href="#m1eb511a6dc" x="873.745269" y="338.805433" style="stroke: #000000; stroke-width: 0.8"/>
      </g>
     </g>
     <g id="text_21">
      <!-- fc_forward -->
      <g transform="translate(845.523656 394.9492) rotate(-60) scale(0.1 -0.1)">
       <defs>
        <path id="DejaVuSans-77" d="M 269 3500 
L 844 3500 
L 1563 769 
L 2278 3500 
L 2956 3500 
L 3675 769 
L 4391 3500 
L 4966 3500 
L 4050 0 
L 3372 0 
L 2619 2869 
L 1863 0 
L 1184 0 
L 269 3500 
z
" transform="scale(0.015625)"/>
       </defs>
       <use xlink:href="#DejaVuSans-66"/>
       <use xlink:href="#DejaVuSans-63" x="35.205078"/>
       <use xlink:href="#DejaVuSans-5f" x="90.185547"/>
       <use xlink:href="#DejaVuSans-66" x="140.185547"/>
       <use xlink:href="#DejaVuSans-6f" x="175.390625"/>
       <use xlink:href="#DejaVuSans-72" x="236.572266"/>
       <use xlink:href="#DejaVuSans-77" x="277.685547"/>
       <use xlink:href="#DejaVuSans-61" x="359.472656"/>
       <use xlink:href="#DejaVuSans-72" x="420.751953"/>
       <use xlink:href="#DejaVuSans-64" x="460.115234"/>
      </g>
     </g>
    </g>
    <g id="xtick_22">
     <g id="line2d_22">
      <g>
       <use xlink:href="#m1eb511a6dc" x="911.719864" y="338.805433" style="stroke: #000000; stroke-width: 0.8"/>
      </g>
     </g>
     <g id="text_22">
      <!-- graph -->
      <g transform="translate(895.282083 374.956192) rotate(-60) scale(0.1 -0.1)">
       <use xlink:href="#DejaVuSans-67"/>
       <use xlink:href="#DejaVuSans-72" x="63.476562"/>
       <use xlink:href="#DejaVuSans-61" x="104.589844"/>
       <use xlink:href="#DejaVuSans-70" x="165.869141"/>
       <use xlink:href="#DejaVuSans-68" x="229.345703"/>
      </g>
     </g>
    </g>
    <g id="xtick_23">
     <g id="line2d_23">
      <g>
       <use xlink:href="#m1eb511a6dc" x="949.694458" y="338.805433" style="stroke: #000000; stroke-width: 0.8"/>
      </g>
     </g>
     <g id="text_23">
      <!-- insertion_sort -->
      <g transform="translate(913.60097 408.583688) rotate(-60) scale(0.1 -0.1)">
       <use xlink:href="#DejaVuSans-69"/>
       <use xlink:href="#DejaVuSans-6e" x="27.783203"/>
       <use xlink:href="#DejaVuSans-73" x="91.162109"/>
       <use xlink:href="#DejaVuSans-65" x="143.261719"/>
       <use xlink:href="#DejaVuSans-72" x="204.785156"/>
       <use xlink:href="#DejaVuSans-74" x="245.898438"/>
       <use xlink:href="#DejaVuSans-69" x="285.107422"/>
       <use xlink:href="#DejaVuSans-6f" x="312.890625"/>
       <use xlink:href="#DejaVuSans-6e" x="374.072266"/>
       <use xlink:href="#DejaVuSans-5f" x="437.451172"/>
       <use xlink:href="#DejaVuSans-73" x="487.451172"/>
       <use xlink:href="#DejaVuSans-6f" x="539.550781"/>
       <use xlink:href="#DejaVuSans-72" x="600.732422"/>
       <use xlink:href="#DejaVuSans-74" x="641.845703"/>
      </g>
     </g>
    </g>
    <g id="xtick_24">
     <g id="line2d_24">
      <g>
       <use xlink:href="#m1eb511a6dc" x="987.669053" y="338.805433" style="stroke: #000000; stroke-width: 0.8"/>
      </g>
     </g>
     <g id="text_24">
      <!-- matrix_mult_rec -->
      <g transform="translate(945.171658 419.675579) rotate(-60) scale(0.1 -0.1)">
       <use xlink:href="#DejaVuSans-6d"/>
       <use xlink:href="#DejaVuSans-61" x="97.412109"/>
       <use xlink:href="#DejaVuSans-74" x="158.691406"/>
       <use xlink:href="#DejaVuSans-72" x="197.900391"/>
       <use xlink:href="#DejaVuSans-69" x="239.013672"/>
       <use xlink:href="#DejaVuSans-78" x="266.796875"/>
       <use xlink:href="#DejaVuSans-5f" x="325.976562"/>
       <use xlink:href="#DejaVuSans-6d" x="375.976562"/>
       <use xlink:href="#DejaVuSans-75" x="473.388672"/>
       <use xlink:href="#DejaVuSans-6c" x="536.767578"/>
       <use xlink:href="#DejaVuSans-74" x="564.550781"/>
       <use xlink:href="#DejaVuSans-5f" x="603.759766"/>
       <use xlink:href="#DejaVuSans-72" x="653.759766"/>
       <use xlink:href="#DejaVuSans-65" x="692.623047"/>
       <use xlink:href="#DejaVuSans-63" x="754.146484"/>
      </g>
     </g>
    </g>
    <g id="xtick_25">
     <g id="line2d_25">
      <g>
       <use xlink:href="#m1eb511a6dc" x="1025.643647" y="338.805433" style="stroke: #000000; stroke-width: 0.8"/>
      </g>
     </g>
     <g id="text_25">
      <!-- mergesort -->
      <g transform="translate(997.997272 394.370046) rotate(-60) scale(0.1 -0.1)">
       <use xlink:href="#DejaVuSans-6d"/>
       <use xlink:href="#DejaVuSans-65" x="97.412109"/>
       <use xlink:href="#DejaVuSans-72" x="158.935547"/>
       <use xlink:href="#DejaVuSans-67" x="198.298828"/>
       <use xlink:href="#DejaVuSans-65" x="261.775391"/>
       <use xlink:href="#DejaVuSans-73" x="323.298828"/>
       <use xlink:href="#DejaVuSans-6f" x="375.398438"/>
       <use xlink:href="#DejaVuSans-72" x="436.580078"/>
       <use xlink:href="#DejaVuSans-74" x="477.693359"/>
      </g>
     </g>
    </g>
    <g id="xtick_26">
     <g id="line2d_26">
      <g>
       <use xlink:href="#m1eb511a6dc" x="1063.618242" y="338.805433" style="stroke: #000000; stroke-width: 0.8"/>
      </g>
     </g>
     <g id="text_26">
      <!-- omegalul -->
      <g transform="translate(1038.625773 389.773345) rotate(-60) scale(0.1 -0.1)">
       <use xlink:href="#DejaVuSans-6f"/>
       <use xlink:href="#DejaVuSans-6d" x="61.181641"/>
       <use xlink:href="#DejaVuSans-65" x="158.59375"/>
       <use xlink:href="#DejaVuSans-67" x="220.117188"/>
       <use xlink:href="#DejaVuSans-61" x="283.59375"/>
       <use xlink:href="#DejaVuSans-6c" x="344.873047"/>
       <use xlink:href="#DejaVuSans-75" x="372.65625"/>
       <use xlink:href="#DejaVuSans-6c" x="436.035156"/>
      </g>
     </g>
    </g>
    <g id="xtick_27">
     <g id="line2d_27">
      <g>
       <use xlink:href="#m1eb511a6dc" x="1101.592836" y="338.805433" style="stroke: #000000; stroke-width: 0.8"/>
      </g>
     </g>
     <g id="text_27">
      <!-- outer_product -->
      <g transform="translate(1064.501692 410.311679) rotate(-60) scale(0.1 -0.1)">
       <use xlink:href="#DejaVuSans-6f"/>
       <use xlink:href="#DejaVuSans-75" x="61.181641"/>
       <use xlink:href="#DejaVuSans-74" x="124.560547"/>
       <use xlink:href="#DejaVuSans-65" x="163.769531"/>
       <use xlink:href="#DejaVuSans-72" x="225.292969"/>
       <use xlink:href="#DejaVuSans-5f" x="266.40625"/>
       <use xlink:href="#DejaVuSans-70" x="316.40625"/>
       <use xlink:href="#DejaVuSans-72" x="379.882812"/>
       <use xlink:href="#DejaVuSans-6f" x="418.746094"/>
       <use xlink:href="#DejaVuSans-64" x="479.927734"/>
       <use xlink:href="#DejaVuSans-75" x="543.404297"/>
       <use xlink:href="#DejaVuSans-63" x="606.783203"/>
       <use xlink:href="#DejaVuSans-74" x="661.763672"/>
      </g>
     </g>
    </g>
    <g id="xtick_28">
     <g id="line2d_28">
      <g>
       <use xlink:href="#m1eb511a6dc" x="1139.56743" y="338.805433" style="stroke: #000000; stroke-width: 0.8"/>
      </g>
     </g>
     <g id="text_28">
      <!-- priority_queue -->
      <g transform="translate(1101.318474 412.317069) rotate(-60) scale(0.1 -0.1)">
       <defs>
        <path id="DejaVuSans-71" d="M 947 1747 
Q 947 1113 1208 752 
Q 1469 391 1925 391 
Q 2381 391 2643 752 
Q 2906 1113 2906 1747 
Q 2906 2381 2643 2742 
Q 2381 3103 1925 3103 
Q 1469 3103 1208 2742 
Q 947 2381 947 1747 
z
M 2906 525 
Q 2725 213 2448 61 
Q 2172 -91 1784 -91 
Q 1150 -91 751 415 
Q 353 922 353 1747 
Q 353 2572 751 3078 
Q 1150 3584 1784 3584 
Q 2172 3584 2448 3432 
Q 2725 3281 2906 2969 
L 2906 3500 
L 3481 3500 
L 3481 -1331 
L 2906 -1331 
L 2906 525 
z
" transform="scale(0.015625)"/>
       </defs>
       <use xlink:href="#DejaVuSans-70"/>
       <use xlink:href="#DejaVuSans-72" x="63.476562"/>
       <use xlink:href="#DejaVuSans-69" x="104.589844"/>
       <use xlink:href="#DejaVuSans-6f" x="132.373047"/>
       <use xlink:href="#DejaVuSans-72" x="193.554688"/>
       <use xlink:href="#DejaVuSans-69" x="234.667969"/>
       <use xlink:href="#DejaVuSans-74" x="262.451172"/>
       <use xlink:href="#DejaVuSans-79" x="301.660156"/>
       <use xlink:href="#DejaVuSans-5f" x="360.839844"/>
       <use xlink:href="#DejaVuSans-71" x="410.839844"/>
       <use xlink:href="#DejaVuSans-75" x="474.316406"/>
       <use xlink:href="#DejaVuSans-65" x="537.695312"/>
       <use xlink:href="#DejaVuSans-75" x="599.21875"/>
       <use xlink:href="#DejaVuSans-65" x="662.597656"/>
      </g>
     </g>
    </g>
    <g id="xtick_29">
     <g id="line2d_29">
      <g>
       <use xlink:href="#m1eb511a6dc" x="1177.542025" y="338.805433" style="stroke: #000000; stroke-width: 0.8"/>
      </g>
     </g>
     <g id="text_29">
      <!-- quicksort -->
      <g transform="translate(1152.684713 389.539248) rotate(-60) scale(0.1 -0.1)">
       <use xlink:href="#DejaVuSans-71"/>
       <use xlink:href="#DejaVuSans-75" x="63.476562"/>
       <use xlink:href="#DejaVuSans-69" x="126.855469"/>
       <use xlink:href="#DejaVuSans-63" x="154.638672"/>
       <use xlink:href="#DejaVuSans-6b" x="209.619141"/>
       <use xlink:href="#DejaVuSans-73" x="267.529297"/>
       <use xlink:href="#DejaVuSans-6f" x="319.628906"/>
       <use xlink:href="#DejaVuSans-72" x="380.810547"/>
       <use xlink:href="#DejaVuSans-74" x="421.923828"/>
      </g>
     </g>
    </g>
    <g id="xtick_30">
     <g id="line2d_30">
      <g>
       <use xlink:href="#m1eb511a6dc" x="1215.516619" y="338.805433" style="stroke: #000000; stroke-width: 0.8"/>
      </g>
     </g>
     <g id="text_30">
      <!-- sort_search -->
      <g transform="translate(1184.688756 399.463358) rotate(-60) scale(0.1 -0.1)">
       <use xlink:href="#DejaVuSans-73"/>
       <use xlink:href="#DejaVuSans-6f" x="52.099609"/>
       <use xlink:href="#DejaVuSans-72" x="113.28125"/>
       <use xlink:href="#DejaVuSans-74" x="154.394531"/>
       <use xlink:href="#DejaVuSans-5f" x="193.603516"/>
       <use xlink:href="#DejaVuSans-73" x="243.603516"/>
       <use xlink:href="#DejaVuSans-65" x="295.703125"/>
       <use xlink:href="#DejaVuSans-61" x="357.226562"/>
       <use xlink:href="#DejaVuSans-72" x="418.505859"/>
       <use xlink:href="#DejaVuSans-63" x="457.369141"/>
       <use xlink:href="#DejaVuSans-68" x="512.349609"/>
      </g>
     </g>
    </g>
   </g>
   <g id="matplotlib.axis_2">
    <g id="ytick_1">
     <g id="line2d_31">
      <path d="M 44.57 338.805433 
L 1285.2 338.805433 
" clip-path="url(#p7cd5675817)" style="fill: none; stroke-dasharray: 2.96,1.28; stroke-dashoffset: 0; stroke: #b0b0b0; stroke-opacity: 0.6; stroke-width: 0.8"/>
     </g>
     <g id="line2d_32">
      <defs>
       <path id="mf85e2f4a06" d="M 0 0 
L -3.5 0 
" style="stroke: #000000; stroke-width: 0.8"/>
      </defs>
      <g>
       <use xlink:href="#mf85e2f4a06" x="44.57" y="338.805433" style="stroke: #000000; stroke-width: 0.8"/>
      </g>
     </g>
     <g id="text_31">
      <!-- 0 -->
      <g transform="translate(31.2075 342.604651) scale(0.1 -0.1)">
       <defs>
        <path id="DejaVuSans-30" d="M 2034 4250 
Q 1547 4250 1301 3770 
Q 1056 3291 1056 2328 
Q 1056 1369 1301 889 
Q 1547 409 2034 409 
Q 2525 409 2770 889 
Q 3016 1369 3016 2328 
Q 3016 3291 2770 3770 
Q 2525 4250 2034 4250 
z
M 2034 4750 
Q 2819 4750 3233 4129 
Q 3647 3509 3647 2328 
Q 3647 1150 3233 529 
Q 2819 -91 2034 -91 
Q 1250 -91 836 529 
Q 422 1150 422 2328 
Q 422 3509 836 4129 
Q 1250 4750 2034 4750 
z
" transform="scale(0.015625)"/>
       </defs>
       <use xlink:href="#DejaVuSans-30"/>
      </g>
     </g>
    </g>
    <g id="ytick_2">
     <g id="line2d_33">
      <path d="M 44.57 285.75689 
L 1285.2 285.75689 
" clip-path="url(#p7cd5675817)" style="fill: none; stroke-dasharray: 2.96,1.28; stroke-dashoffset: 0; stroke: #b0b0b0; stroke-opacity: 0.6; stroke-width: 0.8"/>
     </g>
     <g id="line2d_34">
      <g>
       <use xlink:href="#mf85e2f4a06" x="44.57" y="285.75689" style="stroke: #000000; stroke-width: 0.8"/>
      </g>
     </g>
     <g id="text_32">
      <!-- 2 -->
      <g transform="translate(31.2075 289.556108) scale(0.1 -0.1)">
       <use xlink:href="#DejaVuSans-32"/>
      </g>
     </g>
    </g>
    <g id="ytick_3">
     <g id="line2d_35">
      <path d="M 44.57 232.708347 
L 1285.2 232.708347 
" clip-path="url(#p7cd5675817)" style="fill: none; stroke-dasharray: 2.96,1.28; stroke-dashoffset: 0; stroke: #b0b0b0; stroke-opacity: 0.6; stroke-width: 0.8"/>
     </g>
     <g id="line2d_36">
      <g>
       <use xlink:href="#mf85e2f4a06" x="44.57" y="232.708347" style="stroke: #000000; stroke-width: 0.8"/>
      </g>
     </g>
     <g id="text_33">
      <!-- 4 -->
      <g transform="translate(31.2075 236.507566) scale(0.1 -0.1)">
       <defs>
        <path id="DejaVuSans-34" d="M 2419 4116 
L 825 1625 
L 2419 1625 
L 2419 4116 
z
M 2253 4666 
L 3047 4666 
L 3047 1625 
L 3713 1625 
L 3713 1100 
L 3047 1100 
L 3047 0 
L 2419 0 
L 2419 1100 
L 313 1100 
L 313 1709 
L 2253 4666 
z
" transform="scale(0.015625)"/>
       </defs>
       <use xlink:href="#DejaVuSans-34"/>
      </g>
     </g>
    </g>
    <g id="ytick_4">
     <g id="line2d_37">
      <path d="M 44.57 179.659804 
L 1285.2 179.659804 
" clip-path="url(#p7cd5675817)" style="fill: none; stroke-dasharray: 2.96,1.28; stroke-dashoffset: 0; stroke: #b0b0b0; stroke-opacity: 0.6; stroke-width: 0.8"/>
     </g>
     <g id="line2d_38">
      <g>
       <use xlink:href="#mf85e2f4a06" x="44.57" y="179.659804" style="stroke: #000000; stroke-width: 0.8"/>
      </g>
     </g>
     <g id="text_34">
      <!-- 6 -->
      <g transform="translate(31.2075 183.459023) scale(0.1 -0.1)">
       <defs>
        <path id="DejaVuSans-36" d="M 2113 2584 
Q 1688 2584 1439 2293 
Q 1191 2003 1191 1497 
Q 1191 994 1439 701 
Q 1688 409 2113 409 
Q 2538 409 2786 701 
Q 3034 994 3034 1497 
Q 3034 2003 2786 2293 
Q 2538 2584 2113 2584 
z
M 3366 4563 
L 3366 3988 
Q 3128 4100 2886 4159 
Q 2644 4219 2406 4219 
Q 1781 4219 1451 3797 
Q 1122 3375 1075 2522 
Q 1259 2794 1537 2939 
Q 1816 3084 2150 3084 
Q 2853 3084 3261 2657 
Q 3669 2231 3669 1497 
Q 3669 778 3244 343 
Q 2819 -91 2113 -91 
Q 1303 -91 875 529 
Q 447 1150 447 2328 
Q 447 3434 972 4092 
Q 1497 4750 2381 4750 
Q 2619 4750 2861 4703 
Q 3103 4656 3366 4563 
z
" transform="scale(0.015625)"/>
       </defs>
       <use xlink:href="#DejaVuSans-36"/>
      </g>
     </g>
    </g>
    <g id="ytick_5">
     <g id="line2d_39">
      <path d="M 44.57 126.611261 
L 1285.2 126.611261 
" clip-path="url(#p7cd5675817)" style="fill: none; stroke-dasharray: 2.96,1.28; stroke-dashoffset: 0; stroke: #b0b0b0; stroke-opacity: 0.6; stroke-width: 0.8"/>
     </g>
     <g id="line2d_40">
      <g>
       <use xlink:href="#mf85e2f4a06" x="44.57" y="126.611261" style="stroke: #000000; stroke-width: 0.8"/>
      </g>
     </g>
     <g id="text_35">
      <!-- 8 -->
      <g transform="translate(31.2075 130.41048) scale(0.1 -0.1)">
       <defs>
        <path id="DejaVuSans-38" d="M 2034 2216 
Q 1584 2216 1326 1975 
Q 1069 1734 1069 1313 
Q 1069 891 1326 650 
Q 1584 409 2034 409 
Q 2484 409 2743 651 
Q 3003 894 3003 1313 
Q 3003 1734 2745 1975 
Q 2488 2216 2034 2216 
z
M 1403 2484 
Q 997 2584 770 2862 
Q 544 3141 544 3541 
Q 544 4100 942 4425 
Q 1341 4750 2034 4750 
Q 2731 4750 3128 4425 
Q 3525 4100 3525 3541 
Q 3525 3141 3298 2862 
Q 3072 2584 2669 2484 
Q 3125 2378 3379 2068 
Q 3634 1759 3634 1313 
Q 3634 634 3220 271 
Q 2806 -91 2034 -91 
Q 1263 -91 848 271 
Q 434 634 434 1313 
Q 434 1759 690 2068 
Q 947 2378 1403 2484 
z
M 1172 3481 
Q 1172 3119 1398 2916 
Q 1625 2713 2034 2713 
Q 2441 2713 2670 2916 
Q 2900 3119 2900 3481 
Q 2900 3844 2670 4047 
Q 2441 4250 2034 4250 
Q 1625 4250 1398 4047 
Q 1172 3844 1172 3481 
z
" transform="scale(0.015625)"/>
       </defs>
       <use xlink:href="#DejaVuSans-38"/>
      </g>
     </g>
    </g>
    <g id="ytick_6">
     <g id="line2d_41">
      <path d="M 44.57 73.562718 
L 1285.2 73.562718 
" clip-path="url(#p7cd5675817)" style="fill: none; stroke-dasharray: 2.96,1.28; stroke-dashoffset: 0; stroke: #b0b0b0; stroke-opacity: 0.6; stroke-width: 0.8"/>
     </g>
     <g id="line2d_42">
      <g>
       <use xlink:href="#mf85e2f4a06" x="44.57" y="73.562718" style="stroke: #000000; stroke-width: 0.8"/>
      </g>
     </g>
     <g id="text_36">
      <!-- 10 -->
      <g transform="translate(24.845 77.361937) scale(0.1 -0.1)">
       <use xlink:href="#DejaVuSans-31"/>
       <use xlink:href="#DejaVuSans-30" x="63.623047"/>
      </g>
     </g>
    </g>
    <g id="text_37">
     <!-- CPI -->
     <g transform="translate(18.765312 190.823966) rotate(-90) scale(0.1 -0.1)">
      <defs>
       <path id="DejaVuSans-43" d="M 4122 4306 
L 4122 3641 
Q 3803 3938 3442 4084 
Q 3081 4231 2675 4231 
Q 1875 4231 1450 3742 
Q 1025 3253 1025 2328 
Q 1025 1406 1450 917 
Q 1875 428 2675 428 
Q 3081 428 3442 575 
Q 3803 722 4122 1019 
L 4122 359 
Q 3791 134 3420 21 
Q 3050 -91 2638 -91 
Q 1578 -91 968 557 
Q 359 1206 359 2328 
Q 359 3453 968 4101 
Q 1578 4750 2638 4750 
Q 3056 4750 3426 4639 
Q 3797 4528 4122 4306 
z
" transform="scale(0.015625)"/>
       <path id="DejaVuSans-50" d="M 1259 4147 
L 1259 2394 
L 2053 2394 
Q 2494 2394 2734 2622 
Q 2975 2850 2975 3272 
Q 2975 3691 2734 3919 
Q 2494 4147 2053 4147 
L 1259 4147 
z
M 628 4666 
L 2053 4666 
Q 2838 4666 3239 4311 
Q 3641 3956 3641 3272 
Q 3641 2581 3239 2228 
Q 2838 1875 2053 1875 
L 1259 1875 
L 1259 0 
L 628 0 
L 628 4666 
z
" transform="scale(0.015625)"/>
       <path id="DejaVuSans-49" d="M 628 4666 
L 1259 4666 
L 1259 0 
L 628 0 
L 628 4666 
z
" transform="scale(0.015625)"/>
      </defs>
      <use xlink:href="#DejaVuSans-43"/>
      <use xlink:href="#DejaVuSans-50" x="69.824219"/>
      <use xlink:href="#DejaVuSans-49" x="130.126953"/>
     </g>
    </g>
   </g>
   <g id="patch_63">
    <path d="M 44.57 338.805433 
L 44.57 26.88 
" style="fill: none; stroke: #000000; stroke-width: 0.8; stroke-linejoin: miter; stroke-linecap: square"/>
   </g>
   <g id="patch_64">
    <path d="M 1285.2 338.805433 
L 1285.2 26.88 
" style="fill: none; stroke: #000000; stroke-width: 0.8; stroke-linejoin: miter; stroke-linecap: square"/>
   </g>
   <g id="patch_65">
    <path d="M 44.57 338.805433 
L 1285.2 338.805433 
" style="fill: none; stroke: #000000; stroke-width: 0.8; stroke-linejoin: miter; stroke-linecap: square"/>
   </g>
   <g id="patch_66">
    <path d="M 44.57 26.88 
L 1285.2 26.88 
" style="fill: none; stroke: #000000; stroke-width: 0.8; stroke-linejoin: miter; stroke-linecap: square"/>
   </g>
   <g id="text_38">
    <!-- CPI With vs Without Branch Predictor -->
    <g transform="translate(554.066875 20.88) scale(0.12 -0.12)">
     <defs>
      <path id="DejaVuSans-20" transform="scale(0.015625)"/>
      <path id="DejaVuSans-57" d="M 213 4666 
L 850 4666 
L 1831 722 
L 2809 4666 
L 3519 4666 
L 4500 722 
L 5478 4666 
L 6119 4666 
L 4947 0 
L 4153 0 
L 3169 4050 
L 2175 0 
L 1381 0 
L 213 4666 
z
" transform="scale(0.015625)"/>
      <path id="DejaVuSans-42" d="M 1259 2228 
L 1259 519 
L 2272 519 
Q 2781 519 3026 730 
Q 3272 941 3272 1375 
Q 3272 1813 3026 2020 
Q 2781 2228 2272 2228 
L 1259 2228 
z
M 1259 4147 
L 1259 2741 
L 2194 2741 
Q 2656 2741 2882 2914 
Q 3109 3088 3109 3444 
Q 3109 3797 2882 3972 
Q 2656 4147 2194 4147 
L 1259 4147 
z
M 628 4666 
L 2241 4666 
Q 2963 4666 3353 4366 
Q 3744 4066 3744 3513 
Q 3744 3084 3544 2831 
Q 3344 2578 2956 2516 
Q 3422 2416 3680 2098 
Q 3938 1781 3938 1306 
Q 3938 681 3513 340 
Q 3088 0 2303 0 
L 628 0 
L 628 4666 
z
" transform="scale(0.015625)"/>
     </defs>
     <use xlink:href="#DejaVuSans-43"/>
     <use xlink:href="#DejaVuSans-50" x="69.824219"/>
     <use xlink:href="#DejaVuSans-49" x="130.126953"/>
     <use xlink:href="#DejaVuSans-20" x="159.619141"/>
     <use xlink:href="#DejaVuSans-57" x="191.40625"/>
     <use xlink:href="#DejaVuSans-69" x="288.033203"/>
     <use xlink:href="#DejaVuSans-74" x="315.816406"/>
     <use xlink:href="#DejaVuSans-68" x="355.025391"/>
     <use xlink:href="#DejaVuSans-20" x="418.404297"/>
     <use xlink:href="#DejaVuSans-76" x="450.191406"/>
     <use xlink:href="#DejaVuSans-73" x="509.371094"/>
     <use xlink:href="#DejaVuSans-20" x="561.470703"/>
     <use xlink:href="#DejaVuSans-57" x="593.257812"/>
     <use xlink:href="#DejaVuSans-69" x="689.884766"/>
     <use xlink:href="#DejaVuSans-74" x="717.667969"/>
     <use xlink:href="#DejaVuSans-68" x="756.876953"/>
     <use xlink:href="#DejaVuSans-6f" x="820.255859"/>
     <use xlink:href="#DejaVuSans-75" x="881.4375"/>
     <use xlink:href="#DejaVuSans-74" x="944.816406"/>
     <use xlink:href="#DejaVuSans-20" x="984.025391"/>
     <use xlink:href="#DejaVuSans-42" x="1015.8125"/>
     <use xlink:href="#DejaVuSans-72" x="1084.416016"/>
     <use xlink:href="#DejaVuSans-61" x="1125.529297"/>
     <use xlink:href="#DejaVuSans-6e" x="1186.808594"/>
     <use xlink:href="#DejaVuSans-63" x="1250.1875"/>
     <use xlink:href="#DejaVuSans-68" x="1305.167969"/>
     <use xlink:href="#DejaVuSans-20" x="1368.546875"/>
     <use xlink:href="#DejaVuSans-50" x="1400.333984"/>
     <use xlink:href="#DejaVuSans-72" x="1458.886719"/>
     <use xlink:href="#DejaVuSans-65" x="1497.75"/>
     <use xlink:href="#DejaVuSans-64" x="1559.273438"/>
     <use xlink:href="#DejaVuSans-69" x="1622.75"/>
     <use xlink:href="#DejaVuSans-63" x="1650.533203"/>
     <use xlink:href="#DejaVuSans-74" x="1705.513672"/>
     <use xlink:href="#DejaVuSans-6f" x="1744.722656"/>
     <use xlink:href="#DejaVuSans-72" x="1805.904297"/>
    </g>
   </g>
   <g id="legend_1">
    <g id="patch_67">
     <path d="M 1191.05625 64.23625 
L 1278.2 64.23625 
Q 1280.2 64.23625 1280.2 62.23625 
L 1280.2 33.88 
Q 1280.2 31.88 1278.2 31.88 
L 1191.05625 31.88 
Q 1189.05625 31.88 1189.05625 33.88 
L 1189.05625 62.23625 
Q 1189.05625 64.23625 1191.05625 64.23625 
z
" style="fill: #ffffff; opacity: 0.8; stroke: #cccccc; stroke-linejoin: miter"/>
    </g>
    <g id="patch_68">
     <path d="M 1193.05625 43.478437 
L 1213.05625 43.478437 
L 1213.05625 36.478437 
L 1193.05625 36.478437 
z
" style="fill: #1f77b4"/>
    </g>
    <g id="text_39">
     <!-- With BP -->
     <g transform="translate(1221.05625 43.478437) scale(0.1 -0.1)">
      <use xlink:href="#DejaVuSans-57"/>
      <use xlink:href="#DejaVuSans-69" x="96.626953"/>
      <use xlink:href="#DejaVuSans-74" x="124.410156"/>
      <use xlink:href="#DejaVuSans-68" x="163.619141"/>
      <use xlink:href="#DejaVuSans-20" x="226.998047"/>
      <use xlink:href="#DejaVuSans-42" x="258.785156"/>
      <use xlink:href="#DejaVuSans-50" x="327.388672"/>
     </g>
    </g>
    <g id="patch_69">
     <path d="M 1193.05625 58.156563 
L 1213.05625 58.156563 
L 1213.05625 51.156563 
L 1193.05625 51.156563 
z
" style="fill: #ff7f0e"/>
    </g>
    <g id="text_40">
     <!-- Without BP -->
     <g transform="translate(1221.05625 58.156563) scale(0.1 -0.1)">
      <use xlink:href="#DejaVuSans-57"/>
      <use xlink:href="#DejaVuSans-69" x="96.626953"/>
      <use xlink:href="#DejaVuSans-74" x="124.410156"/>
      <use xlink:href="#DejaVuSans-68" x="163.619141"/>
      <use xlink:href="#DejaVuSans-6f" x="226.998047"/>
      <use xlink:href="#DejaVuSans-75" x="288.179688"/>
      <use xlink:href="#DejaVuSans-74" x="351.558594"/>
      <use xlink:href="#DejaVuSans-20" x="390.767578"/>
      <use xlink:href="#DejaVuSans-42" x="422.554688"/>
      <use xlink:href="#DejaVuSans-50" x="491.158203"/>
     </g>
    </g>
   </g>
  </g>
 </g>
 <defs>
  <clipPath id="p7cd5675817">
   <rect x="44.57" y="26.88" width="1240.63" height="311.925433"/>
  </clipPath>
 </defs>
</svg>
